STARTFONT 2.1
COMMENT 
COMMENT Shinonome 16dot font for JISX 0208, 1983/1990, Mincho Style
COMMENT 
COMMENT The original is designed by
COMMENT   Yasuyuki Furukawa <Furukawa.Yasuyuki@fujixerox.co.jp>, 2000.
COMMENT   (Public Domain)
COMMENT 
COMMENT Modified and Maintained by /efont/.
COMMENT 
COMMENT (c) /efont/ -- Efont Open Laboratory 2001
COMMENT http://openlab.ring.gr.jp/efont/
COMMENT 
FONT -Shinonome-Mincho-Medium-R-Normal--16-150-75-75-C-160-JISX0208.1990-0
SIZE 16 75 75
FONTBOUNDINGBOX 16 16 0 -2
STARTPROPERTIES 20
FONT_ASCENT 14
FONT_DESCENT 2
DEFAULT_CHAR 8481
COPYRIGHT "Public Domain"
FONTNAME_REGISTRY ""
FOUNDRY "Shinonome"
FAMILY_NAME "Mincho"
WEIGHT_NAME "Medium"
SLANT "R"
SETWIDTH_NAME "Normal"
ADD_STYLE_NAME ""
PIXEL_SIZE 16
POINT_SIZE 150
RESOLUTION_X 75
RESOLUTION_Y 75
SPACING "C"
AVERAGE_WIDTH 160
CHARSET_REGISTRY "JISX0208.1990"
CHARSET_ENCODING "0"
XMBDFED_INFO "Edited with xmbdfed 4.4."
ENDPROPERTIES
CHARS 6879
STARTCHAR 2121
ENCODING 8481
SWIDTH 960 0
DWIDTH 16 0
BBX 16 16 0 -2
BITMAP
0000
0000
0000
0000
0000
0000
0000
0000
0000
0000
0000
0000
0000
0000
0000
0000
ENDCHAR
STARTCHAR 2122
ENCODING 8482
SWIDTH 960 0
DWIDTH 16 0
BBX 16 16 0 -2
BITMAP
0000
0000
0000
0000
0000
0000
0000
0000
0000
0000
0000
0000
2000
1000
0800
0800
ENDCHAR
STARTCHAR 2123
ENCODING 8483
SWIDTH 960 0
DWIDTH 16 0
BBX 16 16 0 -2
BITMAP
0000
0000
0000
0000
0000
0000
0000
0000
0000
0000
0000
3000
4800
4800
3000
0000
ENDCHAR
STARTCHAR 2124
ENCODING 8484
SWIDTH 960 0
DWIDTH 16 0
BBX 16 16 0 -2
BITMAP
0000
0000
0000
0000
0000
0000
0000
0000
0000
0000
0000
0000
6000
6000
2000
4000
ENDCHAR
STARTCHAR 2125
ENCODING 8485
SWIDTH 960 0
DWIDTH 16 0
BBX 16 16 0 -2
BITMAP
0000
0000
0000
0000
0000
0000
0000
0000
0000
0000
0000
0000
6000
6000
0000
0000
ENDCHAR
STARTCHAR 2126
ENCODING 8486
SWIDTH 960 0
DWIDTH 16 0
BBX 16 16 0 -2
BITMAP
0000
0000
0000
0000
0000
0000
0000
0180
0180
0000
0000
0000
0000
0000
0000
0000
ENDCHAR
STARTCHAR 2127
ENCODING 8487
SWIDTH 960 0
DWIDTH 16 0
BBX 16 16 0 -2
BITMAP
0000
0000
0000
0000
0180
0180
0000
0000
0000
0000
0180
0180
0000
0000
0000
0000
ENDCHAR
STARTCHAR 2128
ENCODING 8488
SWIDTH 960 0
DWIDTH 16 0
BBX 16 16 0 -2
BITMAP
0000
0000
0000
0000
0180
0180
0000
0000
0000
0000
0180
0180
0080
0100
0000
0000
ENDCHAR
STARTCHAR 2129
ENCODING 8489
SWIDTH 960 0
DWIDTH 16 0
BBX 16 16 0 -2
BITMAP
0000
03c0
0420
0810
0810
0810
0420
0040
0080
0100
0100
0000
0000
0100
0100
0000
ENDCHAR
STARTCHAR 212a
ENCODING 8490
SWIDTH 960 0
DWIDTH 16 0
BBX 16 16 0 -2
BITMAP
0000
0180
0180
0180
0180
0100
0100
0100
0100
0100
0100
0000
0000
0100
0100
0000
ENDCHAR
STARTCHAR 212b
ENCODING 8491
SWIDTH 960 0
DWIDTH 16 0
BBX 16 16 0 -2
BITMAP
1000
4800
2800
2000
0000
0000
0000
0000
0000
0000
0000
0000
0000
0000
0000
0000
ENDCHAR
STARTCHAR 212c
ENCODING 8492
SWIDTH 960 0
DWIDTH 16 0
BBX 16 16 0 -2
BITMAP
0000
6000
9000
9000
6000
0000
0000
0000
0000
0000
0000
0000
0000
0000
0000
0000
ENDCHAR
STARTCHAR 212d
ENCODING 8493
SWIDTH 960 0
DWIDTH 16 0
BBX 16 16 0 -2
BITMAP
0080
0080
0100
0200
0000
0000
0000
0000
0000
0000
0000
0000
0000
0000
0000
0000
ENDCHAR
STARTCHAR 212e
ENCODING 8494
SWIDTH 960 0
DWIDTH 16 0
BBX 16 16 0 -2
BITMAP
0200
0200
0100
0080
0000
0000
0000
0000
0000
0000
0000
0000
0000
0000
0000
0000
ENDCHAR
STARTCHAR 212f
ENCODING 8495
SWIDTH 960 0
DWIDTH 16 0
BBX 16 16 0 -2
BITMAP
0660
0660
0000
0000
0000
0000
0000
0000
0000
0000
0000
0000
0000
0000
0000
0000
ENDCHAR
STARTCHAR 2130
ENCODING 8496
SWIDTH 960 0
DWIDTH 16 0
BBX 16 16 0 -2
BITMAP
0100
0280
0440
0820
0000
0000
0000
0000
0000
0000
0000
0000
0000
0000
0000
0000
ENDCHAR
STARTCHAR 2131
ENCODING 8497
SWIDTH 960 0
DWIDTH 16 0
BBX 16 16 0 -2
BITMAP
ffff
0000
0000
0000
0000
0000
0000
0000
0000
0000
0000
0000
0000
0000
0000
0000
ENDCHAR
STARTCHAR 2132
ENCODING 8498
SWIDTH 960 0
DWIDTH 16 0
BBX 16 16 0 -2
BITMAP
0000
0000
0000
0000
0000
0000
0000
0000
0000
0000
0000
0000
0000
0000
0000
ffff
ENDCHAR
STARTCHAR 2133
ENCODING 8499
SWIDTH 960 0
DWIDTH 16 0
BBX 16 16 0 -2
BITMAP
0000
0000
0000
0000
0000
0c00
0300
0080
0040
0020
0010
0000
0000
0000
0000
0000
ENDCHAR
STARTCHAR 2134
ENCODING 8500
SWIDTH 960 0
DWIDTH 16 0
BBX 16 16 0 -2
BITMAP
0000
0000
0020
0090
0050
0c40
0300
0080
0040
0020
0010
0000
0000
0000
0000
0000
ENDCHAR
STARTCHAR 2135
ENCODING 8501
SWIDTH 960 0
DWIDTH 16 0
BBX 16 16 0 -2
BITMAP
0000
0000
0000
0000
0c00
0300
0080
0040
0020
0070
0080
0100
0000
0000
0000
0000
ENDCHAR
STARTCHAR 2136
ENCODING 8502
SWIDTH 960 0
DWIDTH 16 0
BBX 16 16 0 -2
BITMAP
0000
0000
0020
0090
1850
0640
0100
0080
0040
00e0
0100
0200
0000
0000
0000
0000
ENDCHAR
STARTCHAR 2137
ENCODING 8503
SWIDTH 960 0
DWIDTH 16 0
BBX 16 16 0 -2
BITMAP
0000
0000
0000
0000
0110
0110
0110
0220
0220
0440
0880
0000
0000
0000
0000
0000
ENDCHAR
STARTCHAR 2138
ENCODING 8504
SWIDTH 960 0
DWIDTH 16 0
BBX 16 16 0 -2
BITMAP
0100
0100
0280
0440
0820
3018
c006
0000
1ff8
0100
0100
0100
0100
0100
7ffc
0000
ENDCHAR
STARTCHAR 2139
ENCODING 8505
SWIDTH 960 0
DWIDTH 16 0
BBX 16 16 0 -2
BITMAP
0000
0200
0200
0200
03f0
0210
0410
0420
0820
1340
20c0
0020
0010
0010
0000
0000
ENDCHAR
STARTCHAR 213a
ENCODING 8506
SWIDTH 960 0
DWIDTH 16 0
BBX 16 16 0 -2
BITMAP
0000
0004
0004
0008
0010
0320
04c0
0880
0940
1200
1400
1800
1000
2000
2000
0000
ENDCHAR
STARTCHAR 213b
ENCODING 8507
SWIDTH 960 0
DWIDTH 16 0
BBX 16 16 0 -2
BITMAP
0000
03c0
0c30
1008
2004
2004
4002
4002
4002
4002
2004
2004
1008
0c30
03c0
0000
ENDCHAR
STARTCHAR 213c
ENCODING 8508
SWIDTH 960 0
DWIDTH 16 0
BBX 16 16 0 -2
BITMAP
0000
0000
0000
0000
0000
0000
0000
40fc
3f00
0000
0000
0000
0000
0000
0000
0000
ENDCHAR
STARTCHAR 213d
ENCODING 8509
SWIDTH 960 0
DWIDTH 16 0
BBX 16 16 0 -2
BITMAP
0000
0000
0000
0000
0000
0000
0000
ffff
0000
0000
0000
0000
0000
0000
0000
0000
ENDCHAR
STARTCHAR 213e
ENCODING 8510
SWIDTH 960 0
DWIDTH 16 0
BBX 16 16 0 -2
BITMAP
0000
0000
0000
0000
0000
0000
0000
07e0
0000
0000
0000
0000
0000
0000
0000
0000
ENDCHAR
STARTCHAR 213f
ENCODING 8511
SWIDTH 960 0
DWIDTH 16 0
BBX 16 16 0 -2
BITMAP
0001
0002
0004
0008
0010
0020
0040
0080
0100
0200
0400
0800
1000
2000
4000
8000
ENDCHAR
STARTCHAR 2140
ENCODING 8512
SWIDTH 960 0
DWIDTH 16 0
BBX 16 16 0 -2
BITMAP
8000
4000
2000
1000
0800
0400
0200
0100
0080
0040
0020
0010
0008
0004
0002
0001
ENDCHAR
STARTCHAR 2141
ENCODING 8513
SWIDTH 960 0
DWIDTH 16 0
BBX 16 16 0 -2
BITMAP
0000
0000
0000
0000
0000
0000
1c00
2304
4088
0070
0000
0000
0000
0000
0000
0000
ENDCHAR
STARTCHAR 2142
ENCODING 8514
SWIDTH 960 0
DWIDTH 16 0
BBX 16 16 0 -2
BITMAP
0440
0440
0440
0440
0440
0440
0440
0440
0440
0440
0440
0440
0440
0440
0440
0440
ENDCHAR
STARTCHAR 2143
ENCODING 8515
SWIDTH 960 0
DWIDTH 16 0
BBX 16 16 0 -2
BITMAP
0100
0100
0100
0100
0100
0100
0100
0100
0100
0100
0100
0100
0100
0100
0100
0100
ENDCHAR
STARTCHAR 2144
ENCODING 8516
SWIDTH 960 0
DWIDTH 16 0
BBX 16 16 0 -2
BITMAP
0000
0000
0000
0000
0000
0000
0000
6186
6186
0000
0000
0000
0000
0000
0000
0000
ENDCHAR
STARTCHAR 2145
ENCODING 8517
SWIDTH 960 0
DWIDTH 16 0
BBX 16 16 0 -2
BITMAP
0000
0000
0000
0000
0000
0000
0000
1818
1818
0000
0000
0000
0000
0000
0000
0000
ENDCHAR
STARTCHAR 2146
ENCODING 8518
SWIDTH 960 0
DWIDTH 16 0
BBX 16 16 0 -2
BITMAP
0008
0010
0018
0018
0000
0000
0000
0000
0000
0000
0000
0000
0000
0000
0000
0000
ENDCHAR
STARTCHAR 2147
ENCODING 8519
SWIDTH 960 0
DWIDTH 16 0
BBX 16 16 0 -2
BITMAP
1800
1800
0800
1000
0000
0000
0000
0000
0000
0000
0000
0000
0000
0000
0000
0000
ENDCHAR
STARTCHAR 2148
ENCODING 8520
SWIDTH 960 0
DWIDTH 16 0
BBX 16 16 0 -2
BITMAP
0024
0048
006c
006c
0000
0000
0000
0000
0000
0000
0000
0000
0000
0000
0000
0000
ENDCHAR
STARTCHAR 2149
ENCODING 8521
SWIDTH 960 0
DWIDTH 16 0
BBX 16 16 0 -2
BITMAP
3600
3600
1200
2400
0000
0000
0000
0000
0000
0000
0000
0000
0000
0000
0000
0000
ENDCHAR
STARTCHAR 214a
ENCODING 8522
SWIDTH 960 0
DWIDTH 16 0
BBX 16 16 0 -2
BITMAP
0008
0010
0020
0040
0040
0080
0080
0080
0080
0080
0080
0040
0040
0020
0010
0008
ENDCHAR
STARTCHAR 214b
ENCODING 8523
SWIDTH 960 0
DWIDTH 16 0
BBX 16 16 0 -2
BITMAP
1000
0800
0400
0200
0200
0100
0100
0100
0100
0100
0100
0200
0200
0400
0800
1000
ENDCHAR
STARTCHAR 214c
ENCODING 8524
SWIDTH 960 0
DWIDTH 16 0
BBX 16 16 0 -2
BITMAP
0008
0030
00c0
0080
0080
0080
0080
0080
0080
0080
0080
0080
0080
00c0
0030
0008
ENDCHAR
STARTCHAR 214d
ENCODING 8525
SWIDTH 960 0
DWIDTH 16 0
BBX 16 16 0 -2
BITMAP
1000
0c00
0300
0100
0100
0100
0100
0100
0100
0100
0100
0100
0100
0300
0c00
1000
ENDCHAR
STARTCHAR 214e
ENCODING 8526
SWIDTH 960 0
DWIDTH 16 0
BBX 16 16 0 -2
BITMAP
00f8
0080
0080
0080
0080
0080
0080
0080
0080
0080
0080
0080
0080
0080
0080
00f8
ENDCHAR
STARTCHAR 214f
ENCODING 8527
SWIDTH 960 0
DWIDTH 16 0
BBX 16 16 0 -2
BITMAP
1f00
0100
0100
0100
0100
0100
0100
0100
0100
0100
0100
0100
0100
0100
0100
1f00
ENDCHAR
STARTCHAR 2150
ENCODING 8528
SWIDTH 960 0
DWIDTH 16 0
BBX 16 16 0 -2
BITMAP
0008
0010
0020
0020
0020
0020
0020
00c0
0020
0020
0020
0020
0020
0020
0010
0008
ENDCHAR
STARTCHAR 2151
ENCODING 8529
SWIDTH 960 0
DWIDTH 16 0
BBX 16 16 0 -2
BITMAP
1000
0800
0400
0400
0400
0400
0400
0300
0400
0400
0400
0400
0400
0400
0800
1000
ENDCHAR
STARTCHAR 2152
ENCODING 8530
SWIDTH 960 0
DWIDTH 16 0
BBX 16 16 0 -2
BITMAP
0008
0008
0010
0010
0020
0020
0040
0080
0080
0040
0020
0020
0010
0010
0008
0008
ENDCHAR
STARTCHAR 2153
ENCODING 8531
SWIDTH 960 0
DWIDTH 16 0
BBX 16 16 0 -2
BITMAP
1000
1000
0800
0800
0400
0400
0200
0100
0100
0200
0400
0400
0800
0800
1000
1000
ENDCHAR
STARTCHAR 2154
ENCODING 8532
SWIDTH 960 0
DWIDTH 16 0
BBX 16 16 0 -2
BITMAP
0024
0024
0048
0048
0090
0090
0120
0240
0240
0120
0090
0090
0048
0048
0024
0024
ENDCHAR
STARTCHAR 2155
ENCODING 8533
SWIDTH 960 0
DWIDTH 16 0
BBX 16 16 0 -2
BITMAP
2400
2400
1200
1200
0900
0900
0480
0240
0240
0480
0900
0900
1200
1200
2400
2400
ENDCHAR
STARTCHAR 2156
ENCODING 8534
SWIDTH 960 0
DWIDTH 16 0
BBX 16 16 0 -2
BITMAP
00f8
0080
0080
0080
0080
0080
0080
0080
0080
0080
0080
0000
0000
0000
0000
0000
ENDCHAR
STARTCHAR 2157
ENCODING 8535
SWIDTH 960 0
DWIDTH 16 0
BBX 16 16 0 -2
BITMAP
0000
0000
0000
0000
0000
0100
0100
0100
0100
0100
0100
0100
0100
0100
0100
1f00
ENDCHAR
STARTCHAR 2158
ENCODING 8536
SWIDTH 960 0
DWIDTH 16 0
BBX 16 16 0 -2
BITMAP
01f8
0108
0178
0140
0140
0140
0140
0140
0140
0140
01c0
0000
0000
0000
0000
0000
ENDCHAR
STARTCHAR 2159
ENCODING 8537
SWIDTH 960 0
DWIDTH 16 0
BBX 16 16 0 -2
BITMAP
0000
0000
0000
0000
0000
0380
0280
0280
0280
0280
0280
0280
0280
1e80
1080
1f80
ENDCHAR
STARTCHAR 215a
ENCODING 8538
SWIDTH 960 0
DWIDTH 16 0
BBX 16 16 0 -2
BITMAP
00f8
00f0
00e0
00c0
00c0
0080
0080
0080
0080
0080
0080
00c0
00c0
00e0
00f0
00f8
ENDCHAR
STARTCHAR 215b
ENCODING 8539
SWIDTH 960 0
DWIDTH 16 0
BBX 16 16 0 -2
BITMAP
1f00
0f00
0700
0300
0300
0100
0100
0100
0100
0100
0100
0300
0300
0700
0f00
1f00
ENDCHAR
STARTCHAR 215c
ENCODING 8540
SWIDTH 960 0
DWIDTH 16 0
BBX 16 16 0 -2
BITMAP
0000
0000
0100
0100
0100
0100
0100
3ff8
0100
0100
0100
0100
0100
0100
0000
0000
ENDCHAR
STARTCHAR 215d
ENCODING 8541
SWIDTH 960 0
DWIDTH 16 0
BBX 16 16 0 -2
BITMAP
0000
0000
0000
0000
0000
0000
0000
3ffc
0000
0000
0000
0000
0000
0000
0000
0000
ENDCHAR
STARTCHAR 215e
ENCODING 8542
SWIDTH 960 0
DWIDTH 16 0
BBX 16 16 0 -2
BITMAP
0000
0000
0100
0100
0100
0100
3ff8
0100
0100
0100
0100
0000
0000
3ff8
0000
0000
ENDCHAR
STARTCHAR 215f
ENCODING 8543
SWIDTH 960 0
DWIDTH 16 0
BBX 16 16 0 -2
BITMAP
0000
0000
0000
1008
0810
0420
0240
0180
0180
0240
0420
0810
1008
0000
0000
0000
ENDCHAR
STARTCHAR 2160
ENCODING 8544
SWIDTH 960 0
DWIDTH 16 0
BBX 16 16 0 -2
BITMAP
0000
0000
0000
0180
0180
0000
0000
3ffc
0000
0000
0180
0180
0000
0000
0000
0000
ENDCHAR
STARTCHAR 2161
ENCODING 8545
SWIDTH 960 0
DWIDTH 16 0
BBX 16 16 0 -2
BITMAP
0000
0000
0000
0000
0000
3ffc
0000
0000
0000
3ffc
0000
0000
0000
0000
0000
0000
ENDCHAR
STARTCHAR 2162
ENCODING 8546
SWIDTH 960 0
DWIDTH 16 0
BBX 16 16 0 -2
BITMAP
0000
0000
0040
0040
0080
3ffc
0080
0100
0100
3ffc
0100
0200
0200
0000
0000
0000
ENDCHAR
STARTCHAR 2163
ENCODING 8547
SWIDTH 960 0
DWIDTH 16 0
BBX 16 16 0 -2
BITMAP
0000
0000
000c
0030
00c0
0300
0c00
3000
0c00
0300
00c0
0030
000c
0000
0000
0000
ENDCHAR
STARTCHAR 2164
ENCODING 8548
SWIDTH 960 0
DWIDTH 16 0
BBX 16 16 0 -2
BITMAP
0000
0000
3000
0c00
0300
00c0
0030
000c
0030
00c0
0300
0c00
3000
0000
0000
0000
ENDCHAR
STARTCHAR 2165
ENCODING 8549
SWIDTH 960 0
DWIDTH 16 0
BBX 16 16 0 -2
BITMAP
0000
0000
001c
00e0
0700
3800
0700
00e0
001c
0000
3ffc
0000
0000
3ffc
0000
0000
ENDCHAR
STARTCHAR 2166
ENCODING 8550
SWIDTH 960 0
DWIDTH 16 0
BBX 16 16 0 -2
BITMAP
0000
0000
3800
0700
00e0
001c
00e0
0700
3800
0000
3ffc
0000
0000
3ffc
0000
0000
ENDCHAR
STARTCHAR 2167
ENCODING 8551
SWIDTH 960 0
DWIDTH 16 0
BBX 16 16 0 -2
BITMAP
0000
0000
0000
0000
1c18
2664
4242
4182
4182
4242
2664
1838
0000
0000
0000
0000
ENDCHAR
STARTCHAR 2168
ENCODING 8552
SWIDTH 960 0
DWIDTH 16 0
BBX 16 16 0 -2
BITMAP
0000
0000
0000
0180
0180
0000
0000
0000
0000
0000
0000
300c
300c
0000
0000
0000
ENDCHAR
STARTCHAR 2169
ENCODING 8553
SWIDTH 960 0
DWIDTH 16 0
BBX 16 16 0 -2
BITMAP
0000
00fe
0006
000a
0012
0022
0042
1e82
2100
4080
4080
4080
4080
2100
1e00
0000
ENDCHAR
STARTCHAR 216a
ENCODING 8554
SWIDTH 960 0
DWIDTH 16 0
BBX 16 16 0 -2
BITMAP
0000
03c0
0420
0810
0810
0810
0810
0420
03c0
0100
1ff8
0100
0100
0100
0100
0100
ENDCHAR
STARTCHAR 216b
ENCODING 8555
SWIDTH 960 0
DWIDTH 16 0
BBX 16 16 0 -2
BITMAP
0000
3000
4800
4800
3000
0000
0000
0000
0000
0000
0000
0000
0000
0000
0000
0000
ENDCHAR
STARTCHAR 216c
ENCODING 8556
SWIDTH 960 0
DWIDTH 16 0
BBX 16 16 0 -2
BITMAP
0000
0800
1800
3000
2000
0000
0000
0000
0000
0000
0000
0000
0000
0000
0000
0000
ENDCHAR
STARTCHAR 216d
ENCODING 8557
SWIDTH 960 0
DWIDTH 16 0
BBX 16 16 0 -2
BITMAP
0000
1100
3300
6600
4400
0000
0000
0000
0000
0000
0000
0000
0000
0000
0000
0000
ENDCHAR
STARTCHAR 216e
ENCODING 8558
SWIDTH 960 0
DWIDTH 16 0
BBX 16 16 0 -2
BITMAP
0000
3072
498a
4a06
3202
0402
0400
0400
0400
0400
0202
0204
0198
0060
0000
0000
ENDCHAR
STARTCHAR 216f
ENCODING 8559
SWIDTH 960 0
DWIDTH 16 0
BBX 16 16 0 -2
BITMAP
0000
3838
1010
0820
0820
7ffc
0440
0280
0100
7ffc
0100
0100
0100
0100
0380
0000
ENDCHAR
STARTCHAR 2170
ENCODING 8560
SWIDTH 960 0
DWIDTH 16 0
BBX 16 16 0 -2
BITMAP
0000
0280
07c0
0aa0
1290
1290
0a80
0780
02e0
0290
1288
1288
0a90
07e0
0280
0000
ENDCHAR
STARTCHAR 2171
ENCODING 8561
SWIDTH 960 0
DWIDTH 16 0
BBX 16 16 0 -2
BITMAP
0000
0000
0000
0000
0000
0020
03c0
0460
0850
0880
0880
0910
0520
03c0
0200
0400
ENDCHAR
STARTCHAR 2172
ENCODING 8562
SWIDTH 960 0
DWIDTH 16 0
BBX 16 16 0 -2
BITMAP
0000
01c0
0220
0200
0200
0200
0200
0200
7ff0
0200
0200
3c00
4604
4588
3870
0000
ENDCHAR
STARTCHAR 2173
ENCODING 8563
SWIDTH 960 0
DWIDTH 16 0
BBX 16 16 0 -2
BITMAP
0000
3802
6404
4408
4410
4420
4c40
3880
0138
0264
0444
0844
1044
204c
4038
0000
ENDCHAR
STARTCHAR 2174
ENCODING 8564
SWIDTH 960 0
DWIDTH 16 0
BBX 16 16 0 -2
BITMAP
0210
0210
0210
0210
1ffc
1ffc
0420
0420
0420
0420
3ff8
3ff8
0840
0840
0840
0840
ENDCHAR
STARTCHAR 2175
ENCODING 8565
SWIDTH 960 0
DWIDTH 16 0
BBX 16 16 0 -2
BITMAP
0000
0f00
1080
1080
1080
0900
0610
0410
0a10
1120
20a0
2040
20a0
1112
0e0c
0000
ENDCHAR
STARTCHAR 2176
ENCODING 8566
SWIDTH 960 0
DWIDTH 16 0
BBX 16 16 0 -2
BITMAP
0000
0000
0000
0100
0100
1930
0d60
0380
0100
0380
0d60
1930
0100
0100
0000
0000
ENDCHAR
STARTCHAR 2177
ENCODING 8567
SWIDTH 960 0
DWIDTH 16 0
BBX 16 16 0 -2
BITMAP
0000
0000
03c0
0c30
1008
11a8
2264
2444
2444
24e8
1370
1004
0c18
03e0
0000
0000
ENDCHAR
STARTCHAR 2178
ENCODING 8568
SWIDTH 960 0
DWIDTH 16 0
BBX 16 16 0 -2
BITMAP
0180
0240
0420
0620
0300
0380
04c0
0460
0620
0320
01c0
00c0
0460
0420
0240
0180
ENDCHAR
STARTCHAR 2179
ENCODING 8569
SWIDTH 960 0
DWIDTH 16 0
BBX 16 16 0 -2
BITMAP
0000
0100
0100
0280
0280
0440
7c7c
2008
1010
0820
0820
1110
1290
2c68
3018
0000
ENDCHAR
STARTCHAR 217a
ENCODING 8570
SWIDTH 960 0
DWIDTH 16 0
BBX 16 16 0 -2
BITMAP
0000
0100
0100
0380
0380
07c0
7ffc
3ff8
1ff0
0fe0
0fe0
1ef0
1c70
3838
2008
0000
ENDCHAR
STARTCHAR 217b
ENCODING 8571
SWIDTH 960 0
DWIDTH 16 0
BBX 16 16 0 -2
BITMAP
0000
03c0
0c30
1008
2004
2004
4002
4002
4002
4002
2004
2004
1008
0c30
03c0
0000
ENDCHAR
STARTCHAR 217c
ENCODING 8572
SWIDTH 960 0
DWIDTH 16 0
BBX 16 16 0 -2
BITMAP
0000
03c0
0ff0
1ff8
3ffc
3ffc
7ffe
7ffe
7ffe
7ffe
3ffc
3ffc
1ff8
0ff0
03c0
0000
ENDCHAR
STARTCHAR 217d
ENCODING 8573
SWIDTH 960 0
DWIDTH 16 0
BBX 16 16 0 -2
BITMAP
0000
03c0
0c30
1008
23c4
2424
4812
4812
4812
4812
2424
23c4
1008
0c30
03c0
0000
ENDCHAR
STARTCHAR 217e
ENCODING 8574
SWIDTH 960 0
DWIDTH 16 0
BBX 16 16 0 -2
BITMAP
0180
0240
0420
0810
1008
2004
4002
8001
8001
4002
2004
1008
0810
0420
0240
0180
ENDCHAR
STARTCHAR 2221
ENCODING 8737
SWIDTH 960 0
DWIDTH 16 0
BBX 16 16 0 -2
BITMAP
0180
03c0
07e0
0ff0
1ff8
3ffc
7ffe
ffff
ffff
7ffe
3ffc
1ff8
0ff0
07e0
03c0
0180
ENDCHAR
STARTCHAR 2222
ENCODING 8738
SWIDTH 960 0
DWIDTH 16 0
BBX 16 16 0 -2
BITMAP
0000
7ffe
4002
4002
4002
4002
4002
4002
4002
4002
4002
4002
4002
4002
7ffe
0000
ENDCHAR
STARTCHAR 2223
ENCODING 8739
SWIDTH 960 0
DWIDTH 16 0
BBX 16 16 0 -2
BITMAP
0000
7ffe
7ffe
7ffe
7ffe
7ffe
7ffe
7ffe
7ffe
7ffe
7ffe
7ffe
7ffe
7ffe
7ffe
0000
ENDCHAR
STARTCHAR 2224
ENCODING 8740
SWIDTH 960 0
DWIDTH 16 0
BBX 16 16 0 -2
BITMAP
0000
0100
0100
0280
0280
0440
0440
0820
0810
1010
1008
2008
2004
7ffe
0000
0000
ENDCHAR
STARTCHAR 2225
ENCODING 8741
SWIDTH 960 0
DWIDTH 16 0
BBX 16 16 0 -2
BITMAP
0000
0100
0100
0380
0380
07c0
07e0
0fe0
0ff0
1ff0
1ff8
3ffc
3ffc
7ffe
0000
0000
ENDCHAR
STARTCHAR 2226
ENCODING 8742
SWIDTH 960 0
DWIDTH 16 0
BBX 16 16 0 -2
BITMAP
0000
0000
7ffe
2004
2008
1008
1010
0810
0820
0440
0440
0280
0280
0100
0100
0000
ENDCHAR
STARTCHAR 2227
ENCODING 8743
SWIDTH 960 0
DWIDTH 16 0
BBX 16 16 0 -2
BITMAP
0000
0000
7ffe
3ffc
3ffc
1ff8
1ff0
0ff0
0fe0
07e0
07c0
0380
0380
0100
0100
0000
ENDCHAR
STARTCHAR 2228
ENCODING 8744
SWIDTH 960 0
DWIDTH 16 0
BBX 16 16 0 -2
BITMAP
0000
0000
2184
1188
0810
0420
0240
318c
318c
0240
0420
0810
1188
2184
0000
0000
ENDCHAR
STARTCHAR 2229
ENCODING 8745
SWIDTH 960 0
DWIDTH 16 0
BBX 16 16 0 -2
BITMAP
0000
3ffc
3ffc
0000
0000
7ffe
7ffe
0180
0180
0180
0180
0180
0180
0180
0180
0000
ENDCHAR
STARTCHAR 222a
ENCODING 8746
SWIDTH 960 0
DWIDTH 16 0
BBX 16 16 0 -2
BITMAP
0000
0000
0000
0000
0020
0010
000c
ffff
000c
0010
0020
0000
0000
0000
0000
0000
ENDCHAR
STARTCHAR 222b
ENCODING 8747
SWIDTH 960 0
DWIDTH 16 0
BBX 16 16 0 -2
BITMAP
0000
0000
0000
0000
0400
0800
3000
ffff
3000
0800
0400
0000
0000
0000
0000
0000
ENDCHAR
STARTCHAR 222c
ENCODING 8748
SWIDTH 960 0
DWIDTH 16 0
BBX 16 16 0 -2
BITMAP
0100
0100
0380
0380
0540
0920
0100
0100
0100
0100
0100
0100
0100
0100
0100
0100
ENDCHAR
STARTCHAR 222d
ENCODING 8749
SWIDTH 960 0
DWIDTH 16 0
BBX 16 16 0 -2
BITMAP
0100
0100
0100
0100
0100
0100
0100
0100
0100
0100
0920
0540
0380
0380
0100
0100
ENDCHAR
STARTCHAR 222e
ENCODING 8750
SWIDTH 960 0
DWIDTH 16 0
BBX 16 16 0 -2
BITMAP
0000
0000
0000
7ffc
7ffc
7ffc
0000
0000
0000
0000
7ffc
7ffc
7ffc
0000
0000
0000
ENDCHAR
STARTCHAR 223a
ENCODING 8762
SWIDTH 960 0
DWIDTH 16 0
BBX 16 16 0 -2
BITMAP
0000
0000
0000
07f8
0800
1000
1000
1ff8
1000
1000
0800
07f8
0000
0000
0000
0000
ENDCHAR
STARTCHAR 223b
ENCODING 8763
SWIDTH 960 0
DWIDTH 16 0
BBX 16 16 0 -2
BITMAP
0000
0000
0000
1fe0
0010
0008
0008
1ff8
0008
0008
0010
1fe0
0000
0000
0000
0000
ENDCHAR
STARTCHAR 223c
ENCODING 8764
SWIDTH 960 0
DWIDTH 16 0
BBX 16 16 0 -2
BITMAP
0000
0000
0ffc
1000
2000
2000
2000
2000
1000
0ffc
0000
0000
3ffc
0000
0000
0000
ENDCHAR
STARTCHAR 223d
ENCODING 8765
SWIDTH 960 0
DWIDTH 16 0
BBX 16 16 0 -2
BITMAP
0000
0000
3ff0
0008
0004
0004
0004
0004
0008
3ff0
0000
0000
3ffc
0000
0000
0000
ENDCHAR
STARTCHAR 223e
ENCODING 8766
SWIDTH 960 0
DWIDTH 16 0
BBX 16 16 0 -2
BITMAP
0000
0000
0000
03fc
0c00
1000
2000
2000
2000
2000
1000
0c00
03fc
0000
0000
0000
ENDCHAR
STARTCHAR 223f
ENCODING 8767
SWIDTH 960 0
DWIDTH 16 0
BBX 16 16 0 -2
BITMAP
0000
0000
0000
3fc0
0030
0008
0004
0004
0004
0004
0008
0030
3fc0
0000
0000
0000
ENDCHAR
STARTCHAR 2240
ENCODING 8768
SWIDTH 960 0
DWIDTH 16 0
BBX 16 16 0 -2
BITMAP
0000
0000
1008
1008
1008
1008
1008
1008
1008
1008
0810
0810
0420
03c0
0000
0000
ENDCHAR
STARTCHAR 2241
ENCODING 8769
SWIDTH 960 0
DWIDTH 16 0
BBX 16 16 0 -2
BITMAP
0000
0000
03c0
0420
0810
0810
1008
1008
1008
1008
1008
1008
1008
1008
0000
0000
ENDCHAR
STARTCHAR 224a
ENCODING 8778
SWIDTH 960 0
DWIDTH 16 0
BBX 16 16 0 -2
BITMAP
0000
0000
0100
0100
0280
0280
0440
0440
0820
0820
1010
1010
2008
2008
0000
0000
ENDCHAR
STARTCHAR 224b
ENCODING 8779
SWIDTH 960 0
DWIDTH 16 0
BBX 16 16 0 -2
BITMAP
0000
0000
2008
2008
1010
1010
0820
0820
0440
0440
0280
0280
0100
0100
0000
0000
ENDCHAR
STARTCHAR 224c
ENCODING 8780
SWIDTH 960 0
DWIDTH 16 0
BBX 16 16 0 -2
BITMAP
0000
0000
0000
0000
0000
0000
3ffc
0004
0004
0004
0004
0000
0000
0000
0000
0000
ENDCHAR
STARTCHAR 224d
ENCODING 8781
SWIDTH 960 0
DWIDTH 16 0
BBX 16 16 0 -2
BITMAP
0000
0000
0000
0010
0008
fffc
0002
0001
0002
fffc
0008
0010
0000
0000
0000
0000
ENDCHAR
STARTCHAR 224e
ENCODING 8782
SWIDTH 960 0
DWIDTH 16 0
BBX 16 16 0 -2
BITMAP
0000
0000
0000
0810
1008
3ffc
4002
8001
4002
3ffc
1008
0810
0000
0000
0000
0000
ENDCHAR
STARTCHAR 224f
ENCODING 8783
SWIDTH 960 0
DWIDTH 16 0
BBX 16 16 0 -2
BITMAP
0000
4004
4004
2008
2008
1ff0
1010
0820
0820
0440
0440
0280
0280
0100
0100
0000
ENDCHAR
STARTCHAR 2250
ENCODING 8784
SWIDTH 960 0
DWIDTH 16 0
BBX 16 16 0 -2
BITMAP
0000
0000
1ff0
0010
0010
0010
0010
1ff0
0010
0010
0010
0010
1ff0
0000
0000
0000
ENDCHAR
STARTCHAR 225c
ENCODING 8796
SWIDTH 960 0
DWIDTH 16 0
BBX 16 16 0 -2
BITMAP
0000
0000
0008
0010
0020
0040
0080
0100
0200
0400
0800
1000
3ffc
0000
0000
0000
ENDCHAR
STARTCHAR 225d
ENCODING 8797
SWIDTH 960 0
DWIDTH 16 0
BBX 16 16 0 -2
BITMAP
0000
0000
0100
0100
0100
0100
0100
0100
0100
0100
0100
0100
3ffc
0000
0000
0000
ENDCHAR
STARTCHAR 225e
ENCODING 8798
SWIDTH 960 0
DWIDTH 16 0
BBX 16 16 0 -2
BITMAP
07e0
381c
4002
0000
0000
0000
0000
0000
0000
0000
0000
0000
0000
0000
0000
0000
ENDCHAR
STARTCHAR 225f
ENCODING 8799
SWIDTH 960 0
DWIDTH 16 0
BBX 16 16 0 -2
BITMAP
0000
00c0
0320
0410
0010
0010
03b0
0460
0c60
0860
1840
18c0
0980
0600
0000
0000
ENDCHAR
STARTCHAR 2260
ENCODING 8800
SWIDTH 960 0
DWIDTH 16 0
BBX 16 16 0 -2
BITMAP
0000
7ffe
2004
3004
1008
1808
0810
0c10
0420
0620
0240
0340
0180
0080
0000
0000
ENDCHAR
STARTCHAR 2261
ENCODING 8801
SWIDTH 960 0
DWIDTH 16 0
BBX 16 16 0 -2
BITMAP
0000
0000
0000
3ffc
0000
0000
0000
3ffc
0000
0000
0000
3ffc
0000
0000
0000
0000
ENDCHAR
STARTCHAR 2262
ENCODING 8802
SWIDTH 960 0
DWIDTH 16 0
BBX 16 16 0 -2
BITMAP
0000
0000
1800
1800
0000
3ffc
0000
0000
0000
3ffc
0000
0018
0018
0000
0000
0000
ENDCHAR
STARTCHAR 2263
ENCODING 8803
SWIDTH 960 0
DWIDTH 16 0
BBX 16 16 0 -2
BITMAP
0044
0088
0110
0220
0440
0880
1100
2200
1100
0880
0440
0220
0110
0088
0044
0000
ENDCHAR
STARTCHAR 2264
ENCODING 8804
SWIDTH 960 0
DWIDTH 16 0
BBX 16 16 0 -2
BITMAP
2200
1100
0880
0440
0220
0110
0088
0044
0088
0110
0220
0440
0880
1100
2200
0000
ENDCHAR
STARTCHAR 2265
ENCODING 8805
SWIDTH 960 0
DWIDTH 16 0
BBX 16 16 0 -2
BITMAP
00ff
0080
0080
0100
0100
0100
0100
0200
0200
2200
2200
3400
5400
5c00
0800
0800
ENDCHAR
STARTCHAR 2266
ENCODING 8806
SWIDTH 960 0
DWIDTH 16 0
BBX 16 16 0 -2
BITMAP
0000
0000
0000
0000
1c38
2044
4082
4082
4102
4102
2204
1c38
0000
0000
0000
0000
ENDCHAR
STARTCHAR 2267
ENCODING 8807
SWIDTH 960 0
DWIDTH 16 0
BBX 16 16 0 -2
BITMAP
0000
0000
0000
0000
1c38
2244
4180
4180
4180
4180
2244
1c38
0000
0000
0000
0000
ENDCHAR
STARTCHAR 2268
ENCODING 8808
SWIDTH 960 0
DWIDTH 16 0
BBX 16 16 0 -2
BITMAP
0000
0000
0000
300c
300c
0000
0000
0000
0000
0000
0000
0180
0180
0000
0000
0000
ENDCHAR
STARTCHAR 2269
ENCODING 8809
SWIDTH 960 0
DWIDTH 16 0
BBX 16 16 0 -2
BITMAP
01c0
0240
0200
0200
0300
0300
0100
0180
0180
0080
00c0
00c0
0040
0040
0240
0380
ENDCHAR
STARTCHAR 226a
ENCODING 8810
SWIDTH 960 0
DWIDTH 16 0
BBX 16 16 0 -2
BITMAP
0e38
1248
1040
1040
1860
1860
0820
0c30
0c30
0410
0618
0618
0208
0208
1248
1c70
ENDCHAR
STARTCHAR 2272
ENCODING 8818
SWIDTH 960 0
DWIDTH 16 0
BBX 16 16 0 -2
BITMAP
0180
0240
0240
0180
0100
0100
0280
0280
0440
0440
07c0
0820
0820
1c70
0000
0000
ENDCHAR
STARTCHAR 2273
ENCODING 8819
SWIDTH 960 0
DWIDTH 16 0
BBX 16 16 0 -2
BITMAP
0000
0008
1810
3420
2420
2440
2480
2d00
1a00
058c
075a
0a52
1252
22d6
418c
0000
ENDCHAR
STARTCHAR 2274
ENCODING 8820
SWIDTH 960 0
DWIDTH 16 0
BBX 16 16 0 -2
BITMAP
0020
0420
0420
043c
07fc
3fe0
3c20
0420
0420
043c
07fc
3fe0
3c20
0420
0420
0400
ENDCHAR
STARTCHAR 2275
ENCODING 8821
SWIDTH 960 0
DWIDTH 16 0
BBX 16 16 0 -2
BITMAP
0400
0400
0400
0400
0400
0400
0400
05e0
0630
0430
0430
0460
04c0
0500
0600
0400
ENDCHAR
STARTCHAR 2276
ENCODING 8822
SWIDTH 960 0
DWIDTH 16 0
BBX 16 16 0 -2
BITMAP
0100
0100
0180
01c0
0160
0130
0118
0108
0108
0110
0120
0100
1f00
3f00
3e00
1c00
ENDCHAR
STARTCHAR 2277
ENCODING 8823
SWIDTH 960 0
DWIDTH 16 0
BBX 16 16 0 -2
BITMAP
0100
0380
0920
1ff0
0920
0100
07c0
0380
0380
0380
0380
0380
0100
0100
0100
0100
ENDCHAR
STARTCHAR 2278
ENCODING 8824
SWIDTH 960 0
DWIDTH 16 0
BBX 16 16 0 -2
BITMAP
0100
0380
0920
1ff0
0920
0380
0380
0100
0100
0380
0380
0920
1ff0
0920
0380
0100
ENDCHAR
STARTCHAR 2279
ENCODING 8825
SWIDTH 960 0
DWIDTH 16 0
BBX 16 16 0 -2
BITMAP
0000
07e0
0f20
1f20
1f20
0f20
0720
0120
0120
0120
0120
0120
0120
0120
0120
0120
ENDCHAR
STARTCHAR 227e
ENCODING 8830
SWIDTH 960 0
DWIDTH 16 0
BBX 16 16 0 -2
BITMAP
03c0
0c30
1008
2004
4002
4002
8001
8001
8001
8001
4002
4002
2004
1008
0c30
03c0
ENDCHAR
STARTCHAR 2330
ENCODING 9008
SWIDTH 960 0
DWIDTH 16 0
BBX 16 16 0 -2
BITMAP
0000
03c0
0420
0810
0810
1008
1008
1008
1008
1008
1008
0810
0810
0420
03c0
0000
ENDCHAR
STARTCHAR 2331
ENCODING 9009
SWIDTH 960 0
DWIDTH 16 0
BBX 16 16 0 -2
BITMAP
0000
0080
0080
0180
0280
0080
0080
0080
0080
0080
0080
0080
0080
0080
01c0
0000
ENDCHAR
STARTCHAR 2332
ENCODING 9010
SWIDTH 960 0
DWIDTH 16 0
BBX 16 16 0 -2
BITMAP
0000
07c0
0820
1010
1010
0010
0020
0040
0080
0100
0200
0400
0800
0800
1ff0
0000
ENDCHAR
STARTCHAR 2333
ENCODING 9011
SWIDTH 960 0
DWIDTH 16 0
BBX 16 16 0 -2
BITMAP
0000
03c0
0c20
1010
0010
0020
0040
03e0
0010
0008
0008
0008
1010
0c60
0380
0000
ENDCHAR
STARTCHAR 2334
ENCODING 9012
SWIDTH 960 0
DWIDTH 16 0
BBX 16 16 0 -2
BITMAP
0000
0040
0040
00c0
0140
0240
0440
0840
1040
2040
3ff8
0040
0040
0040
00e0
0000
ENDCHAR
STARTCHAR 2335
ENCODING 9013
SWIDTH 960 0
DWIDTH 16 0
BBX 16 16 0 -2
BITMAP
0000
0ff8
0800
0800
0800
0800
0be0
0c10
0808
0008
0008
0008
0010
0c60
0380
0000
ENDCHAR
STARTCHAR 2336
ENCODING 9014
SWIDTH 960 0
DWIDTH 16 0
BBX 16 16 0 -2
BITMAP
0000
00e0
0300
0400
0800
0800
13c0
1420
1810
1008
1008
1008
0810
0420
03c0
0000
ENDCHAR
STARTCHAR 2337
ENCODING 9015
SWIDTH 960 0
DWIDTH 16 0
BBX 16 16 0 -2
BITMAP
0000
1ff8
1008
1010
1010
0020
0020
0040
0040
0080
0080
0080
0100
0100
0100
0000
ENDCHAR
STARTCHAR 2338
ENCODING 9016
SWIDTH 960 0
DWIDTH 16 0
BBX 16 16 0 -2
BITMAP
0000
03c0
0c30
1008
1008
1008
0c30
03c0
0420
0810
1008
1008
1818
0c30
03c0
0000
ENDCHAR
STARTCHAR 2339
ENCODING 9017
SWIDTH 960 0
DWIDTH 16 0
BBX 16 16 0 -2
BITMAP
0000
03c0
0420
0810
1008
1008
1008
0818
0428
03c8
0010
0010
0020
00c0
0700
0000
ENDCHAR
STARTCHAR 2341
ENCODING 9025
SWIDTH 960 0
DWIDTH 16 0
BBX 16 16 0 -2
BITMAP
0000
0100
0100
0280
0280
0440
0440
0820
0fe0
0820
1010
1010
2008
701c
0000
0000
ENDCHAR
STARTCHAR 2342
ENCODING 9026
SWIDTH 960 0
DWIDTH 16 0
BBX 16 16 0 -2
BITMAP
0000
3fe0
0810
0808
0808
0810
0fe0
0810
0808
0804
0804
0808
0830
3fc0
0000
0000
ENDCHAR
STARTCHAR 2343
ENCODING 9027
SWIDTH 960 0
DWIDTH 16 0
BBX 16 16 0 -2
BITMAP
0000
03c8
0c28
1818
1008
2008
2000
2000
2000
2000
1008
1818
0c30
03c0
0000
0000
ENDCHAR
STARTCHAR 2344
ENCODING 9028
SWIDTH 960 0
DWIDTH 16 0
BBX 16 16 0 -2
BITMAP
0000
3f80
0860
0810
0808
0808
0804
0804
0804
0808
0808
0810
0860
3f80
0000
0000
ENDCHAR
STARTCHAR 2345
ENCODING 9029
SWIDTH 960 0
DWIDTH 16 0
BBX 16 16 0 -2
BITMAP
0000
3ff8
0808
0804
0800
0800
0840
0fc0
0840
0800
0800
0804
0808
3ff8
0000
0000
ENDCHAR
STARTCHAR 2346
ENCODING 9030
SWIDTH 960 0
DWIDTH 16 0
BBX 16 16 0 -2
BITMAP
0000
1ff8
0408
0404
0400
0400
0420
07e0
0420
0400
0400
0400
0400
1f00
0000
0000
ENDCHAR
STARTCHAR 2347
ENCODING 9031
SWIDTH 960 0
DWIDTH 16 0
BBX 16 16 0 -2
BITMAP
0000
03c8
0c38
1808
1008
2000
2000
2000
203e
2008
1008
1818
0c68
0388
0000
0000
ENDCHAR
STARTCHAR 2348
ENCODING 9032
SWIDTH 960 0
DWIDTH 16 0
BBX 16 16 0 -2
BITMAP
0000
381c
1008
1008
1008
1008
1008
1ff8
1008
1008
1008
1008
1008
381c
0000
0000
ENDCHAR
STARTCHAR 2349
ENCODING 9033
SWIDTH 960 0
DWIDTH 16 0
BBX 16 16 0 -2
BITMAP
0000
0380
0100
0100
0100
0100
0100
0100
0100
0100
0100
0100
0100
0380
0000
0000
ENDCHAR
STARTCHAR 234a
ENCODING 9034
SWIDTH 960 0
DWIDTH 16 0
BBX 16 16 0 -2
BITMAP
0000
00e0
0040
0040
0040
0040
0040
0040
0040
0040
0040
1040
0880
0700
0000
0000
ENDCHAR
STARTCHAR 234b
ENCODING 9035
SWIDTH 960 0
DWIDTH 16 0
BBX 16 16 0 -2
BITMAP
0000
3838
1020
1040
1080
1100
1200
1600
1900
1080
1040
1020
1010
381c
0000
0000
ENDCHAR
STARTCHAR 234c
ENCODING 9036
SWIDTH 960 0
DWIDTH 16 0
BBX 16 16 0 -2
BITMAP
0000
1c00
0800
0800
0800
0800
0800
0800
0800
0800
0800
0808
0808
1ff8
0000
0000
ENDCHAR
STARTCHAR 234d
ENCODING 9037
SWIDTH 960 0
DWIDTH 16 0
BBX 16 16 0 -2
BITMAP
0000
600c
2008
3018
3018
2828
2828
2448
2448
2448
2288
2288
2108
711c
0000
0000
ENDCHAR
STARTCHAR 234e
ENCODING 9038
SWIDTH 960 0
DWIDTH 16 0
BBX 16 16 0 -2
BITMAP
0000
381c
1808
1408
1408
1208
1108
1108
1088
1048
1048
1028
1018
3808
0000
0000
ENDCHAR
STARTCHAR 234f
ENCODING 9039
SWIDTH 960 0
DWIDTH 16 0
BBX 16 16 0 -2
BITMAP
0000
03c0
0c30
1818
1008
2004
2004
2004
2004
2004
1008
1818
0c30
03c0
0000
0000
ENDCHAR
STARTCHAR 2350
ENCODING 9040
SWIDTH 960 0
DWIDTH 16 0
BBX 16 16 0 -2
BITMAP
0000
3fc0
0830
0808
0808
0808
0830
0fc0
0800
0800
0800
0800
0800
1c00
0000
0000
ENDCHAR
STARTCHAR 2351
ENCODING 9041
SWIDTH 960 0
DWIDTH 16 0
BBX 16 16 0 -2
BITMAP
0000
03c0
0c30
1818
1008
2004
2004
2004
2004
2004
1188
1a50
0c20
03d2
000c
0000
ENDCHAR
STARTCHAR 2352
ENCODING 9042
SWIDTH 960 0
DWIDTH 16 0
BBX 16 16 0 -2
BITMAP
0000
3fc0
0830
0808
0808
0808
0830
0fc0
0820
0820
0810
0810
0808
1c1c
0000
0000
ENDCHAR
STARTCHAR 2353
ENCODING 9043
SWIDTH 960 0
DWIDTH 16 0
BBX 16 16 0 -2
BITMAP
0000
03d0
0430
0810
0800
0800
0400
03c0
0030
0008
1008
1808
1410
03e0
0000
0000
ENDCHAR
STARTCHAR 2354
ENCODING 9044
SWIDTH 960 0
DWIDTH 16 0
BBX 16 16 0 -2
BITMAP
0000
3ff8
2108
4104
0100
0100
0100
0100
0100
0100
0100
0100
0100
0380
0000
0000
ENDCHAR
STARTCHAR 2355
ENCODING 9045
SWIDTH 960 0
DWIDTH 16 0
BBX 16 16 0 -2
BITMAP
0000
381c
1008
1008
1008
1008
1008
1008
1008
1008
1008
0810
0420
03c0
0000
0000
ENDCHAR
STARTCHAR 2356
ENCODING 9046
SWIDTH 960 0
DWIDTH 16 0
BBX 16 16 0 -2
BITMAP
0000
381c
1008
1008
0810
0810
0820
0420
0440
0440
0280
0280
0100
0100
0000
0000
ENDCHAR
STARTCHAR 2357
ENCODING 9047
SWIDTH 960 0
DWIDTH 16 0
BBX 16 16 0 -2
BITMAP
0000
718e
2184
2184
2184
2244
1248
1248
1428
1428
0c28
0c30
0810
0810
0000
0000
ENDCHAR
STARTCHAR 2358
ENCODING 9048
SWIDTH 960 0
DWIDTH 16 0
BBX 16 16 0 -2
BITMAP
0000
3838
1010
0820
0440
0440
0280
0100
0280
0440
0440
0820
1010
3838
0000
0000
ENDCHAR
STARTCHAR 2359
ENCODING 9049
SWIDTH 960 0
DWIDTH 16 0
BBX 16 16 0 -2
BITMAP
0000
3838
1010
0820
0820
0440
0440
0280
0100
0100
0100
0100
0100
0380
0000
0000
ENDCHAR
STARTCHAR 235a
ENCODING 9050
SWIDTH 960 0
DWIDTH 16 0
BBX 16 16 0 -2
BITMAP
0000
0ff8
0810
1020
0040
0040
0080
0100
0100
0200
0400
0408
0808
1ff8
0000
0000
ENDCHAR
STARTCHAR 2361
ENCODING 9057
SWIDTH 960 0
DWIDTH 16 0
BBX 16 16 0 -2
BITMAP
0000
0000
0000
0000
0000
03c0
0420
0020
03a0
0460
0820
0860
08a8
0718
0000
0000
ENDCHAR
STARTCHAR 2362
ENCODING 9058
SWIDTH 960 0
DWIDTH 16 0
BBX 16 16 0 -2
BITMAP
0000
0c00
0400
0400
0400
0400
05c0
0620
0410
0410
0410
0410
0620
05c0
0000
0000
ENDCHAR
STARTCHAR 2363
ENCODING 9059
SWIDTH 960 0
DWIDTH 16 0
BBX 16 16 0 -2
BITMAP
0000
0000
0000
0000
0000
0380
0440
0820
0800
0800
0800
0820
0440
0380
0000
0000
ENDCHAR
STARTCHAR 2364
ENCODING 9060
SWIDTH 960 0
DWIDTH 16 0
BBX 16 16 0 -2
BITMAP
0000
0060
0020
0020
0020
0020
03a0
0460
0820
0820
0820
0820
0460
03b0
0000
0000
ENDCHAR
STARTCHAR 2365
ENCODING 9061
SWIDTH 960 0
DWIDTH 16 0
BBX 16 16 0 -2
BITMAP
0000
0000
0000
0000
0000
0380
0440
0820
0820
0fe0
0800
0800
0420
03c0
0000
0000
ENDCHAR
STARTCHAR 2366
ENCODING 9062
SWIDTH 960 0
DWIDTH 16 0
BBX 16 16 0 -2
BITMAP
0000
00f0
0190
0100
0100
0ff0
0100
0100
0100
0100
0100
0100
0100
0380
0000
0000
ENDCHAR
STARTCHAR 2367
ENCODING 9063
SWIDTH 960 0
DWIDTH 16 0
BBX 16 16 0 -2
BITMAP
0000
0000
0000
0000
0000
03d0
0620
0420
0420
03c0
0400
07e0
0818
0808
0418
03e0
ENDCHAR
STARTCHAR 2368
ENCODING 9064
SWIDTH 960 0
DWIDTH 16 0
BBX 16 16 0 -2
BITMAP
0000
0c00
0400
0400
0400
05c0
0620
0410
0410
0410
0410
0410
0410
0e38
0000
0000
ENDCHAR
STARTCHAR 2369
ENCODING 9065
SWIDTH 960 0
DWIDTH 16 0
BBX 16 16 0 -2
BITMAP
0000
0180
0180
0000
0000
0180
0080
0080
0080
0080
0080
0080
0080
01c0
0000
0000
ENDCHAR
STARTCHAR 236a
ENCODING 9066
SWIDTH 960 0
DWIDTH 16 0
BBX 16 16 0 -2
BITMAP
0000
00c0
00c0
0000
0000
00c0
0040
0040
0040
0040
0040
0040
0040
0040
0880
0700
ENDCHAR
STARTCHAR 236b
ENCODING 9067
SWIDTH 960 0
DWIDTH 16 0
BBX 16 16 0 -2
BITMAP
0000
1800
0800
0800
0800
0870
0840
0980
0e00
0900
0880
0840
0820
1c78
0000
0000
ENDCHAR
STARTCHAR 236c
ENCODING 9068
SWIDTH 960 0
DWIDTH 16 0
BBX 16 16 0 -2
BITMAP
0000
0300
0100
0100
0100
0100
0100
0100
0100
0100
0100
0100
0100
0380
0000
0000
ENDCHAR
STARTCHAR 236d
ENCODING 9069
SWIDTH 960 0
DWIDTH 16 0
BBX 16 16 0 -2
BITMAP
0000
0000
0000
0000
0000
2e60
1390
1110
1110
1110
1110
1110
1110
3bb8
0000
0000
ENDCHAR
STARTCHAR 236e
ENCODING 9070
SWIDTH 960 0
DWIDTH 16 0
BBX 16 16 0 -2
BITMAP
0000
0000
0000
0000
0000
19c0
0a60
0c20
0820
0820
0820
0820
0820
1c70
0000
0000
ENDCHAR
STARTCHAR 236f
ENCODING 9071
SWIDTH 960 0
DWIDTH 16 0
BBX 16 16 0 -2
BITMAP
0000
0000
0000
0000
0000
03c0
0420
0810
0810
0810
0810
0810
0420
03c0
0000
0000
ENDCHAR
STARTCHAR 2370
ENCODING 9072
SWIDTH 960 0
DWIDTH 16 0
BBX 16 16 0 -2
BITMAP
0000
0000
0000
0000
0000
0dc0
0620
0410
0410
0410
0410
0620
05c0
0400
0400
0e00
ENDCHAR
STARTCHAR 2371
ENCODING 9073
SWIDTH 960 0
DWIDTH 16 0
BBX 16 16 0 -2
BITMAP
0000
0000
0000
0000
0000
03b0
0460
0820
0820
0820
0820
0460
03a0
0020
0020
0070
ENDCHAR
STARTCHAR 2372
ENCODING 9074
SWIDTH 960 0
DWIDTH 16 0
BBX 16 16 0 -2
BITMAP
0000
0000
0000
0000
0000
0670
0290
0300
0200
0200
0200
0200
0200
0700
0000
0000
ENDCHAR
STARTCHAR 2373
ENCODING 9075
SWIDTH 960 0
DWIDTH 16 0
BBX 16 16 0 -2
BITMAP
0000
0000
0000
0000
0000
07a0
0860
0820
0600
0180
0040
0820
0c20
0bc0
0000
0000
ENDCHAR
STARTCHAR 2374
ENCODING 9076
SWIDTH 960 0
DWIDTH 16 0
BBX 16 16 0 -2
BITMAP
0000
0000
0200
0200
0200
1fe0
0200
0200
0200
0200
0200
0200
0340
01c0
0000
0000
ENDCHAR
STARTCHAR 2375
ENCODING 9077
SWIDTH 960 0
DWIDTH 16 0
BBX 16 16 0 -2
BITMAP
0000
0000
0000
0000
0000
1860
0820
0820
0820
0820
0820
0820
0460
03b0
0000
0000
ENDCHAR
STARTCHAR 2376
ENCODING 9078
SWIDTH 960 0
DWIDTH 16 0
BBX 16 16 0 -2
BITMAP
0000
0000
0000
0000
0000
1c70
0820
0820
0440
0440
0280
0280
0100
0100
0000
0000
ENDCHAR
STARTCHAR 2377
ENCODING 9079
SWIDTH 960 0
DWIDTH 16 0
BBX 16 16 0 -2
BITMAP
0000
0000
0000
0000
0000
391c
1108
1188
1188
0a50
0a50
0a50
0420
0420
0000
0000
ENDCHAR
STARTCHAR 2378
ENCODING 9080
SWIDTH 960 0
DWIDTH 16 0
BBX 16 16 0 -2
BITMAP
0000
0000
0000
0000
0000
0c30
0420
0240
0180
0180
0240
0420
0810
1c38
0000
0000
ENDCHAR
STARTCHAR 2379
ENCODING 9081
SWIDTH 960 0
DWIDTH 16 0
BBX 16 16 0 -2
BITMAP
0000
0000
0000
0000
0000
1c70
0820
0820
0440
0440
0280
0280
0100
0100
1200
0c00
ENDCHAR
STARTCHAR 237a
ENCODING 9082
SWIDTH 960 0
DWIDTH 16 0
BBX 16 16 0 -2
BITMAP
0000
0000
0000
0000
0000
0ff0
0820
0040
0080
0080
0100
0210
0410
0ff0
0000
0000
ENDCHAR
STARTCHAR 2421
ENCODING 9249
SWIDTH 960 0
DWIDTH 16 0
BBX 16 16 0 -2
BITMAP
0000
0000
0000
0200
02c0
0f00
0240
03e0
0250
0688
0a88
1308
1610
0920
0040
0000
ENDCHAR
STARTCHAR 2422
ENCODING 9250
SWIDTH 960 0
DWIDTH 16 0
BBX 16 16 0 -2
BITMAP
0200
0100
1160
0f80
0200
0240
03f0
0448
0c44
1482
2502
2202
1504
1818
0060
0000
ENDCHAR
STARTCHAR 2423
ENCODING 9251
SWIDTH 960 0
DWIDTH 16 0
BBX 16 16 0 -2
BITMAP
0000
0000
0000
0000
0000
0000
1000
0800
0820
1010
1008
1018
0a08
0c00
0400
0000
ENDCHAR
STARTCHAR 2424
ENCODING 9252
SWIDTH 960 0
DWIDTH 16 0
BBX 16 16 0 -2
BITMAP
0000
0000
0000
2000
1020
1010
1008
2008
2004
2204
240c
1404
0800
0800
0000
0000
ENDCHAR
STARTCHAR 2425
ENCODING 9253
SWIDTH 960 0
DWIDTH 16 0
BBX 16 16 0 -2
BITMAP
0000
0000
0000
0200
0180
0000
0000
09c0
0620
0020
0020
0040
0040
0080
0100
0000
ENDCHAR
STARTCHAR 2426
ENCODING 9254
SWIDTH 960 0
DWIDTH 16 0
BBX 16 16 0 -2
BITMAP
0200
01c0
0000
0000
11c0
0e20
0010
0010
0010
0010
0020
0020
0040
0080
0100
0200
ENDCHAR
STARTCHAR 2427
ENCODING 9255
SWIDTH 960 0
DWIDTH 16 0
BBX 16 16 0 -2
BITMAP
0000
0000
0000
0000
0200
0180
0000
0000
09e0
0640
0080
0100
0680
0880
1080
0078
ENDCHAR
STARTCHAR 2428
ENCODING 9256
SWIDTH 960 0
DWIDTH 16 0
BBX 16 16 0 -2
BITMAP
0200
0100
00c0
0000
08f0
0720
0040
0080
0100
0380
0440
0840
1040
2020
001c
0000
ENDCHAR
STARTCHAR 2429
ENCODING 9257
SWIDTH 960 0
DWIDTH 16 0
BBX 16 16 0 -2
BITMAP
0000
0000
0000
0000
0200
0200
0ad0
070c
0200
02e0
0310
0608
1a48
0630
0200
0000
ENDCHAR
STARTCHAR 242a
ENCODING 9258
SWIDTH 960 0
DWIDTH 16 0
BBX 16 16 0 -2
BITMAP
1000
0800
0820
0918
0e04
780e
0800
09e0
0e10
0808
1808
c808
6890
1860
0800
0000
ENDCHAR
STARTCHAR 242b
ENCODING 9259
SWIDTH 960 0
DWIDTH 16 0
BBX 16 16 0 -2
BITMAP
0000
1000
0800
0820
0810
4f08
3888
0884
088c
1084
1080
2080
2900
4500
0200
0000
ENDCHAR
STARTCHAR 242c
ENCODING 9260
SWIDTH 960 0
DWIDTH 16 0
BBX 16 16 0 -2
BITMAP
0000
1004
080a
082a
0810
4f08
3888
0884
088c
1084
1080
2080
2900
4500
0200
0000
ENDCHAR
STARTCHAR 242d
ENCODING 9261
SWIDTH 960 0
DWIDTH 16 0
BBX 16 16 0 -2
BITMAP
0200
0110
0160
0f80
0088
00f0
1f40
0020
0020
07d0
0830
1000
1000
0c00
03c0
0000
ENDCHAR
STARTCHAR 242e
ENCODING 9262
SWIDTH 960 0
DWIDTH 16 0
BBX 16 16 0 -2
BITMAP
0204
0112
016a
1f80
0088
00f0
3f40
0020
0020
07d0
0830
1000
1000
0c00
03c0
0000
ENDCHAR
STARTCHAR 242f
ENCODING 9263
SWIDTH 960 0
DWIDTH 16 0
BBX 16 16 0 -2
BITMAP
0040
0040
0080
0080
0100
0200
0400
0800
0400
0200
0100
0080
0080
0040
0040
0000
ENDCHAR
STARTCHAR 2430
ENCODING 9264
SWIDTH 960 0
DWIDTH 16 0
BBX 16 16 0 -2
BITMAP
0040
0040
0088
00a4
0114
0210
0400
0800
0400
0200
0100
0080
0080
0040
0040
0000
ENDCHAR
STARTCHAR 2431
ENCODING 9265
SWIDTH 960 0
DWIDTH 16 0
BBX 16 16 0 -2
BITMAP
0020
2020
1010
1010
101e
23f0
2010
2010
2010
2010
2810
1010
1020
0020
0040
0080
ENDCHAR
STARTCHAR 2432
ENCODING 9266
SWIDTH 960 0
DWIDTH 16 0
BBX 16 16 0 -2
BITMAP
0044
4052
202a
2028
203c
47e0
4020
4020
4020
4020
5020
2020
2040
0040
0080
0100
ENDCHAR
STARTCHAR 2433
ENCODING 9267
SWIDTH 960 0
DWIDTH 16 0
BBX 16 16 0 -2
BITMAP
0000
0000
0800
07f0
0040
0080
0000
0000
0000
2000
2000
2000
1008
0ff0
0000
0000
ENDCHAR
STARTCHAR 2434
ENCODING 9268
SWIDTH 960 0
DWIDTH 16 0
BBX 16 16 0 -2
BITMAP
0008
0024
0814
07f0
0040
0080
0000
0000
0000
2000
2000
2000
1008
0ff0
0000
0000
ENDCHAR
STARTCHAR 2435
ENCODING 9269
SWIDTH 960 0
DWIDTH 16 0
BBX 16 16 0 -2
BITMAP
0200
0100
0098
10e0
0f40
0040
0020
0020
07d0
0830
1000
1000
0800
0600
01e0
0000
ENDCHAR
STARTCHAR 2436
ENCODING 9270
SWIDTH 960 0
DWIDTH 16 0
BBX 16 16 0 -2
BITMAP
0200
0104
0092
10ea
0f48
0040
0020
0020
07d0
0830
1000
1000
0800
0600
01e0
0000
ENDCHAR
STARTCHAR 2437
ENCODING 9271
SWIDTH 960 0
DWIDTH 16 0
BBX 16 16 0 -2
BITMAP
0000
1000
0800
0800
0800
0800
0800
0800
0800
0800
0800
0808
0810
0460
0380
0000
ENDCHAR
STARTCHAR 2438
ENCODING 9272
SWIDTH 960 0
DWIDTH 16 0
BBX 16 16 0 -2
BITMAP
0000
1000
0810
0848
0828
0820
0800
0800
0800
0800
0800
0808
0810
0460
0380
0000
ENDCHAR
STARTCHAR 2439
ENCODING 9273
SWIDTH 960 0
DWIDTH 16 0
BBX 16 16 0 -2
BITMAP
0100
0080
40fc
3f80
0080
0080
0780
0c80
0840
04c0
0340
0040
0080
0080
0100
0200
ENDCHAR
STARTCHAR 243a
ENCODING 9274
SWIDTH 960 0
DWIDTH 16 0
BBX 16 16 0 -2
BITMAP
0204
0102
81fa
7f08
0100
0100
0f00
1900
1080
0980
0680
0080
0100
0100
0200
0400
ENDCHAR
STARTCHAR 243b
ENCODING 9275
SWIDTH 960 0
DWIDTH 16 0
BBX 16 16 0 -2
BITMAP
0000
0040
0820
0420
043e
45e0
3e20
0420
0420
0460
0420
0400
0200
01f8
0000
0000
ENDCHAR
STARTCHAR 243c
ENCODING 9276
SWIDTH 960 0
DWIDTH 16 0
BBX 16 16 0 -2
BITMAP
0004
0092
104a
0848
087c
8bc0
7c40
0840
0840
08c0
0840
0800
0400
03f0
0000
0000
ENDCHAR
STARTCHAR 243d
ENCODING 9277
SWIDTH 960 0
DWIDTH 16 0
BBX 16 16 0 -2
BITMAP
0000
04e0
0320
0040
0080
0100
023c
07c0
3880
0100
0200
0200
0200
0100
00e0
0000
ENDCHAR
STARTCHAR 243e
ENCODING 9278
SWIDTH 960 0
DWIDTH 16 0
BBX 16 16 0 -2
BITMAP
0004
04f2
032a
0048
0080
0100
023c
07c0
3880
0100
0200
0200
0200
0100
00e0
0000
ENDCHAR
STARTCHAR 243f
ENCODING 9279
SWIDTH 960 0
DWIDTH 16 0
BBX 16 16 0 -2
BITMAP
0800
0400
0440
0580
0600
3c00
0838
08cc
0810
1000
1000
1100
2100
2080
207c
0000
ENDCHAR
STARTCHAR 2440
ENCODING 9280
SWIDTH 960 0
DWIDTH 16 0
BBX 16 16 0 -2
BITMAP
0804
0412
044a
0588
0600
3c00
0838
08cc
0810
1000
1000
1100
2100
2080
207c
0000
ENDCHAR
STARTCHAR 2441
ENCODING 9281
SWIDTH 960 0
DWIDTH 16 0
BBX 16 16 0 -2
BITMAP
0400
0200
0230
23c0
1e00
0200
0400
04f0
0708
0c04
0804
0004
0008
0030
03c0
0000
ENDCHAR
STARTCHAR 2442
ENCODING 9282
SWIDTH 960 0
DWIDTH 16 0
BBX 16 16 0 -2
BITMAP
0808
0424
0454
4790
3c00
0400
0800
09e0
0e10
1808
1008
0008
0010
0060
0780
0000
ENDCHAR
STARTCHAR 2443
ENCODING 9283
SWIDTH 960 0
DWIDTH 16 0
BBX 16 16 0 -2
BITMAP
0000
0000
0000
0000
0000
0000
0000
0000
03e0
1c10
0010
0010
0020
00c0
0300
0000
ENDCHAR
STARTCHAR 2444
ENCODING 9284
SWIDTH 960 0
DWIDTH 16 0
BBX 16 16 0 -2
BITMAP
0000
0000
0000
0070
0388
4c04
3002
0002
0002
0004
0008
0030
01c0
0000
0000
0000
ENDCHAR
STARTCHAR 2445
ENCODING 9285
SWIDTH 960 0
DWIDTH 16 0
BBX 16 16 0 -2
BITMAP
0004
0012
000a
00e8
0710
9808
6004
0004
0004
0008
0010
0060
0380
0000
0000
0000
ENDCHAR
STARTCHAR 2446
ENCODING 9286
SWIDTH 960 0
DWIDTH 16 0
BBX 16 16 0 -2
BITMAP
0000
001e
43f0
3c20
0040
0080
0080
0100
0100
0100
0100
0080
0040
0038
0000
0000
ENDCHAR
STARTCHAR 2447
ENCODING 9287
SWIDTH 960 0
DWIDTH 16 0
BBX 16 16 0 -2
BITMAP
0000
001c
87e0
7844
0092
010a
0108
0200
0200
0200
0200
0100
0080
0070
0000
0000
ENDCHAR
STARTCHAR 2448
ENCODING 9288
SWIDTH 960 0
DWIDTH 16 0
BBX 16 16 0 -2
BITMAP
0000
0800
0400
0400
0410
0218
0260
0280
0300
0400
0800
1000
1000
0800
07f8
0000
ENDCHAR
STARTCHAR 2449
ENCODING 9289
SWIDTH 960 0
DWIDTH 16 0
BBX 16 16 0 -2
BITMAP
0000
0804
0412
040a
0408
0218
0260
0280
0300
0400
0800
1000
1000
0800
07f8
0000
ENDCHAR
STARTCHAR 244a
ENCODING 9290
SWIDTH 960 0
DWIDTH 16 0
BBX 16 16 0 -2
BITMAP
0800
0480
0700
7c20
0818
0824
1040
1040
2040
2040
4040
07c0
0870
0848
0780
0000
ENDCHAR
STARTCHAR 244b
ENCODING 9291
SWIDTH 960 0
DWIDTH 16 0
BBX 16 16 0 -2
BITMAP
0000
2000
1000
1078
118c
1010
2000
2000
2000
2000
2100
2100
2880
107c
1000
0000
ENDCHAR
STARTCHAR 244c
ENCODING 9292
SWIDTH 960 0
DWIDTH 16 0
BBX 16 16 0 -2
BITMAP
0000
0100
0080
1080
13f0
1488
1884
1102
2902
2a02
4402
4c34
524c
224a
0030
0000
ENDCHAR
STARTCHAR 244d
ENCODING 9293
SWIDTH 960 0
DWIDTH 16 0
BBX 16 16 0 -2
BITMAP
1000
0800
0800
0a70
4c88
3d04
0a04
0c04
0804
1804
183c
2844
4846
1838
0800
0000
ENDCHAR
STARTCHAR 244e
ENCODING 9294
SWIDTH 960 0
DWIDTH 16 0
BBX 16 16 0 -2
BITMAP
0000
0000
03c0
0d20
1110
2108
2108
4204
4204
4408
2808
3010
0020
00c0
0000
0000
ENDCHAR
STARTCHAR 244f
ENCODING 9295
SWIDTH 960 0
DWIDTH 16 0
BBX 16 16 0 -2
BITMAP
0040
4020
2020
2020
243c
23e0
2020
4020
4020
4020
4020
53e0
6438
2424
23c0
0000
ENDCHAR
STARTCHAR 2450
ENCODING 9296
SWIDTH 960 0
DWIDTH 16 0
BBX 16 16 0 -2
BITMAP
0044
4032
202a
2028
243c
23e0
2020
4020
4020
4020
4020
53e0
6438
2424
23c0
0000
ENDCHAR
STARTCHAR 2451
ENCODING 9297
SWIDTH 960 0
DWIDTH 16 0
BBX 16 16 0 -2
BITMAP
0040
402c
2032
2032
243c
23e0
2020
4020
4020
4020
4020
53e0
6438
2424
23c0
0000
ENDCHAR
STARTCHAR 2452
ENCODING 9298
SWIDTH 960 0
DWIDTH 16 0
BBX 16 16 0 -2
BITMAP
0000
0020
0220
0e30
7410
0810
0818
1014
1012
2010
2010
2020
1020
08c0
0700
0000
ENDCHAR
STARTCHAR 2453
ENCODING 9299
SWIDTH 960 0
DWIDTH 16 0
BBX 16 16 0 -2
BITMAP
0004
0052
044a
1c68
e820
1020
1030
2028
2024
4020
4020
4040
2040
1180
0e00
0000
ENDCHAR
STARTCHAR 2454
ENCODING 9300
SWIDTH 960 0
DWIDTH 16 0
BBX 16 16 0 -2
BITMAP
0000
004c
0452
1c72
e82c
1020
1030
2028
2024
4020
4020
4040
2040
1180
0e00
0000
ENDCHAR
STARTCHAR 2455
ENCODING 9301
SWIDTH 960 0
DWIDTH 16 0
BBX 16 16 0 -2
BITMAP
0000
0400
0380
0080
0100
0200
0200
0100
00a0
0898
9044
604e
4840
0480
0300
0000
ENDCHAR
STARTCHAR 2456
ENCODING 9302
SWIDTH 960 0
DWIDTH 16 0
BBX 16 16 0 -2
BITMAP
0008
0424
0394
0090
0100
0200
0200
0100
00a0
0898
9044
604e
4840
0480
0300
0000
ENDCHAR
STARTCHAR 2457
ENCODING 9303
SWIDTH 960 0
DWIDTH 16 0
BBX 16 16 0 -2
BITMAP
0000
0418
03a4
00a4
0118
0200
0200
0100
00a0
0898
9044
604e
4840
0480
0300
0000
ENDCHAR
STARTCHAR 2458
ENCODING 9304
SWIDTH 960 0
DWIDTH 16 0
BBX 16 16 0 -2
BITMAP
0000
0000
0000
0000
0600
0900
0880
1040
a020
4018
0006
0000
0000
0000
0000
0000
ENDCHAR
STARTCHAR 2459
ENCODING 9305
SWIDTH 960 0
DWIDTH 16 0
BBX 16 16 0 -2
BITMAP
0000
0010
0048
0028
0620
0900
0880
1040
a020
4018
0006
0000
0000
0000
0000
0000
ENDCHAR
STARTCHAR 245a
ENCODING 9306
SWIDTH 960 0
DWIDTH 16 0
BBX 16 16 0 -2
BITMAP
0000
0000
0030
0048
0648
0930
0880
1040
a020
4018
0006
0000
0000
0000
0000
0000
ENDCHAR
STARTCHAR 245b
ENCODING 9307
SWIDTH 960 0
DWIDTH 16 0
BBX 16 16 0 -2
BITMAP
0000
210c
10f0
1010
1010
101e
13f0
2010
2010
2010
2010
29f0
321c
1212
11e0
0000
ENDCHAR
STARTCHAR 245c
ENCODING 9308
SWIDTH 960 0
DWIDTH 16 0
BBX 16 16 0 -2
BITMAP
0004
4212
21ea
2028
2020
203c
27e0
4020
4020
4020
4020
53e0
6438
2424
23c0
0000
ENDCHAR
STARTCHAR 245d
ENCODING 9309
SWIDTH 960 0
DWIDTH 16 0
BBX 16 16 0 -2
BITMAP
000c
4212
21f2
202c
2020
203c
27e0
4020
4020
4020
4020
53e0
6438
2424
23c0
0000
ENDCHAR
STARTCHAR 245e
ENCODING 9310
SWIDTH 960 0
DWIDTH 16 0
BBX 16 16 0 -2
BITMAP
0080
0040
1078
0fc0
0040
0040
1070
0fc0
0040
0040
07c0
0870
104c
1840
0780
0000
ENDCHAR
STARTCHAR 245f
ENCODING 9311
SWIDTH 960 0
DWIDTH 16 0
BBX 16 16 0 -2
BITMAP
0000
0000
0880
0780
0100
0110
0108
07c8
1a38
220c
4412
4410
4820
3040
0080
0000
ENDCHAR
STARTCHAR 2460
ENCODING 9312
SWIDTH 960 0
DWIDTH 16 0
BBX 16 16 0 -2
BITMAP
0800
0400
2780
1c18
0404
0406
1c00
2400
2410
2408
2808
1808
0808
0810
07e0
0000
ENDCHAR
STARTCHAR 2461
ENCODING 9313
SWIDTH 960 0
DWIDTH 16 0
BBX 16 16 0 -2
BITMAP
0000
0080
0040
1040
11e0
1698
1884
1884
2902
2502
4202
4604
4904
3008
0030
0000
ENDCHAR
STARTCHAR 2462
ENCODING 9314
SWIDTH 960 0
DWIDTH 16 0
BBX 16 16 0 -2
BITMAP
0200
0100
0900
0700
01c0
0a00
3200
1a10
0788
0408
0408
0408
0410
0220
01c0
0000
ENDCHAR
STARTCHAR 2463
ENCODING 9315
SWIDTH 960 0
DWIDTH 16 0
BBX 16 16 0 -2
BITMAP
0000
0000
0000
0000
0080
0460
0400
04f0
0308
2e08
1210
0260
0100
0100
0100
0000
ENDCHAR
STARTCHAR 2464
ENCODING 9316
SWIDTH 960 0
DWIDTH 16 0
BBX 16 16 0 -2
BITMAP
0000
0080
0060
0c30
0800
043c
05c2
4e02
3202
0204
0138
0100
0100
0080
0080
0080
ENDCHAR
STARTCHAR 2465
ENCODING 9317
SWIDTH 960 0
DWIDTH 16 0
BBX 16 16 0 -2
BITMAP
0000
0000
0000
0000
0100
0080
21e0
1290
1488
1888
1888
1290
11e0
0080
0100
0200
ENDCHAR
STARTCHAR 2466
ENCODING 9318
SWIDTH 960 0
DWIDTH 16 0
BBX 16 16 0 -2
BITMAP
0000
0180
0040
40f0
2148
2244
2442
2842
3042
3244
2148
20f0
0040
0080
0100
0000
ENDCHAR
STARTCHAR 2467
ENCODING 9319
SWIDTH 960 0
DWIDTH 16 0
BBX 16 16 0 -2
BITMAP
0000
0000
0000
0000
0200
0100
0120
01c0
0100
0100
0100
0f00
11c0
1130
0e00
0000
ENDCHAR
STARTCHAR 2468
ENCODING 9320
SWIDTH 960 0
DWIDTH 16 0
BBX 16 16 0 -2
BITMAP
0100
0080
0080
008c
00f0
0080
0080
0080
0080
0080
1f80
20e0
2098
2104
1e00
0000
ENDCHAR
STARTCHAR 2469
ENCODING 9321
SWIDTH 960 0
DWIDTH 16 0
BBX 16 16 0 -2
BITMAP
0200
0100
01c0
0200
0800
1000
1000
11e0
1610
1808
1008
1010
0020
00c0
0700
0000
ENDCHAR
STARTCHAR 246a
ENCODING 9322
SWIDTH 960 0
DWIDTH 16 0
BBX 16 16 0 -2
BITMAP
1000
09c0
0a20
0a10
0c10
0c10
0810
0810
0810
0810
0020
0020
0040
0080
0100
0200
ENDCHAR
STARTCHAR 246b
ENCODING 9323
SWIDTH 960 0
DWIDTH 16 0
BBX 16 16 0 -2
BITMAP
0000
04e0
0320
0040
0080
0100
03e0
0610
0808
1004
0004
0304
0488
0470
03c0
0000
ENDCHAR
STARTCHAR 246c
ENCODING 9324
SWIDTH 960 0
DWIDTH 16 0
BBX 16 16 0 -2
BITMAP
0800
0400
0400
0460
0490
4d10
3610
0410
0410
0c10
0c10
1412
2412
4c0c
0400
0000
ENDCHAR
STARTCHAR 246d
ENCODING 9325
SWIDTH 960 0
DWIDTH 16 0
BBX 16 16 0 -2
BITMAP
0000
09c0
0640
0080
0100
0200
07e0
0c10
1008
2008
0008
0010
0020
00c0
0700
0000
ENDCHAR
STARTCHAR 246e
ENCODING 9326
SWIDTH 960 0
DWIDTH 16 0
BBX 16 16 0 -2
BITMAP
0000
0000
0000
0000
0800
0400
0400
06e0
1d10
0608
0408
0c08
1410
0460
0400
0400
ENDCHAR
STARTCHAR 246f
ENCODING 9327
SWIDTH 960 0
DWIDTH 16 0
BBX 16 16 0 -2
BITMAP
1000
0800
0800
0a00
4c00
38f0
0b08
0c04
0802
1802
1804
2804
4818
1860
0800
0000
ENDCHAR
STARTCHAR 2470
ENCODING 9328
SWIDTH 960 0
DWIDTH 16 0
BBX 16 16 0 -2
BITMAP
0000
0840
07c0
0080
0080
01e0
0718
0904
1102
2202
4202
4472
488c
308a
0070
0000
ENDCHAR
STARTCHAR 2471
ENCODING 9329
SWIDTH 960 0
DWIDTH 16 0
BBX 16 16 0 -2
BITMAP
0000
09e0
0680
0100
03c0
0420
0810
1210
0520
04c0
0380
0400
0e70
3188
401c
0000
ENDCHAR
STARTCHAR 2472
ENCODING 9330
SWIDTH 960 0
DWIDTH 16 0
BBX 16 16 0 -2
BITMAP
0400
0200
23c0
1e00
0410
040c
0f30
10c0
2180
4280
0480
0880
0800
0400
03f0
0000
ENDCHAR
STARTCHAR 2473
ENCODING 9331
SWIDTH 960 0
DWIDTH 16 0
BBX 16 16 0 -2
BITMAP
0200
0100
0100
0200
0200
0400
0400
0b00
0c80
1880
1080
2082
2084
4048
4030
0000
ENDCHAR
STARTCHAR 2521
ENCODING 9505
SWIDTH 960 0
DWIDTH 16 0
BBX 16 16 0 -2
BITMAP
0000
0000
0000
0000
0000
0000
10f0
0f10
0020
01c0
0100
0100
0100
0200
0400
0000
ENDCHAR
STARTCHAR 2522
ENCODING 9506
SWIDTH 960 0
DWIDTH 16 0
BBX 16 16 0 -2
BITMAP
0000
0000
207c
1f84
0008
0210
0120
01c0
0100
0100
0100
0200
0200
0400
0800
0000
ENDCHAR
STARTCHAR 2523
ENCODING 9507
SWIDTH 960 0
DWIDTH 16 0
BBX 16 16 0 -2
BITMAP
0000
0000
0000
0000
0010
0010
0020
0040
0080
0340
0c40
0040
0040
0040
0040
0000
ENDCHAR
STARTCHAR 2524
ENCODING 9508
SWIDTH 960 0
DWIDTH 16 0
BBX 16 16 0 -2
BITMAP
0000
0010
0010
0020
0040
0080
0180
0240
0c40
3040
0040
0040
0040
0040
0040
0000
ENDCHAR
STARTCHAR 2525
ENCODING 9509
SWIDTH 960 0
DWIDTH 16 0
BBX 16 16 0 -2
BITMAP
0000
0000
0000
0000
0100
0100
0100
11f0
0f10
0810
0820
0820
0040
0080
0100
0000
ENDCHAR
STARTCHAR 2526
ENCODING 9510
SWIDTH 960 0
DWIDTH 16 0
BBX 16 16 0 -2
BITMAP
0000
0200
0100
0100
21f8
3e08
1008
1010
1010
1020
0020
0040
0080
0100
0200
0000
ENDCHAR
STARTCHAR 2527
ENCODING 9511
SWIDTH 960 0
DWIDTH 16 0
BBX 16 16 0 -2
BITMAP
0000
0000
0000
0000
0000
0000
0000
0000
01e0
0f00
0100
0100
0100
03e0
1c10
0000
ENDCHAR
STARTCHAR 2528
ENCODING 9512
SWIDTH 960 0
DWIDTH 16 0
BBX 16 16 0 -2
BITMAP
0000
0000
0000
0038
1fc0
0100
0080
0080
0080
0080
0080
03fc
7c02
0000
0000
0000
ENDCHAR
STARTCHAR 2529
ENCODING 9513
SWIDTH 960 0
DWIDTH 16 0
BBX 16 16 0 -2
BITMAP
0000
0000
0000
0000
0000
0080
0080
10f0
0f80
0180
0280
0480
0880
1080
0180
0080
ENDCHAR
STARTCHAR 252a
ENCODING 9514
SWIDTH 960 0
DWIDTH 16 0
BBX 16 16 0 -2
BITMAP
0000
0040
0040
207c
1fc0
0040
00c0
00c0
0140
0240
0440
0840
3040
00c0
0040
0000
ENDCHAR
STARTCHAR 252b
ENCODING 9515
SWIDTH 960 0
DWIDTH 16 0
BBX 16 16 0 -2
BITMAP
0000
0100
0080
0080
10fc
0f84
0084
0104
0104
0208
0208
0408
0850
1030
2020
0000
ENDCHAR
STARTCHAR 252c
ENCODING 9516
SWIDTH 960 0
DWIDTH 16 0
BBX 16 16 0 -2
BITMAP
0004
0212
010a
0108
21f8
1f08
0108
0208
0208
0410
0410
0810
10a0
2060
4040
0000
ENDCHAR
STARTCHAR 252d
ENCODING 9517
SWIDTH 960 0
DWIDTH 16 0
BBX 16 16 0 -2
BITMAP
0000
0400
0200
0230
03c0
3d00
0100
011c
01e0
0680
7880
0080
0040
0040
0040
0000
ENDCHAR
STARTCHAR 252e
ENCODING 9518
SWIDTH 960 0
DWIDTH 16 0
BBX 16 16 0 -2
BITMAP
0000
0408
0224
0234
03d0
3d00
0100
011c
01e0
0680
7880
0080
0040
0040
0040
0000
ENDCHAR
STARTCHAR 252f
ENCODING 9519
SWIDTH 960 0
DWIDTH 16 0
BBX 16 16 0 -2
BITMAP
0000
0400
0230
03d0
0210
0410
0420
0820
1040
2040
0080
0100
0200
0400
0800
0000
ENDCHAR
STARTCHAR 2530
ENCODING 9520
SWIDTH 960 0
DWIDTH 16 0
BBX 16 16 0 -2
BITMAP
0004
0812
046a
07a8
0420
0820
0840
1040
2080
4080
0100
0200
0400
0800
1000
0000
ENDCHAR
STARTCHAR 2531
ENCODING 9521
SWIDTH 960 0
DWIDTH 16 0
BBX 16 16 0 -2
BITMAP
0000
0800
0400
041e
07e0
0440
0820
0820
1020
2040
0040
0080
0100
0200
0400
0000
ENDCHAR
STARTCHAR 2532
ENCODING 9522
SWIDTH 960 0
DWIDTH 16 0
BBX 16 16 0 -2
BITMAP
0004
1012
080a
0838
0fc0
0880
1040
1040
2040
4080
0080
0100
0200
0400
0800
0000
ENDCHAR
STARTCHAR 2533
ENCODING 9523
SWIDTH 960 0
DWIDTH 16 0
BBX 16 16 0 -2
BITMAP
0000
0000
0000
20f8
1f08
0008
0008
0008
0010
0010
0010
03f0
1c10
0000
0000
0000
ENDCHAR
STARTCHAR 2534
ENCODING 9524
SWIDTH 960 0
DWIDTH 16 0
BBX 16 16 0 -2
BITMAP
0004
0012
000a
41f8
3e10
0010
0010
0010
0020
0020
0020
07e0
3820
0000
0000
0000
ENDCHAR
STARTCHAR 2535
ENCODING 9525
SWIDTH 960 0
DWIDTH 16 0
BBX 16 16 0 -2
BITMAP
0040
0820
0420
0420
44fc
3f20
0420
0420
0420
0420
0040
0040
0080
0100
0200
0000
ENDCHAR
STARTCHAR 2536
ENCODING 9526
SWIDTH 960 0
DWIDTH 16 0
BBX 16 16 0 -2
BITMAP
0044
0832
042a
0428
44fc
3f20
0420
0420
0420
0420
0040
0040
0080
0100
0200
0000
ENDCHAR
STARTCHAR 2537
ENCODING 9527
SWIDTH 960 0
DWIDTH 16 0
BBX 16 16 0 -2
BITMAP
0000
0000
1800
0400
0000
0000
3004
0808
0010
0020
0040
0080
0100
2600
1800
0000
ENDCHAR
STARTCHAR 2538
ENCODING 9528
SWIDTH 960 0
DWIDTH 16 0
BBX 16 16 0 -2
BITMAP
0004
0012
180a
0408
0000
0000
3004
0808
0010
0020
0040
0080
0100
2600
1800
0000
ENDCHAR
STARTCHAR 2539
ENCODING 9529
SWIDTH 960 0
DWIDTH 16 0
BBX 16 16 0 -2
BITMAP
0000
0000
0000
10e0
0f20
0020
0040
0040
0080
00c0
0120
0210
0408
1804
6004
0000
ENDCHAR
STARTCHAR 253a
ENCODING 9530
SWIDTH 960 0
DWIDTH 16 0
BBX 16 16 0 -2
BITMAP
0000
0004
0012
10ea
0f28
0020
0040
0040
0080
00c0
0120
0210
0408
1804
6004
0000
ENDCHAR
STARTCHAR 253b
ENCODING 9531
SWIDTH 960 0
DWIDTH 16 0
BBX 16 16 0 -2
BITMAP
0000
0800
0400
0400
043c
05c4
4608
3c10
0420
0440
0400
0400
0200
01f8
0000
0000
ENDCHAR
STARTCHAR 253c
ENCODING 9532
SWIDTH 960 0
DWIDTH 16 0
BBX 16 16 0 -2
BITMAP
0004
1012
080a
0808
0878
0b88
8c10
7820
0840
0880
0800
0800
0400
03f0
0000
0000
ENDCHAR
STARTCHAR 253d
ENCODING 9533
SWIDTH 960 0
DWIDTH 16 0
BBX 16 16 0 -2
BITMAP
0000
0010
2008
1008
0808
0810
0810
0020
0020
0040
0080
0100
0200
0400
0800
0000
ENDCHAR
STARTCHAR 253e
ENCODING 9534
SWIDTH 960 0
DWIDTH 16 0
BBX 16 16 0 -2
BITMAP
0004
0052
402a
2028
1020
1040
1040
0040
0080
0080
0100
0200
0400
0800
1000
0000
ENDCHAR
STARTCHAR 253f
ENCODING 9535
SWIDTH 960 0
DWIDTH 16 0
BBX 16 16 0 -2
BITMAP
0000
0400
0238
03c8
0208
0410
0410
09a0
1060
2040
0080
0100
0200
0c00
3000
0000
ENDCHAR
STARTCHAR 2540
ENCODING 9536
SWIDTH 960 0
DWIDTH 16 0
BBX 16 16 0 -2
BITMAP
0004
0412
020a
03f8
0210
0410
0820
1320
20c0
4080
0100
0200
0400
1800
6000
0000
ENDCHAR
STARTCHAR 2541
ENCODING 9537
SWIDTH 960 0
DWIDTH 16 0
BBX 16 16 0 -2
BITMAP
0000
0020
00c0
1f00
0100
0080
00fc
4780
3880
0080
0080
0100
0100
0200
0400
0000
ENDCHAR
STARTCHAR 2542
ENCODING 9538
SWIDTH 960 0
DWIDTH 16 0
BBX 16 16 0 -2
BITMAP
0004
0032
00ca
1f08
0100
0080
00fc
4780
3880
0080
0080
0100
0100
0200
0400
0000
ENDCHAR
STARTCHAR 2543
ENCODING 9539
SWIDTH 960 0
DWIDTH 16 0
BBX 16 16 0 -2
BITMAP
0000
0000
0000
0000
0000
0000
0220
1110
0910
0820
0020
0040
0080
0100
0200
0000
ENDCHAR
STARTCHAR 2544
ENCODING 9540
SWIDTH 960 0
DWIDTH 16 0
BBX 16 16 0 -2
BITMAP
0000
0000
0208
2104
1084
0884
0888
0808
0010
0010
0020
0040
0080
0100
0600
0000
ENDCHAR
STARTCHAR 2545
ENCODING 9541
SWIDTH 960 0
DWIDTH 16 0
BBX 16 16 0 -2
BITMAP
0004
0012
080a
8428
4210
2210
2220
2020
0040
0040
0080
0100
0200
0400
1800
0000
ENDCHAR
STARTCHAR 2546
ENCODING 9542
SWIDTH 960 0
DWIDTH 16 0
BBX 16 16 0 -2
BITMAP
0000
0000
0870
0780
0000
0000
003e
21c0
1e40
0040
0080
0080
0100
0200
0400
0000
ENDCHAR
STARTCHAR 2547
ENCODING 9543
SWIDTH 960 0
DWIDTH 16 0
BBX 16 16 0 -2
BITMAP
0004
0012
087a
0788
0000
0000
003e
21c0
1e40
0040
0080
0080
0100
0200
0400
0000
ENDCHAR
STARTCHAR 2548
ENCODING 9544
SWIDTH 960 0
DWIDTH 16 0
BBX 16 16 0 -2
BITMAP
0000
0400
0200
0200
0200
0200
0380
0260
0210
0208
0200
0200
0200
0200
0200
0200
ENDCHAR
STARTCHAR 2549
ENCODING 9545
SWIDTH 960 0
DWIDTH 16 0
BBX 16 16 0 -2
BITMAP
0000
0808
0424
0414
0410
0400
0700
04c0
0420
0410
0400
0400
0400
0400
0400
0400
ENDCHAR
STARTCHAR 254a
ENCODING 9546
SWIDTH 960 0
DWIDTH 16 0
BBX 16 16 0 -2
BITMAP
0000
0100
0080
0080
0080
40fc
3f80
0080
0080
0080
0100
0100
0200
0400
0800
0000
ENDCHAR
STARTCHAR 254b
ENCODING 9547
SWIDTH 960 0
DWIDTH 16 0
BBX 16 16 0 -2
BITMAP
0000
0000
0000
0000
0870
0780
0000
0000
0000
0000
0000
00fc
3f02
0000
0000
0000
ENDCHAR
STARTCHAR 254c
ENCODING 9548
SWIDTH 960 0
DWIDTH 16 0
BBX 16 16 0 -2
BITMAP
0000
0000
10f0
0f10
0010
0020
0c20
0340
0080
00c0
0120
0210
0408
1800
6000
0000
ENDCHAR
STARTCHAR 254d
ENCODING 9549
SWIDTH 960 0
DWIDTH 16 0
BBX 16 16 0 -2
BITMAP
0200
0100
0100
21f0
1e10
0020
0040
0080
0360
0d18
7104
0100
0100
0100
0100
0000
ENDCHAR
STARTCHAR 254e
ENCODING 9550
SWIDTH 960 0
DWIDTH 16 0
BBX 16 16 0 -2
BITMAP
0000
0020
0010
0010
0010
0020
0020
0040
0040
0080
0100
0200
0400
0800
1000
0000
ENDCHAR
STARTCHAR 254f
ENCODING 9551
SWIDTH 960 0
DWIDTH 16 0
BBX 16 16 0 -2
BITMAP
0000
0000
0000
0000
0040
0420
0210
0208
0408
0404
0804
1002
2002
4002
0000
0000
ENDCHAR
STARTCHAR 2550
ENCODING 9552
SWIDTH 960 0
DWIDTH 16 0
BBX 16 16 0 -2
BITMAP
0000
0004
0012
000a
0448
0220
0210
0408
0408
0804
0804
1002
2002
4002
0000
0000
ENDCHAR
STARTCHAR 2551
ENCODING 9553
SWIDTH 960 0
DWIDTH 16 0
BBX 16 16 0 -2
BITMAP
0000
000c
0012
0012
044c
0220
0210
0408
0408
0804
0804
1002
2002
4002
0000
0000
ENDCHAR
STARTCHAR 2552
ENCODING 9554
SWIDTH 960 0
DWIDTH 16 0
BBX 16 16 0 -2
BITMAP
0000
2000
1000
1000
1000
1030
11c0
1e00
1000
1000
1000
1000
0800
07f8
0000
0000
ENDCHAR
STARTCHAR 2553
ENCODING 9555
SWIDTH 960 0
DWIDTH 16 0
BBX 16 16 0 -2
BITMAP
0000
2004
1012
100a
1008
1060
1180
1e00
1000
1000
1000
1000
0800
07f8
0000
0000
ENDCHAR
STARTCHAR 2554
ENCODING 9556
SWIDTH 960 0
DWIDTH 16 0
BBX 16 16 0 -2
BITMAP
0000
4018
2024
2024
2018
20c0
2300
3c00
2000
2000
2000
2000
1000
0ff0
0000
0000
ENDCHAR
STARTCHAR 2555
ENCODING 9557
SWIDTH 960 0
DWIDTH 16 0
BBX 16 16 0 -2
BITMAP
0000
0000
207c
1f84
0004
0008
0008
0010
0010
0020
0040
0080
0100
0200
0c00
0000
ENDCHAR
STARTCHAR 2556
ENCODING 9558
SWIDTH 960 0
DWIDTH 16 0
BBX 16 16 0 -2
BITMAP
0004
0012
81ea
7e28
0020
0040
0040
0080
0080
0100
0200
0400
0800
1000
6000
0000
ENDCHAR
STARTCHAR 2557
ENCODING 9559
SWIDTH 960 0
DWIDTH 16 0
BBX 16 16 0 -2
BITMAP
000c
0012
40f2
3f1c
0010
0020
0020
0040
0040
0080
0100
0200
0400
0800
3000
0000
ENDCHAR
STARTCHAR 2558
ENCODING 9560
SWIDTH 960 0
DWIDTH 16 0
BBX 16 16 0 -2
BITMAP
0000
0000
0000
0000
0200
0500
0880
1040
a020
4010
0008
0006
0000
0000
0000
0000
ENDCHAR
STARTCHAR 2559
ENCODING 9561
SWIDTH 960 0
DWIDTH 16 0
BBX 16 16 0 -2
BITMAP
0000
0000
0008
0024
0214
0510
0880
1040
a020
4010
0008
0006
0000
0000
0000
0000
ENDCHAR
STARTCHAR 255a
ENCODING 9562
SWIDTH 960 0
DWIDTH 16 0
BBX 16 16 0 -2
BITMAP
0000
0000
0018
0024
0224
0518
0880
1040
a020
4010
0008
0006
0000
0000
0000
0000
ENDCHAR
STARTCHAR 255b
ENCODING 9563
SWIDTH 960 0
DWIDTH 16 0
BBX 16 16 0 -2
BITMAP
0000
0100
0080
0080
20fc
1f80
0080
0090
0488
0484
0882
0882
1080
2180
0080
0000
ENDCHAR
STARTCHAR 255c
ENCODING 9564
SWIDTH 960 0
DWIDTH 16 0
BBX 16 16 0 -2
BITMAP
0004
0212
010a
0108
41f8
3f00
0100
0120
0910
0908
1104
1104
2100
4300
0100
0000
ENDCHAR
STARTCHAR 255d
ENCODING 9565
SWIDTH 960 0
DWIDTH 16 0
BBX 16 16 0 -2
BITMAP
0000
020c
0112
0112
41fc
3f00
0100
0120
0910
0908
1104
1104
2100
4300
0100
0000
ENDCHAR
STARTCHAR 255e
ENCODING 9566
SWIDTH 960 0
DWIDTH 16 0
BBX 16 16 0 -2
BITMAP
0000
0000
0000
207c
1f84
0008
0008
0010
0c20
0340
0080
0040
0020
0020
0000
0000
ENDCHAR
STARTCHAR 255f
ENCODING 9567
SWIDTH 960 0
DWIDTH 16 0
BBX 16 16 0 -2
BITMAP
0000
0600
0180
0060
0010
0000
0600
0180
0040
0020
1000
0c00
0300
00c0
0020
0010
ENDCHAR
STARTCHAR 2560
ENCODING 9568
SWIDTH 960 0
DWIDTH 16 0
BBX 16 16 0 -2
BITMAP
0000
0200
0100
0100
0100
0100
0240
0220
0210
0410
0478
4b88
3c04
0004
0004
0000
ENDCHAR
STARTCHAR 2561
ENCODING 9569
SWIDTH 960 0
DWIDTH 16 0
BBX 16 16 0 -2
BITMAP
0000
0020
0010
0010
0010
0c20
0320
00c0
0060
0050
0088
0100
0200
0c00
3000
0000
ENDCHAR
STARTCHAR 2562
ENCODING 9570
SWIDTH 960 0
DWIDTH 16 0
BBX 16 16 0 -2
BITMAP
0000
0000
10f0
0f00
0200
0200
0200
43fc
3e00
0200
0200
0200
0100
00f8
0000
0000
ENDCHAR
STARTCHAR 2563
ENCODING 9571
SWIDTH 960 0
DWIDTH 16 0
BBX 16 16 0 -2
BITMAP
0000
0000
0000
0000
0000
0800
0400
0478
0388
2610
1a20
0100
0100
0080
0080
0080
ENDCHAR
STARTCHAR 2564
ENCODING 9572
SWIDTH 960 0
DWIDTH 16 0
BBX 16 16 0 -2
BITMAP
0000
1000
0800
081c
05e4
4e08
3410
0220
0240
0100
0100
0100
0080
0080
0080
0000
ENDCHAR
STARTCHAR 2565
ENCODING 9573
SWIDTH 960 0
DWIDTH 16 0
BBX 16 16 0 -2
BITMAP
0000
0000
0000
0000
0000
0000
0000
0000
01c0
0e40
0040
0080
01f0
3e08
0000
0000
ENDCHAR
STARTCHAR 2566
ENCODING 9574
SWIDTH 960 0
DWIDTH 16 0
BBX 16 16 0 -2
BITMAP
0000
0000
0000
0000
10e0
0f20
0020
0020
0040
0040
0040
07f8
7804
0000
0000
0000
ENDCHAR
STARTCHAR 2567
ENCODING 9575
SWIDTH 960 0
DWIDTH 16 0
BBX 16 16 0 -2
BITMAP
0000
0000
0000
0000
0000
0000
00f0
0f10
0010
00f0
0720
0020
0020
00e0
0f10
0000
ENDCHAR
STARTCHAR 2568
ENCODING 9576
SWIDTH 960 0
DWIDTH 16 0
BBX 16 16 0 -2
BITMAP
0000
0000
01f8
1e08
0008
0008
0008
00f0
0f10
0010
0010
0010
00f0
1f08
0000
0000
ENDCHAR
STARTCHAR 2569
ENCODING 9577
SWIDTH 960 0
DWIDTH 16 0
BBX 16 16 0 -2
BITMAP
0000
10f0
0f00
0000
0000
003c
23c4
1c04
0008
0008
0010
0020
0040
0180
0600
0000
ENDCHAR
STARTCHAR 256a
ENCODING 9578
SWIDTH 960 0
DWIDTH 16 0
BBX 16 16 0 -2
BITMAP
0040
1020
0820
0820
0820
0820
0820
0820
0820
0820
0040
0040
0080
0100
0200
0000
ENDCHAR
STARTCHAR 256b
ENCODING 9579
SWIDTH 960 0
DWIDTH 16 0
BBX 16 16 0 -2
BITMAP
0000
0100
0080
1080
0880
0882
0882
0884
0884
0888
0890
10a0
10c0
2080
4000
0000
ENDCHAR
STARTCHAR 256c
ENCODING 9580
SWIDTH 960 0
DWIDTH 16 0
BBX 16 16 0 -2
BITMAP
0000
1000
0800
0800
0800
0800
0800
0800
0808
0810
0820
0840
0980
0e00
0800
0000
ENDCHAR
STARTCHAR 256d
ENCODING 9581
SWIDTH 960 0
DWIDTH 16 0
BBX 16 16 0 -2
BITMAP
0000
0000
4000
21f8
3e08
2008
1008
1008
1010
1010
1010
11f0
1e08
1000
0000
0000
ENDCHAR
STARTCHAR 256e
ENCODING 9582
SWIDTH 960 0
DWIDTH 16 0
BBX 16 16 0 -2
BITMAP
0000
0000
0000
0000
0000
0000
10f0
0f10
0810
0820
0820
0040
0080
0100
0200
0000
ENDCHAR
STARTCHAR 256f
ENCODING 9583
SWIDTH 960 0
DWIDTH 16 0
BBX 16 16 0 -2
BITMAP
0000
0000
0000
40f8
3f08
2008
1008
1010
1010
1020
0020
0040
0080
0100
0200
0000
ENDCHAR
STARTCHAR 2570
ENCODING 9584
SWIDTH 960 0
DWIDTH 16 0
BBX 16 16 0 -2
BITMAP
0000
0080
0040
0040
20fc
1f40
0840
0840
0440
04fc
7f42
0040
0040
0040
0040
0000
ENDCHAR
STARTCHAR 2571
ENCODING 9585
SWIDTH 960 0
DWIDTH 16 0
BBX 16 16 0 -2
BITMAP
0000
0000
0000
10f8
0f10
0020
0140
0100
0100
0100
0100
01f8
7e04
0000
0000
0000
ENDCHAR
STARTCHAR 2572
ENCODING 9586
SWIDTH 960 0
DWIDTH 16 0
BBX 16 16 0 -2
BITMAP
0000
0000
1078
0f88
0008
0008
00f0
0f10
0020
0020
0040
0080
0300
1c00
0000
0000
ENDCHAR
STARTCHAR 2573
ENCODING 9587
SWIDTH 960 0
DWIDTH 16 0
BBX 16 16 0 -2
BITMAP
0000
0000
0000
3000
0804
0404
0008
0008
0010
0020
0040
0080
0100
2600
1800
0000
ENDCHAR
STARTCHAR 2574
ENCODING 9588
SWIDTH 960 0
DWIDTH 16 0
BBX 16 16 0 -2
BITMAP
0004
0212
010a
0108
21f8
3e08
1008
1010
1010
1020
0020
0040
0080
0100
0200
0000
ENDCHAR
STARTCHAR 2575
ENCODING 9589
SWIDTH 960 0
DWIDTH 16 0
BBX 16 16 0 -2
BITMAP
0000
0000
0000
0000
0100
0100
0100
11f0
0f10
0110
0210
0220
0420
08a0
1040
0000
ENDCHAR
STARTCHAR 2576
ENCODING 9590
SWIDTH 960 0
DWIDTH 16 0
BBX 16 16 0 -2
BITMAP
0000
0000
0000
0000
0800
0400
0470
0780
0440
0840
1080
0080
0100
0200
0400
0000
ENDCHAR
STARTCHAR 2621
ENCODING 9761
SWIDTH 960 0
DWIDTH 16 0
BBX 16 16 0 -2
BITMAP
0000
0100
0100
0280
0280
0440
0440
0820
0fe0
0820
1010
1010
2008
701c
0000
0000
ENDCHAR
STARTCHAR 2342
ENCODING 9762
SWIDTH 960 0
DWIDTH 16 0
BBX 16 16 0 -2
BITMAP
0000
3fe0
0810
0808
0808
0810
0fe0
0810
0808
0804
0804
0808
0830
3fc0
0000
0000
ENDCHAR
STARTCHAR 2623
ENCODING 9763
SWIDTH 960 0
DWIDTH 16 0
BBX 16 16 0 -2
BITMAP
0000
1ff8
0408
0404
0400
0400
0400
0400
0400
0400
0400
0400
0400
0e00
0000
0000
ENDCHAR
STARTCHAR 2621
ENCODING 9764
SWIDTH 960 0
DWIDTH 16 0
BBX 16 16 0 -2
BITMAP
0000
0100
0100
0280
0280
0440
0440
0820
0820
0810
1010
1010
2008
7ffc
0000
0000
ENDCHAR
STARTCHAR 2345
ENCODING 9765
SWIDTH 960 0
DWIDTH 16 0
BBX 16 16 0 -2
BITMAP
0000
3ff8
0808
0804
0800
0800
0840
0fc0
0840
0800
0800
0804
0808
3ff8
0000
0000
ENDCHAR
STARTCHAR 235a
ENCODING 9766
SWIDTH 960 0
DWIDTH 16 0
BBX 16 16 0 -2
BITMAP
0000
0ff8
0810
1020
0040
0040
0080
0100
0100
0200
0400
0408
0808
1ff8
0000
0000
ENDCHAR
STARTCHAR 2348
ENCODING 9767
SWIDTH 960 0
DWIDTH 16 0
BBX 16 16 0 -2
BITMAP
0000
381c
1008
1008
1008
1008
1008
1ff8
1008
1008
1008
1008
1008
381c
0000
0000
ENDCHAR
STARTCHAR 2628
ENCODING 9768
SWIDTH 960 0
DWIDTH 16 0
BBX 16 16 0 -2
BITMAP
0000
03c0
0c30
1818
1008
2004
2424
27e4
2424
2004
1008
1818
0c30
03c0
0000
0000
ENDCHAR
STARTCHAR 2349
ENCODING 9769
SWIDTH 960 0
DWIDTH 16 0
BBX 16 16 0 -2
BITMAP
0000
0380
0100
0100
0100
0100
0100
0100
0100
0100
0100
0100
0100
0380
0000
0000
ENDCHAR
STARTCHAR 234b
ENCODING 9770
SWIDTH 960 0
DWIDTH 16 0
BBX 16 16 0 -2
BITMAP
0000
3838
1020
1040
1080
1100
1200
1600
1900
1080
1040
1020
1010
381c
0000
0000
ENDCHAR
STARTCHAR 2621
ENCODING 9771
SWIDTH 960 0
DWIDTH 16 0
BBX 16 16 0 -2
BITMAP
0000
0100
0100
0280
0280
0440
0440
0820
0820
0820
1010
1010
2008
701c
0000
0000
ENDCHAR
STARTCHAR 234d
ENCODING 9772
SWIDTH 960 0
DWIDTH 16 0
BBX 16 16 0 -2
BITMAP
0000
600c
2008
3018
3018
2828
2828
2448
2448
2448
2288
2288
2108
711c
0000
0000
ENDCHAR
STARTCHAR 234e
ENCODING 9773
SWIDTH 960 0
DWIDTH 16 0
BBX 16 16 0 -2
BITMAP
0000
381c
1808
1408
1408
1208
1108
1108
1088
1048
1048
1028
1018
3808
0000
0000
ENDCHAR
STARTCHAR 262e
ENCODING 9774
SWIDTH 960 0
DWIDTH 16 0
BBX 16 16 0 -2
BITMAP
0000
3ffc
2004
0000
0000
0000
1008
1ff8
1008
0000
0000
0000
2004
3ffc
0000
0000
ENDCHAR
STARTCHAR 234f
ENCODING 9775
SWIDTH 960 0
DWIDTH 16 0
BBX 16 16 0 -2
BITMAP
0000
03c0
0c30
1818
1008
2004
2004
2004
2004
2004
1008
1818
0c30
03c0
0000
0000
ENDCHAR
STARTCHAR 2630
ENCODING 9776
SWIDTH 960 0
DWIDTH 16 0
BBX 16 16 0 -2
BITMAP
0000
1ff8
0810
0810
0810
0810
0810
0810
0810
0810
0810
0810
0810
1c38
0000
0000
ENDCHAR
STARTCHAR 2350
ENCODING 9777
SWIDTH 960 0
DWIDTH 16 0
BBX 16 16 0 -2
BITMAP
0000
3fc0
0830
0808
0808
0808
0830
0fc0
0800
0800
0800
0800
0800
1c00
0000
0000
ENDCHAR
STARTCHAR 2632
ENCODING 9778
SWIDTH 960 0
DWIDTH 16 0
BBX 16 16 0 -2
BITMAP
0000
1ff0
0810
0408
0200
0100
0080
00c0
0080
0100
0200
0408
0808
1ff8
0000
0000
ENDCHAR
STARTCHAR 2354
ENCODING 9779
SWIDTH 960 0
DWIDTH 16 0
BBX 16 16 0 -2
BITMAP
0000
3ff8
2108
4104
0100
0100
0100
0100
0100
0100
0100
0100
0100
0380
0000
0000
ENDCHAR
STARTCHAR 2634
ENCODING 9780
SWIDTH 960 0
DWIDTH 16 0
BBX 16 16 0 -2
BITMAP
0000
1c70
2288
4104
0100
0100
0100
0100
0100
0100
0100
0100
0100
0380
0000
0000
ENDCHAR
STARTCHAR 2635
ENCODING 9781
SWIDTH 960 0
DWIDTH 16 0
BBX 16 16 0 -2
BITMAP
0000
0380
0100
07c0
1930
1110
2108
2108
2108
1110
1930
07c0
0100
0380
0000
0000
ENDCHAR
STARTCHAR 2358
ENCODING 9782
SWIDTH 960 0
DWIDTH 16 0
BBX 16 16 0 -2
BITMAP
0000
3838
1010
0820
0440
0440
0280
0100
0280
0440
0440
0820
1010
3838
0000
0000
ENDCHAR
STARTCHAR 2637
ENCODING 9783
SWIDTH 960 0
DWIDTH 16 0
BBX 16 16 0 -2
BITMAP
0000
0380
610c
9112
1110
1110
1110
1110
1930
0920
07c0
0100
0100
0380
0000
0000
ENDCHAR
STARTCHAR 2638
ENCODING 9784
SWIDTH 960 0
DWIDTH 16 0
BBX 16 16 0 -2
BITMAP
0000
0380
0c60
1830
1010
2008
2008
2008
1010
1830
0c60
2288
2288
3ef8
0000
0000
ENDCHAR
STARTCHAR 2641
ENCODING 9793
SWIDTH 960 0
DWIDTH 16 0
BBX 16 16 0 -2
BITMAP
0000
0000
0000
0000
0000
0008
0388
0450
0850
0860
1040
10c0
1148
0e30
0000
0000
ENDCHAR
STARTCHAR 2642
ENCODING 9794
SWIDTH 960 0
DWIDTH 16 0
BBX 16 16 0 -2
BITMAP
0000
0070
0088
0108
0108
0208
0210
04e0
0420
0410
0810
0810
0a20
09c0
1000
1000
ENDCHAR
STARTCHAR 2643
ENCODING 9795
SWIDTH 960 0
DWIDTH 16 0
BBX 16 16 0 -2
BITMAP
0000
0000
0000
0000
0000
0000
0e18
1120
2140
0180
0180
0100
0200
0200
0400
0400
ENDCHAR
STARTCHAR 2644
ENCODING 9796
SWIDTH 960 0
DWIDTH 16 0
BBX 16 16 0 -2
BITMAP
0000
0180
0260
0210
0108
0080
0340
0440
0820
1020
1040
1040
0880
0700
0000
0000
ENDCHAR
STARTCHAR 2645
ENCODING 9797
SWIDTH 960 0
DWIDTH 16 0
BBX 16 16 0 -2
BITMAP
0000
0000
0000
0000
0000
0000
03c0
0420
0400
0380
0400
0800
0840
0780
0000
0000
ENDCHAR
STARTCHAR 2646
ENCODING 9798
SWIDTH 960 0
DWIDTH 16 0
BBX 16 16 0 -2
BITMAP
0200
0410
0420
03c0
0080
0100
0200
0400
0800
0800
0400
0300
0080
0040
0040
0180
ENDCHAR
STARTCHAR 2647
ENCODING 9799
SWIDTH 960 0
DWIDTH 16 0
BBX 16 16 0 -2
BITMAP
0000
0000
0000
0000
0000
0000
0ce0
1310
0210
0410
0410
0420
0820
0820
0040
0040
ENDCHAR
STARTCHAR 2648
ENCODING 9800
SWIDTH 960 0
DWIDTH 16 0
BBX 16 16 0 -2
BITMAP
0000
00c0
0120
0210
0410
0410
0ff0
0820
1020
1040
1040
1080
0900
0600
0000
0000
ENDCHAR
STARTCHAR 2649
ENCODING 9801
SWIDTH 960 0
DWIDTH 16 0
BBX 16 16 0 -2
BITMAP
0000
0000
0000
0000
0000
0000
0200
0200
0400
0400
0800
0820
08c0
0700
0000
0000
ENDCHAR
STARTCHAR 264a
ENCODING 9802
SWIDTH 960 0
DWIDTH 16 0
BBX 16 16 0 -2
BITMAP
0000
0000
0000
0000
0000
0000
0430
0448
0580
0600
0900
0900
1110
10e0
0000
0000
ENDCHAR
STARTCHAR 264b
ENCODING 9803
SWIDTH 960 0
DWIDTH 16 0
BBX 16 16 0 -2
BITMAP
0000
0080
0040
0040
0040
0040
0040
00c0
0140
0140
0220
0420
0810
1008
0000
0000
ENDCHAR
STARTCHAR 264c
ENCODING 9804
SWIDTH 960 0
DWIDTH 16 0
BBX 16 16 0 -2
BITMAP
0000
0000
0000
0000
0000
0000
0420
0420
0420
0440
0840
0840
0cc8
1330
1000
2000
ENDCHAR
STARTCHAR 264d
ENCODING 9805
SWIDTH 960 0
DWIDTH 16 0
BBX 16 16 0 -2
BITMAP
0000
0000
0000
0000
0000
0000
1810
0410
0420
0420
0440
0880
0b00
1c00
0000
0000
ENDCHAR
STARTCHAR 264e
ENCODING 9806
SWIDTH 960 0
DWIDTH 16 0
BBX 16 16 0 -2
BITMAP
0010
00e0
0100
0080
03e0
0400
0400
0200
0fc0
1000
1000
0e00
0180
0040
0040
0f80
ENDCHAR
STARTCHAR 264f
ENCODING 9807
SWIDTH 960 0
DWIDTH 16 0
BBX 16 16 0 -2
BITMAP
0000
0000
0000
0000
0000
0000
01c0
0220
0410
0810
0810
0820
0440
0380
0000
0000
ENDCHAR
STARTCHAR 2650
ENCODING 9808
SWIDTH 960 0
DWIDTH 16 0
BBX 16 16 0 -2
BITMAP
0000
0000
0000
0000
0000
0008
0ff0
1240
0240
0240
0480
0480
0890
1060
0000
0000
ENDCHAR
STARTCHAR 2651
ENCODING 9809
SWIDTH 960 0
DWIDTH 16 0
BBX 16 16 0 -2
BITMAP
0000
0000
0000
0000
0000
0000
01c0
0220
0410
0410
0410
0810
0a20
09c0
1000
1000
ENDCHAR
STARTCHAR 2652
ENCODING 9810
SWIDTH 960 0
DWIDTH 16 0
BBX 16 16 0 -2
BITMAP
0000
0000
0000
0000
0000
0010
01e0
0240
0420
0820
0820
0840
0480
0300
0000
0000
ENDCHAR
STARTCHAR 2653
ENCODING 9811
SWIDTH 960 0
DWIDTH 16 0
BBX 16 16 0 -2
BITMAP
0000
0000
0000
0000
0000
0008
0ff0
1100
0100
0200
0200
0420
0440
0380
0000
0000
ENDCHAR
STARTCHAR 2654
ENCODING 9812
SWIDTH 960 0
DWIDTH 16 0
BBX 16 16 0 -2
BITMAP
0000
0000
0000
0000
0000
0000
0220
0210
0210
0220
0420
0440
0480
0300
0000
0000
ENDCHAR
STARTCHAR 2655
ENCODING 9813
SWIDTH 960 0
DWIDTH 16 0
BBX 16 16 0 -2
BITMAP
0000
0020
0020
0020
0040
0040
01e0
0690
0890
0890
0910
0960
0780
0200
0200
0200
ENDCHAR
STARTCHAR 2656
ENCODING 9814
SWIDTH 960 0
DWIDTH 16 0
BBX 16 16 0 -2
BITMAP
0000
0000
0000
0000
0000
0000
0610
0920
0140
0180
0100
0300
0500
0900
1090
2060
ENDCHAR
STARTCHAR 2657
ENCODING 9815
SWIDTH 960 0
DWIDTH 16 0
BBX 16 16 0 -2
BITMAP
0000
0020
0020
0040
0040
0040
0888
1488
0490
0510
0920
0940
0780
0200
0200
0200
ENDCHAR
STARTCHAR 2658
ENCODING 9816
SWIDTH 960 0
DWIDTH 16 0
BBX 16 16 0 -2
BITMAP
0000
0000
0000
0000
0000
0000
0410
0890
1088
1088
2108
2108
2290
1c60
0000
0000
ENDCHAR
STARTCHAR 2621
ENCODING 10017
SWIDTH 960 0
DWIDTH 16 0
BBX 16 16 0 -2
BITMAP
0000
0100
0100
0280
0280
0440
0440
0820
0fe0
0820
1010
1010
2008
701c
0000
0000
ENDCHAR
STARTCHAR 2342
ENCODING 10018
SWIDTH 960 0
DWIDTH 16 0
BBX 16 16 0 -2
BITMAP
0000
3ff0
0810
0808
0800
0800
0fe0
0810
0808
0804
0804
0808
0830
3fc0
0000
0000
ENDCHAR
STARTCHAR 2342
ENCODING 10019
SWIDTH 960 0
DWIDTH 16 0
BBX 16 16 0 -2
BITMAP
0000
3fe0
0810
0808
0808
0810
0fe0
0810
0808
0804
0804
0808
0830
3fc0
0000
0000
ENDCHAR
STARTCHAR 2623
ENCODING 10020
SWIDTH 960 0
DWIDTH 16 0
BBX 16 16 0 -2
BITMAP
0000
1ff8
0408
0404
0400
0400
0400
0400
0400
0400
0400
0400
0400
0e00
0000
0000
ENDCHAR
STARTCHAR 2725
ENCODING 10021
SWIDTH 960 0
DWIDTH 16 0
BBX 16 16 0 -2
BITMAP
0000
0ffc
0210
0210
0210
0210
0210
0210
0210
0210
0410
0410
0810
3ffc
2004
2004
ENDCHAR
STARTCHAR 2345
ENCODING 10022
SWIDTH 960 0
DWIDTH 16 0
BBX 16 16 0 -2
BITMAP
0000
3ff8
0808
0804
0800
0800
0840
0fc0
0840
0800
0800
0804
0808
3ff8
0000
0000
ENDCHAR
STARTCHAR 2727
ENCODING 10023
SWIDTH 960 0
DWIDTH 16 0
BBX 16 16 0 -2
BITMAP
0410
0410
0000
3ff0
0810
0808
0800
0840
0fc0
0840
0800
0808
0810
3ff0
0000
0000
ENDCHAR
STARTCHAR 2728
ENCODING 10024
SWIDTH 960 0
DWIDTH 16 0
BBX 16 16 0 -2
BITMAP
0000
638c
9112
1110
1110
1110
0920
0fe0
1110
2108
2108
4104
4104
e38e
0000
0000
ENDCHAR
STARTCHAR 2729
ENCODING 10025
SWIDTH 960 0
DWIDTH 16 0
BBX 16 16 0 -2
BITMAP
0000
03c0
0c30
1018
0008
0008
0010
03e0
0010
0008
0008
1010
0c30
03c0
0000
0000
ENDCHAR
STARTCHAR 234e
ENCODING 10026
SWIDTH 960 0
DWIDTH 16 0
BBX 16 16 0 -2
BITMAP
0000
381c
1018
1028
1028
1048
1088
1088
1108
1208
1208
1408
1808
101c
0000
0000
ENDCHAR
STARTCHAR 234e
ENCODING 10027
SWIDTH 960 0
DWIDTH 16 0
BBX 16 16 0 -2
BITMAP
0660
0420
3bcc
1018
1018
1028
1048
1088
1088
1108
1208
1408
1808
101c
0000
0000
ENDCHAR
STARTCHAR 272c
ENCODING 10028
SWIDTH 960 0
DWIDTH 16 0
BBX 16 16 0 -2
BITMAP
0000
3870
1088
1080
1100
1100
1200
1e00
1100
1080
1040
1020
1010
3838
0000
0000
ENDCHAR
STARTCHAR 272d
ENCODING 10029
SWIDTH 960 0
DWIDTH 16 0
BBX 16 16 0 -2
BITMAP
0000
0ff8
0210
0210
0210
0210
0210
0210
0210
0410
0410
0810
5010
6038
0000
0000
ENDCHAR
STARTCHAR 234d
ENCODING 10030
SWIDTH 960 0
DWIDTH 16 0
BBX 16 16 0 -2
BITMAP
0000
300c
1008
1818
1818
1428
1428
1228
1248
2244
2144
2184
2084
788e
0000
0000
ENDCHAR
STARTCHAR 2348
ENCODING 10031
SWIDTH 960 0
DWIDTH 16 0
BBX 16 16 0 -2
BITMAP
0000
381c
1008
1008
1008
1008
1008
1ff8
1008
1008
1008
1008
1008
381c
0000
0000
ENDCHAR
STARTCHAR 234f
ENCODING 10032
SWIDTH 960 0
DWIDTH 16 0
BBX 16 16 0 -2
BITMAP
0000
03c0
0c30
1818
1008
2004
2004
2004
2004
2004
1008
1818
0c30
03c0
0000
0000
ENDCHAR
STARTCHAR 2731
ENCODING 10033
SWIDTH 960 0
DWIDTH 16 0
BBX 16 16 0 -2
BITMAP
0000
3ff8
1010
1010
1010
1010
1010
1010
1010
1010
1010
1010
1010
3838
0000
0000
ENDCHAR
STARTCHAR 2350
ENCODING 10034
SWIDTH 960 0
DWIDTH 16 0
BBX 16 16 0 -2
BITMAP
0000
3fc0
0830
0808
0808
0808
0830
0fc0
0800
0800
0800
0800
0800
1c00
0000
0000
ENDCHAR
STARTCHAR 2733
ENCODING 10035
SWIDTH 960 0
DWIDTH 16 0
BBX 16 16 0 -2
BITMAP
0000
03c0
0c28
1818
1008
2000
2000
2000
2000
2000
1008
1818
0c30
03c0
0000
0000
ENDCHAR
STARTCHAR 2354
ENCODING 10036
SWIDTH 960 0
DWIDTH 16 0
BBX 16 16 0 -2
BITMAP
0000
3ff8
2108
4104
0100
0100
0100
0100
0100
0100
0100
0100
0100
0380
0000
0000
ENDCHAR
STARTCHAR 2735
ENCODING 10037
SWIDTH 960 0
DWIDTH 16 0
BBX 16 16 0 -2
BITMAP
0000
3838
1010
0820
0820
0440
0440
0280
0280
0100
0100
0200
2400
1800
0000
0000
ENDCHAR
STARTCHAR 2635
ENCODING 10038
SWIDTH 960 0
DWIDTH 16 0
BBX 16 16 0 -2
BITMAP
0000
0380
0100
07c0
1930
1110
2108
2108
2108
1110
1930
07c0
0100
0380
0000
0000
ENDCHAR
STARTCHAR 2358
ENCODING 10039
SWIDTH 960 0
DWIDTH 16 0
BBX 16 16 0 -2
BITMAP
0000
3838
1010
0820
0440
0440
0280
0100
0280
0440
0440
0820
1010
3838
0000
0000
ENDCHAR
STARTCHAR 2738
ENCODING 10040
SWIDTH 960 0
DWIDTH 16 0
BBX 16 16 0 -2
BITMAP
0000
3838
1010
1010
1010
1010
1010
1010
1010
1010
1010
1010
1010
3ffc
0004
0004
ENDCHAR
STARTCHAR 2739
ENCODING 10041
SWIDTH 960 0
DWIDTH 16 0
BBX 16 16 0 -2
BITMAP
0000
1c38
0810
0810
0810
0810
0810
0430
03d0
0010
0010
0010
0010
0038
0000
0000
ENDCHAR
STARTCHAR 273a
ENCODING 10042
SWIDTH 960 0
DWIDTH 16 0
BBX 16 16 0 -2
BITMAP
0000
739c
2108
2108
2108
2108
2108
2108
2108
2108
2108
2108
2108
7ffc
0000
0000
ENDCHAR
STARTCHAR 273b
ENCODING 10043
SWIDTH 960 0
DWIDTH 16 0
BBX 16 16 0 -2
BITMAP
0000
739c
2108
2108
2108
2108
2108
2108
2108
2108
2108
2108
2108
7ffe
0002
0002
ENDCHAR
STARTCHAR 273c
ENCODING 10044
SWIDTH 960 0
DWIDTH 16 0
BBX 16 16 0 -2
BITMAP
0000
3f00
2200
4200
0200
0200
03f0
020c
0206
0202
0202
0206
020c
07f0
0000
0000
ENDCHAR
STARTCHAR 273d
ENCODING 10045
SWIDTH 960 0
DWIDTH 16 0
BBX 16 16 0 -2
BITMAP
0000
381c
1008
1008
1008
1008
1e08
1188
10c8
1048
1048
10c8
1188
3e1c
0000
0000
ENDCHAR
STARTCHAR 273e
ENCODING 10046
SWIDTH 960 0
DWIDTH 16 0
BBX 16 16 0 -2
BITMAP
0000
1c00
0800
0800
0800
0800
0fc0
0830
0818
0808
0808
0818
0830
1fc0
0000
0000
ENDCHAR
STARTCHAR 273f
ENCODING 10047
SWIDTH 960 0
DWIDTH 16 0
BBX 16 16 0 -2
BITMAP
0000
0780
1860
1030
2010
0018
0e28
11c8
0008
0008
2010
1030
1860
0780
0000
0000
ENDCHAR
STARTCHAR 2740
ENCODING 10048
SWIDTH 960 0
DWIDTH 16 0
BBX 16 16 0 -2
BITMAP
0000
70e0
2110
2208
2208
2404
2404
3c04
2404
2404
2208
2208
2110
70e0
0000
0000
ENDCHAR
STARTCHAR 2741
ENCODING 10049
SWIDTH 960 0
DWIDTH 16 0
BBX 16 16 0 -2
BITMAP
0000
03f8
0c10
1010
1010
1010
0c10
03f0
0110
0210
0410
0410
1810
6038
0000
0000
ENDCHAR
STARTCHAR 2361
ENCODING 10065
SWIDTH 960 0
DWIDTH 16 0
BBX 16 16 0 -2
BITMAP
0000
0000
0000
0000
0000
03c0
0420
0020
03a0
0460
0820
0860
08a8
0718
0000
0000
ENDCHAR
STARTCHAR 2752
ENCODING 10066
SWIDTH 960 0
DWIDTH 16 0
BBX 16 16 0 -2
BITMAP
0000
0010
01e0
0200
0400
0400
0bc0
0c20
0810
0810
0810
0810
0420
03c0
0000
0000
ENDCHAR
STARTCHAR 2753
ENCODING 10067
SWIDTH 960 0
DWIDTH 16 0
BBX 16 16 0 -2
BITMAP
0000
0000
0000
0000
0000
0fe0
0410
0410
0420
07e0
0410
0410
0410
0fe0
0000
0000
ENDCHAR
STARTCHAR 2754
ENCODING 10068
SWIDTH 960 0
DWIDTH 16 0
BBX 16 16 0 -2
BITMAP
0000
0000
0000
0000
0000
0ff0
0410
0410
0400
0400
0400
0400
0400
0e00
0000
0000
ENDCHAR
STARTCHAR 2755
ENCODING 10069
SWIDTH 960 0
DWIDTH 16 0
BBX 16 16 0 -2
BITMAP
0000
0000
0000
0000
0000
07f0
0220
0220
0220
0220
0220
0420
0420
1ff8
1008
1008
ENDCHAR
STARTCHAR 2365
ENCODING 10070
SWIDTH 960 0
DWIDTH 16 0
BBX 16 16 0 -2
BITMAP
0000
0000
0000
0000
0000
0380
0440
0820
0820
0fe0
0800
0800
0420
03c0
0000
0000
ENDCHAR
STARTCHAR 2365
ENCODING 10071
SWIDTH 960 0
DWIDTH 16 0
BBX 16 16 0 -2
BITMAP
0000
0000
0440
0440
0000
0380
0440
0820
0820
0fe0
0800
0800
0420
03c0
0000
0000
ENDCHAR
STARTCHAR 2758
ENCODING 10072
SWIDTH 960 0
DWIDTH 16 0
BBX 16 16 0 -2
BITMAP
0000
0000
0000
0000
0000
3398
1110
0920
07c0
0540
0920
0920
1110
2388
0000
0000
ENDCHAR
STARTCHAR 2759
ENCODING 10073
SWIDTH 960 0
DWIDTH 16 0
BBX 16 16 0 -2
BITMAP
0000
0000
0000
0000
0000
07c0
0c20
0020
0040
03c0
0020
0020
0c20
07c0
0000
0000
ENDCHAR
STARTCHAR 275a
ENCODING 10074
SWIDTH 960 0
DWIDTH 16 0
BBX 16 16 0 -2
BITMAP
0000
0000
0000
0000
0000
1c38
0810
0830
0850
0890
0b10
0c10
0810
1c38
0000
0000
ENDCHAR
STARTCHAR 275a
ENCODING 10075
SWIDTH 960 0
DWIDTH 16 0
BBX 16 16 0 -2
BITMAP
0000
0000
0660
0420
03c0
1c38
0810
0830
0850
0890
0b10
0c10
0810
1c38
0000
0000
ENDCHAR
STARTCHAR 275c
ENCODING 10076
SWIDTH 960 0
DWIDTH 16 0
BBX 16 16 0 -2
BITMAP
0000
0000
0000
0000
0000
0e30
0450
0480
0500
0700
0480
0440
0420
0e38
0000
0000
ENDCHAR
STARTCHAR 275d
ENCODING 10077
SWIDTH 960 0
DWIDTH 16 0
BBX 16 16 0 -2
BITMAP
0000
0000
0000
0000
0000
07f0
0220
0220
0220
0220
0220
2220
2420
1870
0000
0000
ENDCHAR
STARTCHAR 275e
ENCODING 10078
SWIDTH 960 0
DWIDTH 16 0
BBX 16 16 0 -2
BITMAP
0000
0000
0000
0000
0000
3838
1830
1450
1450
1290
1290
1110
1110
3838
0000
0000
ENDCHAR
STARTCHAR 275f
ENCODING 10079
SWIDTH 960 0
DWIDTH 16 0
BBX 16 16 0 -2
BITMAP
0000
0000
0000
0000
0000
1c70
0820
0820
0820
0fe0
0820
0820
0820
1c70
0000
0000
ENDCHAR
STARTCHAR 236f
ENCODING 10080
SWIDTH 960 0
DWIDTH 16 0
BBX 16 16 0 -2
BITMAP
0000
0000
0000
0000
0000
03c0
0420
0810
0810
0810
0810
0810
0420
03c0
0000
0000
ENDCHAR
STARTCHAR 2761
ENCODING 10081
SWIDTH 960 0
DWIDTH 16 0
BBX 16 16 0 -2
BITMAP
0000
0000
0000
0000
0000
1ff0
0820
0820
0820
0820
0820
0820
0820
1c70
0000
0000
ENDCHAR
STARTCHAR 2370
ENCODING 10082
SWIDTH 960 0
DWIDTH 16 0
BBX 16 16 0 -2
BITMAP
0000
0000
0000
0000
0000
0dc0
0620
0410
0410
0410
0410
0620
05c0
0400
0400
0e00
ENDCHAR
STARTCHAR 2363
ENCODING 10083
SWIDTH 960 0
DWIDTH 16 0
BBX 16 16 0 -2
BITMAP
0000
0000
0000
0000
0000
0380
0440
0820
0800
0800
0800
0820
0440
0380
0000
0000
ENDCHAR
STARTCHAR 2764
ENCODING 10084
SWIDTH 960 0
DWIDTH 16 0
BBX 16 16 0 -2
BITMAP
0000
0000
0000
0000
0000
1ff0
1110
1110
0100
0100
0100
0100
0100
0380
0000
0000
ENDCHAR
STARTCHAR 2765
ENCODING 10085
SWIDTH 960 0
DWIDTH 16 0
BBX 16 16 0 -2
BITMAP
0000
0000
0000
0000
0000
1c70
0820
0820
0440
0440
0280
0280
0100
0200
1200
0c00
ENDCHAR
STARTCHAR 2766
ENCODING 10086
SWIDTH 960 0
DWIDTH 16 0
BBX 16 16 0 -2
BITMAP
0000
0300
0100
0100
0100
0100
0d60
1390
2108
2108
2108
2108
1390
0d60
0100
0380
ENDCHAR
STARTCHAR 2767
ENCODING 10087
SWIDTH 960 0
DWIDTH 16 0
BBX 16 16 0 -2
BITMAP
0000
0000
0000
0000
0000
1c70
0820
0440
0280
0100
0280
0440
0820
1c70
0000
0000
ENDCHAR
STARTCHAR 2768
ENCODING 10088
SWIDTH 960 0
DWIDTH 16 0
BBX 16 16 0 -2
BITMAP
0000
0000
0000
0000
0000
1c70
0820
0820
0820
0820
0820
0820
0820
1ff8
0008
0008
ENDCHAR
STARTCHAR 2769
ENCODING 10089
SWIDTH 960 0
DWIDTH 16 0
BBX 16 16 0 -2
BITMAP
0000
0000
0000
0000
0000
1c70
0820
0820
0820
0820
07e0
0020
0020
0070
0000
0000
ENDCHAR
STARTCHAR 276a
ENCODING 10090
SWIDTH 960 0
DWIDTH 16 0
BBX 16 16 0 -2
BITMAP
0000
0000
0000
0000
0000
739c
2108
2108
2108
2108
2108
2108
2108
7ffc
0000
0000
ENDCHAR
STARTCHAR 276a
ENCODING 10091
SWIDTH 960 0
DWIDTH 16 0
BBX 16 16 0 -2
BITMAP
0000
0000
0000
0000
0000
739c
2108
2108
2108
2108
2108
2108
2108
7ffe
0002
0002
ENDCHAR
STARTCHAR 276c
ENCODING 10092
SWIDTH 960 0
DWIDTH 16 0
BBX 16 16 0 -2
BITMAP
0000
0000
0000
0000
0000
3f00
2200
2200
0200
03e0
0218
0208
0218
07e0
0000
0000
ENDCHAR
STARTCHAR 276d
ENCODING 10093
SWIDTH 960 0
DWIDTH 16 0
BBX 16 16 0 -2
BITMAP
0000
0000
0000
0000
0000
3838
1010
1010
1010
1e10
1190
1090
1190
3e38
0000
0000
ENDCHAR
STARTCHAR 276c
ENCODING 10094
SWIDTH 960 0
DWIDTH 16 0
BBX 16 16 0 -2
BITMAP
0000
0000
0000
0000
0000
0e00
0400
0400
0400
07c0
0430
0410
0430
0fc0
0000
0000
ENDCHAR
STARTCHAR 276f
ENCODING 10095
SWIDTH 960 0
DWIDTH 16 0
BBX 16 16 0 -2
BITMAP
0000
0000
0000
0000
0000
03c0
0420
0810
0330
04d0
0010
0810
0420
03c0
0000
0000
ENDCHAR
STARTCHAR 2770
ENCODING 10096
SWIDTH 960 0
DWIDTH 16 0
BBX 16 16 0 -2
BITMAP
0000
0000
0000
0000
0000
38e0
1110
1208
1208
1e08
1208
1208
1110
38e0
0000
0000
ENDCHAR
STARTCHAR 2771
ENCODING 10097
SWIDTH 960 0
DWIDTH 16 0
BBX 16 16 0 -2
BITMAP
0000
0000
0000
0000
0000
07f0
0820
0820
0820
07e0
0220
0420
0420
1870
0000
0000
ENDCHAR
STARTCHAR 2821
ENCODING 10273
SWIDTH 960 0
DWIDTH 16 0
BBX 16 16 0 -2
BITMAP
0000
0000
0000
0000
0000
0000
0000
ffff
0000
0000
0000
0000
0000
0000
0000
0000
ENDCHAR
STARTCHAR 2822
ENCODING 10274
SWIDTH 960 0
DWIDTH 16 0
BBX 16 16 0 -2
BITMAP
0100
0100
0100
0100
0100
0100
0100
0100
0100
0100
0100
0100
0100
0100
0100
0100
ENDCHAR
STARTCHAR 2823
ENCODING 10275
SWIDTH 960 0
DWIDTH 16 0
BBX 16 16 0 -2
BITMAP
0000
0000
0000
0000
0000
0000
0000
01ff
0100
0100
0100
0100
0100
0100
0100
0100
ENDCHAR
STARTCHAR 2824
ENCODING 10276
SWIDTH 960 0
DWIDTH 16 0
BBX 16 16 0 -2
BITMAP
0000
0000
0000
0000
0000
0000
0000
ff00
0100
0100
0100
0100
0100
0100
0100
0100
ENDCHAR
STARTCHAR 2825
ENCODING 10277
SWIDTH 960 0
DWIDTH 16 0
BBX 16 16 0 -2
BITMAP
0100
0100
0100
0100
0100
0100
0100
ff00
0000
0000
0000
0000
0000
0000
0000
0000
ENDCHAR
STARTCHAR 2826
ENCODING 10278
SWIDTH 960 0
DWIDTH 16 0
BBX 16 16 0 -2
BITMAP
0100
0100
0100
0100
0100
0100
0100
01ff
0000
0000
0000
0000
0000
0000
0000
0000
ENDCHAR
STARTCHAR 2827
ENCODING 10279
SWIDTH 960 0
DWIDTH 16 0
BBX 16 16 0 -2
BITMAP
0100
0100
0100
0100
0100
0100
0100
01ff
0100
0100
0100
0100
0100
0100
0100
0100
ENDCHAR
STARTCHAR 2828
ENCODING 10280
SWIDTH 960 0
DWIDTH 16 0
BBX 16 16 0 -2
BITMAP
0000
0000
0000
0000
0000
0000
0000
ffff
0100
0100
0100
0100
0100
0100
0100
0100
ENDCHAR
STARTCHAR 2829
ENCODING 10281
SWIDTH 960 0
DWIDTH 16 0
BBX 16 16 0 -2
BITMAP
0100
0100
0100
0100
0100
0100
0100
ff00
0100
0100
0100
0100
0100
0100
0100
0100
ENDCHAR
STARTCHAR 282a
ENCODING 10282
SWIDTH 960 0
DWIDTH 16 0
BBX 16 16 0 -2
BITMAP
0100
0100
0100
0100
0100
0100
0100
ffff
0000
0000
0000
0000
0000
0000
0000
0000
ENDCHAR
STARTCHAR 282b
ENCODING 10283
SWIDTH 960 0
DWIDTH 16 0
BBX 16 16 0 -2
BITMAP
0100
0100
0100
0100
0100
0100
0100
ffff
0100
0100
0100
0100
0100
0100
0100
0100
ENDCHAR
STARTCHAR 282c
ENCODING 10284
SWIDTH 960 0
DWIDTH 16 0
BBX 16 16 0 -2
BITMAP
0000
0000
0000
0000
0000
0000
0000
ffff
ffff
0000
0000
0000
0000
0000
0000
0000
ENDCHAR
STARTCHAR 282d
ENCODING 10285
SWIDTH 960 0
DWIDTH 16 0
BBX 16 16 0 -2
BITMAP
0180
0180
0180
0180
0180
0180
0180
0180
0180
0180
0180
0180
0180
0180
0180
0180
ENDCHAR
STARTCHAR 282e
ENCODING 10286
SWIDTH 960 0
DWIDTH 16 0
BBX 16 16 0 -2
BITMAP
0000
0000
0000
0000
0000
0000
0000
01ff
01ff
0180
0180
0180
0180
0180
0180
0180
ENDCHAR
STARTCHAR 282f
ENCODING 10287
SWIDTH 960 0
DWIDTH 16 0
BBX 16 16 0 -2
BITMAP
0000
0000
0000
0000
0000
0000
0000
ff80
ff80
0180
0180
0180
0180
0180
0180
0180
ENDCHAR
STARTCHAR 2830
ENCODING 10288
SWIDTH 960 0
DWIDTH 16 0
BBX 16 16 0 -2
BITMAP
0180
0180
0180
0180
0180
0180
0180
ff80
ff80
0000
0000
0000
0000
0000
0000
0000
ENDCHAR
STARTCHAR 2831
ENCODING 10289
SWIDTH 960 0
DWIDTH 16 0
BBX 16 16 0 -2
BITMAP
0180
0180
0180
0180
0180
0180
0180
01ff
01ff
0000
0000
0000
0000
0000
0000
0000
ENDCHAR
STARTCHAR 2832
ENCODING 10290
SWIDTH 960 0
DWIDTH 16 0
BBX 16 16 0 -2
BITMAP
0180
0180
0180
0180
0180
0180
0180
01ff
01ff
0180
0180
0180
0180
0180
0180
0180
ENDCHAR
STARTCHAR 2833
ENCODING 10291
SWIDTH 960 0
DWIDTH 16 0
BBX 16 16 0 -2
BITMAP
0000
0000
0000
0000
0000
0000
0000
ffff
ffff
0180
0180
0180
0180
0180
0180
0180
ENDCHAR
STARTCHAR 2834
ENCODING 10292
SWIDTH 960 0
DWIDTH 16 0
BBX 16 16 0 -2
BITMAP
0180
0180
0180
0180
0180
0180
0180
ff80
ff80
0180
0180
0180
0180
0180
0180
0180
ENDCHAR
STARTCHAR 2835
ENCODING 10293
SWIDTH 960 0
DWIDTH 16 0
BBX 16 16 0 -2
BITMAP
0180
0180
0180
0180
0180
0180
0180
ffff
ffff
0000
0000
0000
0000
0000
0000
0000
ENDCHAR
STARTCHAR 2836
ENCODING 10294
SWIDTH 960 0
DWIDTH 16 0
BBX 16 16 0 -2
BITMAP
0180
0180
0180
0180
0180
0180
0180
ffff
ffff
0180
0180
0180
0180
0180
0180
0180
ENDCHAR
STARTCHAR 2837
ENCODING 10295
SWIDTH 960 0
DWIDTH 16 0
BBX 16 16 0 -2
BITMAP
0180
0180
0180
0180
0180
0180
0180
01ff
0180
0180
0180
0180
0180
0180
0180
0180
ENDCHAR
STARTCHAR 2838
ENCODING 10296
SWIDTH 960 0
DWIDTH 16 0
BBX 16 16 0 -2
BITMAP
0000
0000
0000
0000
0000
0000
0000
ffff
ffff
0100
0100
0100
0100
0100
0100
0100
ENDCHAR
STARTCHAR 2839
ENCODING 10297
SWIDTH 960 0
DWIDTH 16 0
BBX 16 16 0 -2
BITMAP
0180
0180
0180
0180
0180
0180
0180
ff80
0180
0180
0180
0180
0180
0180
0180
0180
ENDCHAR
STARTCHAR 283a
ENCODING 10298
SWIDTH 960 0
DWIDTH 16 0
BBX 16 16 0 -2
BITMAP
0100
0100
0100
0100
0100
0100
0100
ffff
ffff
0000
0000
0000
0000
0000
0000
0000
ENDCHAR
STARTCHAR 283b
ENCODING 10299
SWIDTH 960 0
DWIDTH 16 0
BBX 16 16 0 -2
BITMAP
0100
0100
0100
0100
0100
0100
0100
ffff
ffff
0100
0100
0100
0100
0100
0100
0100
ENDCHAR
STARTCHAR 283c
ENCODING 10300
SWIDTH 960 0
DWIDTH 16 0
BBX 16 16 0 -2
BITMAP
0100
0100
0100
0100
0100
0100
0100
01ff
01ff
0100
0100
0100
0100
0100
0100
0100
ENDCHAR
STARTCHAR 283d
ENCODING 10301
SWIDTH 960 0
DWIDTH 16 0
BBX 16 16 0 -2
BITMAP
0000
0000
0000
0000
0000
0000
0000
ffff
0180
0180
0180
0180
0180
0180
0180
0180
ENDCHAR
STARTCHAR 283e
ENCODING 10302
SWIDTH 960 0
DWIDTH 16 0
BBX 16 16 0 -2
BITMAP
0100
0100
0100
0100
0100
0100
0100
ff00
ff00
0100
0100
0100
0100
0100
0100
0100
ENDCHAR
STARTCHAR 283f
ENCODING 10303
SWIDTH 960 0
DWIDTH 16 0
BBX 16 16 0 -2
BITMAP
0180
0180
0180
0180
0180
0180
0180
ffff
0000
0000
0000
0000
0000
0000
0000
0000
ENDCHAR
STARTCHAR 2840
ENCODING 10304
SWIDTH 960 0
DWIDTH 16 0
BBX 16 16 0 -2
BITMAP
0180
0180
0180
0180
0180
0180
0180
ffff
0180
0180
0180
0180
0180
0180
0180
0180
ENDCHAR
STARTCHAR 3021
ENCODING 12321
SWIDTH 960 0
DWIDTH 16 0
BBX 16 16 0 -2
BITMAP
0000
7ffe
0440
0440
0440
3ff8
2448
2448
2448
2448
3ff8
0440
0440
0440
fffe
0000
ENDCHAR
STARTCHAR 3022
ENCODING 12322
SWIDTH 960 0
DWIDTH 16 0
BBX 16 16 0 -2
BITMAP
0000
0ffe
f090
9090
9090
97fc
9494
9494
9494
97fc
9090
f090
9090
0090
0ffe
0000
ENDCHAR
STARTCHAR 3023
ENCODING 12323
SWIDTH 960 0
DWIDTH 16 0
BBX 16 16 0 -2
BITMAP
1020
1020
1020
11fc
fe20
2420
2420
27fe
4420
f820
89fc
0c20
1420
2020
c3fe
0000
ENDCHAR
STARTCHAR 3024
ENCODING 12324
SWIDTH 960 0
DWIDTH 16 0
BBX 16 16 0 -2
BITMAP
0000
7ffe
4808
4808
53c8
6248
5248
4a48
4a48
4a48
4bc8
4a48
7008
4008
4018
4008
ENDCHAR
STARTCHAR 3025
ENCODING 12325
SWIDTH 960 0
DWIDTH 16 0
BBX 16 16 0 -2
BITMAP
0100
0100
fffe
0000
1ff0
1010
1010
1010
1ff4
0304
1d08
e490
0460
0720
1c18
6006
ENDCHAR
STARTCHAR 3026
ENCODING 12326
SWIDTH 960 0
DWIDTH 16 0
BBX 16 16 0 -2
BITMAP
003c
1fc8
1108
0890
7ffe
4482
5448
1414
23f2
4202
07e0
0c20
3340
0180
0670
780e
ENDCHAR
STARTCHAR 3027
ENCODING 12327
SWIDTH 960 0
DWIDTH 16 0
BBX 16 16 0 -2
BITMAP
2080
20a0
2090
f908
27f4
2104
2100
23fc
2a40
3440
e7fe
20a0
20a0
2110
2208
6c04
ENDCHAR
STARTCHAR 3028
ENCODING 12328
SWIDTH 960 0
DWIDTH 16 0
BBX 16 16 0 -2
BITMAP
1020
1020
1050
1050
fc88
2504
2602
24f8
4400
4800
f9fc
8d04
1504
2104
c1fc
0104
ENDCHAR
STARTCHAR 3029
ENCODING 12329
SWIDTH 960 0
DWIDTH 16 0
BBX 16 16 0 -2
BITMAP
0100
41f8
2210
2d20
00c0
01b0
0e0e
f040
17f8
1040
13f8
1040
1ffc
2840
4640
81fe
ENDCHAR
STARTCHAR 302a
ENCODING 12330
SWIDTH 960 0
DWIDTH 16 0
BBX 16 16 0 -2
BITMAP
0440
0440
fffe
0440
1e90
42a4
2448
1830
2ff8
c106
0100
7ffc
0280
0440
1830
600c
ENDCHAR
STARTCHAR 302b
ENCODING 12331
SWIDTH 960 0
DWIDTH 16 0
BBX 16 16 0 -2
BITMAP
0420
0420
7ffe
0420
0000
7ffe
0240
0240
3ffc
2244
2244
243c
2804
3004
3ffc
2004
ENDCHAR
STARTCHAR 302c
ENCODING 12332
SWIDTH 960 0
DWIDTH 16 0
BBX 16 16 0 -2
BITMAP
0480
18f0
7120
13f8
1548
11f8
ff48
19f8
3440
33fc
5244
53fc
9244
13fc
1042
103e
ENDCHAR
STARTCHAR 302d
ENCODING 12333
SWIDTH 960 0
DWIDTH 16 0
BBX 16 16 0 -2
BITMAP
0000
3ffe
0240
0240
1ff8
1248
1248
1ff8
0240
7ffe
0080
1248
1244
2212
4212
01f0
ENDCHAR
STARTCHAR 302e
ENCODING 12334
SWIDTH 960 0
DWIDTH 16 0
BBX 16 16 0 -2
BITMAP
2000
27fc
2404
2404
fffc
2400
27fc
2450
2c88
37f4
e444
2bf8
2840
3040
2ffe
6000
ENDCHAR
STARTCHAR 302f
ENCODING 12335
SWIDTH 960 0
DWIDTH 16 0
BBX 16 16 0 -2
BITMAP
2000
27fc
1404
9404
87fc
4400
47fc
0450
1488
17f4
2444
2bf8
4840
5040
affe
8000
ENDCHAR
STARTCHAR 3030
ENCODING 12336
SWIDTH 960 0
DWIDTH 16 0
BBX 16 16 0 -2
BITMAP
1000
10f8
1088
1088
fe88
1288
12f8
1288
1288
1288
1288
12f8
2288
2202
4102
80fe
ENDCHAR
STARTCHAR 3031
ENCODING 12337
SWIDTH 960 0
DWIDTH 16 0
BBX 16 16 0 -2
BITMAP
0420
fffe
0420
0200
1ff0
0410
fffe
0000
0ff0
0810
0ff0
0080
1ff8
1080
fffe
0080
ENDCHAR
STARTCHAR 3032
ENCODING 12338
SWIDTH 960 0
DWIDTH 16 0
BBX 16 16 0 -2
BITMAP
0420
0420
fffe
0420
0000
7ffc
0000
1ff8
1008
1008
1ff8
1008
2000
2000
4000
8000
ENDCHAR
STARTCHAR 3033
ENCODING 12339
SWIDTH 960 0
DWIDTH 16 0
BBX 16 16 0 -2
BITMAP
1020
1c30
2448
49f4
fe20
53fe
5250
7e98
5326
52c8
7e10
0a64
6588
5410
5060
8180
ENDCHAR
STARTCHAR 3034
ENCODING 12340
SWIDTH 960 0
DWIDTH 16 0
BBX 16 16 0 -2
BITMAP
1040
1040
13fc
fc10
1110
1090
38a0
37fe
3440
5040
5040
93fc
1040
1040
1040
1040
ENDCHAR
STARTCHAR 3035
ENCODING 12341
SWIDTH 960 0
DWIDTH 16 0
BBX 16 16 0 -2
BITMAP
0000
3ffc
2000
2080
2080
2080
2080
2ffc
2080
2080
2080
4080
4080
bffe
0000
0000
ENDCHAR
STARTCHAR 3036
ENCODING 12342
SWIDTH 960 0
DWIDTH 16 0
BBX 16 16 0 -2
BITMAP
1020
1020
fe50
1050
7c88
4594
4652
7c50
4510
4490
7c90
101e
fe70
1390
1010
1010
ENDCHAR
STARTCHAR 3037
ENCODING 12343
SWIDTH 960 0
DWIDTH 16 0
BBX 16 16 0 -2
BITMAP
2000
27f0
2110
2110
fd20
2120
2178
2188
2288
3a48
e250
2220
2430
2448
6984
3602
ENDCHAR
STARTCHAR 3038
ENCODING 12344
SWIDTH 960 0
DWIDTH 16 0
BBX 16 16 0 -2
BITMAP
0080
0080
3ffe
2804
2800
4800
0f7c
1144
1244
2a44
4644
0458
0440
0842
1042
603e
ENDCHAR
STARTCHAR 3039
ENCODING 12345
SWIDTH 960 0
DWIDTH 16 0
BBX 16 16 0 -2
BITMAP
1000
11f8
1108
1108
ff08
25f8
2508
2508
4508
4908
f9f8
0d08
1508
2108
cffe
0000
ENDCHAR
STARTCHAR 303a
ENCODING 12346
SWIDTH 960 0
DWIDTH 16 0
BBX 16 16 0 -2
BITMAP
1010
1010
1010
7e10
53fe
5240
5240
5240
7e40
1040
1040
1440
1240
1e40
f13c
0100
ENDCHAR
STARTCHAR 303b
ENCODING 12347
SWIDTH 960 0
DWIDTH 16 0
BBX 16 16 0 -2
BITMAP
0820
0820
1420
1248
2944
7e8e
23f2
3e02
2200
227c
3e44
2444
2244
2644
397c
6044
ENDCHAR
STARTCHAR 303c
ENCODING 12348
SWIDTH 960 0
DWIDTH 16 0
BBX 16 16 0 -2
BITMAP
0840
0840
0a40
727e
1682
0882
0b7a
124a
7f7a
094a
284a
2a7a
294a
2902
4804
0818
ENDCHAR
STARTCHAR 303d
ENCODING 12349
SWIDTH 960 0
DWIDTH 16 0
BBX 16 16 0 -2
BITMAP
1040
1040
17f8
e440
2ffe
10a0
14a4
251c
fe80
14f8
5910
56a0
5440
54a0
9318
1406
ENDCHAR
STARTCHAR 303e
ENCODING 12350
SWIDTH 960 0
DWIDTH 16 0
BBX 16 16 0 -2
BITMAP
1020
1c20
2420
4820
fe3e
5220
5220
7e20
5220
52fc
7e84
0484
2a84
5484
54fc
8084
ENDCHAR
STARTCHAR 303f
ENCODING 12351
SWIDTH 960 0
DWIDTH 16 0
BBX 16 16 0 -2
BITMAP
0090
0088
0088
fffe
0080
0088
3e88
2288
2250
2250
3e50
2124
0664
1894
e30c
0c04
ENDCHAR
STARTCHAR 3040
ENCODING 12352
SWIDTH 960 0
DWIDTH 16 0
BBX 16 16 0 -2
BITMAP
0000
fffe
0440
3ff8
2448
2448
3ff8
1110
0910
0520
fffe
0380
0540
1930
e10c
0100
ENDCHAR
STARTCHAR 3041
ENCODING 12353
SWIDTH 960 0
DWIDTH 16 0
BBX 16 16 0 -2
BITMAP
1020
1020
1060
fc50
0490
0888
0908
15f4
3602
5800
95f8
1308
1108
1108
11f8
1108
ENDCHAR
STARTCHAR 3042
ENCODING 12354
SWIDTH 960 0
DWIDTH 16 0
BBX 16 16 0 -2
BITMAP
0100
0100
3ffe
2204
4200
0200
0200
7ffe
0440
0440
0840
0e40
0180
0260
0c10
3008
ENDCHAR
STARTCHAR 3043
ENCODING 12355
SWIDTH 960 0
DWIDTH 16 0
BBX 16 16 0 -2
BITMAP
0100
0100
3ffc
2080
3ffc
2140
2220
27f8
3c96
2490
27f0
2490
4490
47f4
8484
007c
ENDCHAR
STARTCHAR 3044
ENCODING 12356
SWIDTH 960 0
DWIDTH 16 0
BBX 16 16 0 -2
BITMAP
2080
2080
27fc
2408
f880
2080
2080
27fe
3910
e110
2220
27a0
2040
20a0
6310
2c08
ENDCHAR
STARTCHAR 3045
ENCODING 12357
SWIDTH 960 0
DWIDTH 16 0
BBX 16 16 0 -2
BITMAP
0040
0040
fffc
8910
8890
88a0
8ffe
f800
89f8
8908
8908
89f8
f908
8908
01f8
0108
ENDCHAR
STARTCHAR 3046
ENCODING 12358
SWIDTH 960 0
DWIDTH 16 0
BBX 16 16 0 -2
BITMAP
0100
0100
7ffc
4208
bff0
0440
1c40
0380
0c70
3108
fffe
0380
0540
1930
e10c
0100
ENDCHAR
STARTCHAR 3047
ENCODING 12359
SWIDTH 960 0
DWIDTH 16 0
BBX 16 16 0 -2
BITMAP
0000
7e7e
4242
7e7e
4242
4242
7e7e
4102
4ff2
4242
5ffa
4422
47e2
4422
47e2
4006
ENDCHAR
STARTCHAR 3048
ENCODING 12360
SWIDTH 960 0
DWIDTH 16 0
BBX 16 16 0 -2
BITMAP
2420
2420
fffe
2484
2540
3c40
1040
7ffe
5248
5248
7e88
10d0
ff30
1048
1084
1304
ENDCHAR
STARTCHAR 3049
ENCODING 12361
SWIDTH 960 0
DWIDTH 16 0
BBX 16 16 0 -2
BITMAP
0100
0100
0100
fffe
0380
0540
0920
3118
c106
1ff0
1010
1010
1010
1010
1ff0
1010
ENDCHAR
STARTCHAR 304a
ENCODING 12362
SWIDTH 960 0
DWIDTH 16 0
BBX 16 16 0 -2
BITMAP
0000
2010
2010
2010
2410
2210
2110
2110
2010
2010
2030
2228
2c44
3084
c102
0602
ENDCHAR
STARTCHAR 304b
ENCODING 12363
SWIDTH 960 0
DWIDTH 16 0
BBX 16 16 0 -2
BITMAP
0800
0bf8
0848
1048
1048
3ffe
3048
5048
9048
13f8
1048
1040
1080
1080
1100
1200
ENDCHAR
STARTCHAR 304c
ENCODING 12364
SWIDTH 960 0
DWIDTH 16 0
BBX 16 16 0 -2
BITMAP
0840
0840
0840
1040
17fc
3008
3008
5208
9110
1110
1110
1120
1120
1040
1ffe
1000
ENDCHAR
STARTCHAR 304d
ENCODING 12365
SWIDTH 960 0
DWIDTH 16 0
BBX 16 16 0 -2
BITMAP
0840
0840
0840
1ffe
1180
2144
2144
6248
a648
2a30
3220
2210
2210
22c8
2304
2c02
ENDCHAR
STARTCHAR 304e
ENCODING 12366
SWIDTH 960 0
DWIDTH 16 0
BBX 16 16 0 -2
BITMAP
0840
0bf8
0888
1088
1ffe
2000
23f8
6208
a3f8
2020
23fc
2220
2220
2ffe
2020
2020
ENDCHAR
STARTCHAR 304f
ENCODING 12367
SWIDTH 960 0
DWIDTH 16 0
BBX 16 16 0 -2
BITMAP
0000
7ffc
4004
4444
4444
5ff4
4444
4444
4444
7ffc
4444
4444
4844
5044
7ffc
4004
ENDCHAR
STARTCHAR 3050
ENCODING 12368
SWIDTH 960 0
DWIDTH 16 0
BBX 16 16 0 -2
BITMAP
0100
0100
fffe
0100
7ff8
0108
3ff8
2100
2100
3ffc
2284
0284
0458
0820
3018
c006
ENDCHAR
STARTCHAR 3051
ENCODING 12369
SWIDTH 960 0
DWIDTH 16 0
BBX 16 16 0 -2
BITMAP
0030
3fc0
0100
fffe
0380
0540
1930
e10e
0200
fffe
0420
0420
0f40
1080
0360
7c18
ENDCHAR
STARTCHAR 3052
ENCODING 12370
SWIDTH 960 0
DWIDTH 16 0
BBX 16 16 0 -2
BITMAP
0050
0048
0048
3ffe
2040
3f40
2444
2444
3fa8
2928
2930
3e10
2334
454c
5884
8104
ENDCHAR
STARTCHAR 3053
ENCODING 12371
SWIDTH 960 0
DWIDTH 16 0
BBX 16 16 0 -2
BITMAP
0008
7f08
4108
4108
7f08
40fe
5e08
4008
4048
7f28
4428
5608
5508
5508
a408
0c18
ENDCHAR
STARTCHAR 3054
ENCODING 12372
SWIDTH 960 0
DWIDTH 16 0
BBX 16 16 0 -2
BITMAP
1080
1090
1090
1120
19fc
5520
5720
51fc
9120
1120
11fc
1120
1120
1120
11fe
1100
ENDCHAR
STARTCHAR 3055
ENCODING 12373
SWIDTH 960 0
DWIDTH 16 0
BBX 16 16 0 -2
BITMAP
0100
7ffc
0820
0440
fffe
0000
0ff0
0810
0ff0
0810
0ff0
2500
2484
4492
8412
03f0
ENDCHAR
STARTCHAR 3056
ENCODING 12374
SWIDTH 960 0
DWIDTH 16 0
BBX 16 16 0 -2
BITMAP
0008
7f08
4108
7f08
40fe
5e08
4048
7f28
4428
5508
ad08
0a18
2900
2924
4822
87e2
ENDCHAR
STARTCHAR 3057
ENCODING 12375
SWIDTH 960 0
DWIDTH 16 0
BBX 16 16 0 -2
BITMAP
0000
1fe0
1020
1020
1fe0
1020
1020
1fe0
0400
0ff8
3128
c228
0c48
3088
0310
0060
ENDCHAR
STARTCHAR 3058
ENCODING 12376
SWIDTH 960 0
DWIDTH 16 0
BBX 16 16 0 -2
BITMAP
1040
1040
13fc
fc40
10a0
1090
3908
37fe
3408
53c8
5248
9248
13c8
1248
1008
1018
ENDCHAR
STARTCHAR 3059
ENCODING 12377
SWIDTH 960 0
DWIDTH 16 0
BBX 16 16 0 -2
BITMAP
2100
1100
1100
7ff0
0210
0220
07f8
0408
0808
1ffe
1002
2922
6492
9252
1242
100c
ENDCHAR
STARTCHAR 305a
ENCODING 12378
SWIDTH 960 0
DWIDTH 16 0
BBX 16 16 0 -2
BITMAP
0000
3ff0
2110
2110
3ff0
2110
2110
3ff0
0000
fffe
1208
1110
10a0
1640
1830
600e
ENDCHAR
STARTCHAR 305b
ENCODING 12379
SWIDTH 960 0
DWIDTH 16 0
BBX 16 16 0 -2
BITMAP
0000
3ff8
2108
2108
3ff8
2108
2108
3ff8
0440
3ff8
0440
0440
fffe
0460
1818
6004
ENDCHAR
STARTCHAR 305c
ENCODING 12380
SWIDTH 960 0
DWIDTH 16 0
BBX 16 16 0 -2
BITMAP
0240
0c7c
7088
1108
12d0
fc20
1040
1190
381e
3422
5244
51b4
9008
1010
1060
1380
ENDCHAR
STARTCHAR 305d
ENCODING 12381
SWIDTH 960 0
DWIDTH 16 0
BBX 16 16 0 -2
BITMAP
1040
1048
1448
e490
28fe
1190
1690
24fc
fe90
1290
58fc
5490
5290
5290
90fe
1080
ENDCHAR
STARTCHAR 305e
ENCODING 12382
SWIDTH 960 0
DWIDTH 16 0
BBX 16 16 0 -2
BITMAP
1020
11f8
1448
e448
2ffe
1000
14fc
2484
fefc
1210
58fc
5490
5490
53fe
9010
1010
ENDCHAR
STARTCHAR 305f
ENCODING 12383
SWIDTH 960 0
DWIDTH 16 0
BBX 16 16 0 -2
BITMAP
0000
7ff8
4208
4208
7ff8
4208
7ff8
0000
3ff0
2010
3ff0
2010
3ff0
2010
2010
2030
ENDCHAR
STARTCHAR 3060
ENCODING 12384
SWIDTH 960 0
DWIDTH 16 0
BBX 16 16 0 -2
BITMAP
0420
fffe
0420
0070
3f80
0100
fffe
0540
1930
610c
fffe
0440
0840
3f80
0660
7818
ENDCHAR
STARTCHAR 3061
ENCODING 12385
SWIDTH 960 0
DWIDTH 16 0
BBX 16 16 0 -2
BITMAP
0100
0100
0100
0100
fffe
0300
0508
0488
0890
3860
c840
0820
0810
0b88
1c04
6002
ENDCHAR
STARTCHAR 3062
ENCODING 12386
SWIDTH 960 0
DWIDTH 16 0
BBX 16 16 0 -2
BITMAP
0000
7dfc
0124
fffc
0124
7d24
01fc
0000
7cfc
0084
7cfc
4484
44fc
4484
7c84
448c
ENDCHAR
STARTCHAR 3063
ENCODING 12387
SWIDTH 960 0
DWIDTH 16 0
BBX 16 16 0 -2
BITMAP
0040
47f8
2088
2088
0ffe
0000
03f8
f208
13f8
1020
13fc
1220
1ffe
2820
4620
81fe
ENDCHAR
STARTCHAR 3064
ENCODING 12388
SWIDTH 960 0
DWIDTH 16 0
BBX 16 16 0 -2
BITMAP
0040
43f0
2250
23f0
0040
0ffc
0000
f3f0
1210
13f0
1210
13f0
1a10
2bf0
4608
81fe
ENDCHAR
STARTCHAR 3065
ENCODING 12389
SWIDTH 960 0
DWIDTH 16 0
BBX 16 16 0 -2
BITMAP
0000
7ffc
4200
4200
47f8
4880
5080
7ffc
4140
4120
4210
4408
4808
5000
7ffc
4000
ENDCHAR
STARTCHAR 3066
ENCODING 12390
SWIDTH 960 0
DWIDTH 16 0
BBX 16 16 0 -2
BITMAP
0840
0840
0840
0840
7ff8
0840
0840
0840
0840
fffc
0840
0840
0840
1040
1040
2040
ENDCHAR
STARTCHAR 3067
ENCODING 12391
SWIDTH 960 0
DWIDTH 16 0
BBX 16 16 0 -2
BITMAP
0100
0100
0100
fffe
0200
0220
3440
0880
0510
0220
0c40
30c0
0120
0610
1808
e008
ENDCHAR
STARTCHAR 3068
ENCODING 12392
SWIDTH 960 0
DWIDTH 16 0
BBX 16 16 0 -2
BITMAP
2020
2028
2024
27fe
2020
ffa4
24a4
24a4
24a8
2798
2498
2c50
319a
c62a
1846
0082
ENDCHAR
STARTCHAR 3069
ENCODING 12393
SWIDTH 960 0
DWIDTH 16 0
BBX 16 16 0 -2
BITMAP
0100
0100
fffe
0440
0830
1fc8
e004
1ff0
1010
1010
1ff0
1010
1ff0
1010
1030
1010
ENDCHAR
STARTCHAR 306a
ENCODING 12394
SWIDTH 960 0
DWIDTH 16 0
BBX 16 16 0 -2
BITMAP
0800
083c
ffe4
0824
1028
1f30
3128
3124
5f22
9122
1122
1f32
112c
1120
1320
1120
ENDCHAR
STARTCHAR 306b
ENCODING 12395
SWIDTH 960 0
DWIDTH 16 0
BBX 16 16 0 -2
BITMAP
0148
fd48
26f0
2148
2154
22fa
4fc8
7844
4ffe
c928
4928
4990
7a52
4a2a
4446
1882
ENDCHAR
STARTCHAR 306c
ENCODING 12396
SWIDTH 960 0
DWIDTH 16 0
BBX 16 16 0 -2
BITMAP
0000
0000
0000
0000
0000
0000
0004
fffe
0000
0000
0000
0000
0000
0000
0000
0000
ENDCHAR
STARTCHAR 306d
ENCODING 12397
SWIDTH 960 0
DWIDTH 16 0
BBX 16 16 0 -2
BITMAP
0100
0100
7ffe
0100
0100
1ff8
0000
3ffe
2004
4820
08c0
0f00
0800
0808
0408
03f8
ENDCHAR
STARTCHAR 306e
ENCODING 12398
SWIDTH 960 0
DWIDTH 16 0
BBX 16 16 0 -2
BITMAP
2408
1210
1210
1ffe
8120
4210
4210
0408
0804
37fa
2548
2548
4548
4548
9ffe
8000
ENDCHAR
STARTCHAR 306f
ENCODING 12399
SWIDTH 960 0
DWIDTH 16 0
BBX 16 16 0 -2
BITMAP
0080
40f0
2110
2220
0ff8
0248
0248
f248
13f8
10a0
10a0
1122
2a22
241e
4300
80fe
ENDCHAR
STARTCHAR 3070
ENCODING 12400
SWIDTH 960 0
DWIDTH 16 0
BBX 16 16 0 -2
BITMAP
0204
0c18
38e0
0802
08a2
7f54
0854
0808
1cbe
1aa2
2aa2
28be
48a2
08a2
08be
08a2
ENDCHAR
STARTCHAR 3071
ENCODING 12401
SWIDTH 960 0
DWIDTH 16 0
BBX 16 16 0 -2
BITMAP
0420
0420
fffe
0420
0520
2100
11fc
1144
0248
0240
1460
1050
2090
4108
8604
1802
ENDCHAR
STARTCHAR 3072
ENCODING 12402
SWIDTH 960 0
DWIDTH 16 0
BBX 16 16 0 -2
BITMAP
0420
0420
fffe
0420
0420
0000
3ff8
0100
0100
fffe
0100
0100
0100
0100
0700
0100
ENDCHAR
STARTCHAR 3073
ENCODING 12403
SWIDTH 960 0
DWIDTH 16 0
BBX 16 16 0 -2
BITMAP
0800
0ffe
1222
2422
7eee
2a88
2a88
3eee
2a32
2aaa
3eaa
0266
35aa
2b32
2a22
40cc
ENDCHAR
STARTCHAR 3074
ENCODING 12404
SWIDTH 960 0
DWIDTH 16 0
BBX 16 16 0 -2
BITMAP
0200
0200
0280
0440
0430
09e8
fe84
0480
0480
0480
0880
0880
1080
1084
2044
403c
ENDCHAR
STARTCHAR 3075
ENCODING 12405
SWIDTH 960 0
DWIDTH 16 0
BBX 16 16 0 -2
BITMAP
0200
0c00
70fc
4084
4084
4084
7e84
4084
4084
4084
7e84
40b8
4080
0080
0080
0080
ENDCHAR
STARTCHAR 3076
ENCODING 12406
SWIDTH 960 0
DWIDTH 16 0
BBX 16 16 0 -2
BITMAP
0000
03fe
7a22
4a22
4a22
4a22
4bfe
4a22
4a22
4a52
4a52
7a8a
4b06
0202
03fe
0202
ENDCHAR
STARTCHAR 3077
ENCODING 12407
SWIDTH 960 0
DWIDTH 16 0
BBX 16 16 0 -2
BITMAP
0000
1ff0
1010
1010
1ff0
0000
3ff8
2008
3ff8
2008
3ff8
2008
3ff8
0460
1818
6004
ENDCHAR
STARTCHAR 3078
ENCODING 12408
SWIDTH 960 0
DWIDTH 16 0
BBX 16 16 0 -2
BITMAP
0000
7ffc
4004
4104
4104
4104
7ffc
4284
4284
4444
4444
4824
5014
4004
7ffc
4004
ENDCHAR
STARTCHAR 3079
ENCODING 12409
SWIDTH 960 0
DWIDTH 16 0
BBX 16 16 0 -2
BITMAP
0800
08fe
0882
0892
7e92
12fe
1292
1292
22aa
24aa
7caa
06c6
0a82
1082
60fe
0082
ENDCHAR
STARTCHAR 307a
ENCODING 12410
SWIDTH 960 0
DWIDTH 16 0
BBX 16 16 0 -2
BITMAP
0008
ff08
0108
0108
0108
7f08
4008
4008
4008
7f08
4108
0108
0108
0108
0208
1c08
ENDCHAR
STARTCHAR 307b
ENCODING 12411
SWIDTH 960 0
DWIDTH 16 0
BBX 16 16 0 -2
BITMAP
1040
1040
2840
3440
52fe
fca2
44a4
7d28
4620
4420
7c50
5050
4888
4c88
7504
c202
ENDCHAR
STARTCHAR 307c
ENCODING 12412
SWIDTH 960 0
DWIDTH 16 0
BBX 16 16 0 -2
BITMAP
2008
1030
17c4
8484
4248
4250
0018
03e0
1040
1040
2ffe
2040
4040
4040
87fc
8000
ENDCHAR
STARTCHAR 307d
ENCODING 12413
SWIDTH 960 0
DWIDTH 16 0
BBX 16 16 0 -2
BITMAP
2108
2108
2e48
2288
2108
2268
3fd8
2008
27c8
2448
27c8
2448
27c8
444a
444a
84c6
ENDCHAR
STARTCHAR 307e
ENCODING 12414
SWIDTH 960 0
DWIDTH 16 0
BBX 16 16 0 -2
BITMAP
0420
fffe
0420
0440
7860
4890
51e8
6606
51f0
4820
4bf8
4800
77fc
4090
4128
43c4
ENDCHAR
STARTCHAR 3121
ENCODING 12577
SWIDTH 960 0
DWIDTH 16 0
BBX 16 16 0 -2
BITMAP
0020
7820
4bfe
4a02
5202
61fc
5000
4800
4ffe
4890
4890
6890
5110
4112
4212
440e
ENDCHAR
STARTCHAR 3122
ENCODING 12578
SWIDTH 960 0
DWIDTH 16 0
BBX 16 16 0 -2
BITMAP
0040
7840
48a0
4910
52e8
6406
53f0
4820
4840
4bf8
4800
4ffe
70a0
4110
4ff8
4008
ENDCHAR
STARTCHAR 3123
ENCODING 12579
SWIDTH 960 0
DWIDTH 16 0
BBX 16 16 0 -2
BITMAP
000c
7834
4fc4
4a48
5130
63fc
5004
49fc
4804
4bfc
4820
4a94
7292
4282
444a
4038
ENDCHAR
STARTCHAR 3124
ENCODING 12580
SWIDTH 960 0
DWIDTH 16 0
BBX 16 16 0 -2
BITMAP
0800
08fc
7f84
2284
12fc
1400
7ffc
0084
3efc
2284
22fc
3e84
22fc
2248
3e84
2302
ENDCHAR
STARTCHAR 3125
ENCODING 12581
SWIDTH 960 0
DWIDTH 16 0
BBX 16 16 0 -2
BITMAP
0010
0010
f810
8810
8ffe
8810
8a10
8910
8890
8890
8810
f810
8810
8010
0030
0010
ENDCHAR
STARTCHAR 3126
ENCODING 12582
SWIDTH 960 0
DWIDTH 16 0
BBX 16 16 0 -2
BITMAP
0100
0100
0100
7ffe
0200
0200
0200
0400
07f8
0c08
1408
2408
4408
0408
07f8
0408
ENDCHAR
STARTCHAR 3127
ENCODING 12583
SWIDTH 960 0
DWIDTH 16 0
BBX 16 16 0 -2
BITMAP
0100
0100
3ffe
2004
2000
4ff0
0100
0100
0100
7ffe
0100
0100
0100
0100
0700
0100
ENDCHAR
STARTCHAR 3128
ENCODING 12584
SWIDTH 960 0
DWIDTH 16 0
BBX 16 16 0 -2
BITMAP
0100
0200
3fe0
2020
2020
2020
3fe0
2000
3ffe
2000
3ffc
0044
5224
4924
4908
8030
ENDCHAR
STARTCHAR 3129
ENCODING 12585
SWIDTH 960 0
DWIDTH 16 0
BBX 16 16 0 -2
BITMAP
0000
7efc
0204
0204
2244
1224
1224
0204
060c
0a14
3264
c384
0204
0204
0204
060c
ENDCHAR
STARTCHAR 312a
ENCODING 12586
SWIDTH 960 0
DWIDTH 16 0
BBX 16 16 0 -2
BITMAP
0000
47f8
2040
2040
0040
0040
0ffc
f040
1040
1040
1040
1040
29c0
2440
4300
80fe
ENDCHAR
STARTCHAR 312b
ENCODING 12587
SWIDTH 960 0
DWIDTH 16 0
BBX 16 16 0 -2
BITMAP
0000
fffe
0100
0100
7ffc
4104
5144
4924
4924
4104
5144
4924
4924
4104
411c
4004
ENDCHAR
STARTCHAR 312c
ENCODING 12588
SWIDTH 960 0
DWIDTH 16 0
BBX 16 16 0 -2
BITMAP
0400
1800
60f8
4488
4488
4488
4488
4488
4488
4488
7c88
c488
08b0
0880
1080
2080
ENDCHAR
STARTCHAR 312d
ENCODING 12589
SWIDTH 960 0
DWIDTH 16 0
BBX 16 16 0 -2
BITMAP
4420
2440
28f8
fe88
12f8
7e88
50f8
5080
7efe
1280
32fc
32a4
5d54
9154
1204
1018
ENDCHAR
STARTCHAR 312e
ENCODING 12590
SWIDTH 960 0
DWIDTH 16 0
BBX 16 16 0 -2
BITMAP
0200
0200
7ffc
4488
98fc
6000
11f8
7d08
11f8
1108
fff8
1108
29f8
2452
4192
860e
ENDCHAR
STARTCHAR 312f
ENCODING 12591
SWIDTH 960 0
DWIDTH 16 0
BBX 16 16 0 -2
BITMAP
0000
3fe0
0420
0420
0420
0420
0420
fffc
0820
0820
0820
0820
0820
0820
fffe
0000
ENDCHAR
STARTCHAR 3130
ENCODING 12592
SWIDTH 960 0
DWIDTH 16 0
BBX 16 16 0 -2
BITMAP
0048
fe48
1090
11fe
1110
2310
3d10
65fc
6510
a510
25fc
2510
3d10
2510
21fe
0100
ENDCHAR
STARTCHAR 3131
ENCODING 12593
SWIDTH 960 0
DWIDTH 16 0
BBX 16 16 0 -2
BITMAP
0100
0600
38f8
2008
2008
2008
2008
2008
3cf8
2008
2008
2008
2008
2008
3ff8
2008
ENDCHAR
STARTCHAR 3132
ENCODING 12594
SWIDTH 960 0
DWIDTH 16 0
BBX 16 16 0 -2
BITMAP
1000
09f8
0908
0108
0178
4148
2148
23fe
0a02
0af2
1292
1292
22f2
2292
4202
4206
ENDCHAR
STARTCHAR 3133
ENCODING 12595
SWIDTH 960 0
DWIDTH 16 0
BBX 16 16 0 -2
BITMAP
0040
007c
f040
97fe
9484
94f8
9780
9484
947c
9450
f654
8954
0958
1050
27fe
0000
ENDCHAR
STARTCHAR 3134
ENCODING 12596
SWIDTH 960 0
DWIDTH 16 0
BBX 16 16 0 -2
BITMAP
0000
00fc
7c84
4484
4484
44fc
4484
4484
44fc
4484
4484
7c84
44fc
0048
0184
0602
ENDCHAR
STARTCHAR 3135
ENCODING 12597
SWIDTH 960 0
DWIDTH 16 0
BBX 16 16 0 -2
BITMAP
2490
fb7e
2498
7334
acd2
7ff8
4888
7ff8
3c10
25fe
3c10
2510
3c90
2810
3410
c230
ENDCHAR
STARTCHAR 3136
ENCODING 12598
SWIDTH 960 0
DWIDTH 16 0
BBX 16 16 0 -2
BITMAP
0840
0840
fffe
0840
0008
7f08
4108
7ffe
4008
5e88
4048
7f48
5608
5508
a518
0c08
ENDCHAR
STARTCHAR 3137
ENCODING 12599
SWIDTH 960 0
DWIDTH 16 0
BBX 16 16 0 -2
BITMAP
1000
1cf8
2488
48f8
fe88
52f8
5200
7ffc
5354
53fc
7e00
0bf8
6490
5460
50d8
8306
ENDCHAR
STARTCHAR 3138
ENCODING 12600
SWIDTH 960 0
DWIDTH 16 0
BBX 16 16 0 -2
BITMAP
1040
1048
13f8
1050
fc50
2460
27fe
2440
4480
4988
fab0
8cc0
1480
2084
c084
007c
ENDCHAR
STARTCHAR 3139
ENCODING 12601
SWIDTH 960 0
DWIDTH 16 0
BBX 16 16 0 -2
BITMAP
0000
3ffe
2000
2f7c
2950
2950
2f50
2950
29fe
2f10
2830
2a30
4950
4b52
8c92
310e
ENDCHAR
STARTCHAR 313a
ENCODING 12602
SWIDTH 960 0
DWIDTH 16 0
BBX 16 16 0 -2
BITMAP
2048
1044
1ffe
0040
8040
47fc
4444
0444
17fc
1444
2444
27fc
4444
4444
844c
8444
ENDCHAR
STARTCHAR 313b
ENCODING 12603
SWIDTH 960 0
DWIDTH 16 0
BBX 16 16 0 -2
BITMAP
0010
00e0
3f00
2020
2220
2220
2220
2220
2220
2210
2290
2250
2250
43e8
5c28
8024
ENDCHAR
STARTCHAR 313c
ENCODING 12604
SWIDTH 960 0
DWIDTH 16 0
BBX 16 16 0 -2
BITMAP
0000
7e7e
4242
7e7e
4242
7e7e
4002
4ff2
4102
4102
47e2
4102
4102
5ffa
4006
4002
ENDCHAR
STARTCHAR 313d
ENCODING 12605
SWIDTH 960 0
DWIDTH 16 0
BBX 16 16 0 -2
BITMAP
0210
0120
fffe
9140
97f8
9548
9638
97f8
9408
97f8
f020
9ffe
0420
0220
0220
0060
ENDCHAR
STARTCHAR 313e
ENCODING 12606
SWIDTH 960 0
DWIDTH 16 0
BBX 16 16 0 -2
BITMAP
0000
0000
1ff8
0000
0000
0000
7ffe
0100
0100
0220
0210
0408
08f8
7f04
0004
0004
ENDCHAR
STARTCHAR 313f
ENCODING 12607
SWIDTH 960 0
DWIDTH 16 0
BBX 16 16 0 -2
BITMAP
0000
47fe
2444
2840
07fc
0040
07f8
f448
17f8
1448
17f8
1040
2ffc
2440
4300
80fe
ENDCHAR
STARTCHAR 3140
ENCODING 12608
SWIDTH 960 0
DWIDTH 16 0
BBX 16 16 0 -2
BITMAP
0000
3ffc
0080
3ffe
2082
3ebc
4080
1ebc
0000
1ff8
0000
7ffe
0240
0430
3fc8
0004
ENDCHAR
STARTCHAR 3141
ENCODING 12609
SWIDTH 960 0
DWIDTH 16 0
BBX 16 16 0 -2
BITMAP
0440
0440
fffe
0440
0440
0808
0830
13e0
1020
3020
57fe
9020
1020
1020
13fc
1000
ENDCHAR
STARTCHAR 3142
ENCODING 12610
SWIDTH 960 0
DWIDTH 16 0
BBX 16 16 0 -2
BITMAP
1000
13fe
2888
2488
5288
fcf8
4488
7c88
44f8
4488
7c88
488e
44f8
4d88
7208
c208
ENDCHAR
STARTCHAR 3143
ENCODING 12611
SWIDTH 960 0
DWIDTH 16 0
BBX 16 16 0 -2
BITMAP
1000
1ef8
1008
ff48
8148
7e48
0a48
5948
9428
3f30
6290
be30
2228
3e48
2384
3e02
ENDCHAR
STARTCHAR 3144
ENCODING 12612
SWIDTH 960 0
DWIDTH 16 0
BBX 16 16 0 -2
BITMAP
2410
1210
1220
7ffc
4008
9fe0
1020
1020
1fe0
0200
0400
3ff0
2010
2010
3ff0
2010
ENDCHAR
STARTCHAR 3145
ENCODING 12613
SWIDTH 960 0
DWIDTH 16 0
BBX 16 16 0 -2
BITMAP
0000
7cf8
4488
7cf8
4488
7cf8
4488
7cf8
2648
4284
fffe
0440
0880
1f80
06c0
7830
ENDCHAR
STARTCHAR 3146
ENCODING 12614
SWIDTH 960 0
DWIDTH 16 0
BBX 16 16 0 -2
BITMAP
0008
3f08
2110
3f10
2124
3f44
0808
ff88
0012
3f22
2104
3f04
0808
4908
8890
1820
ENDCHAR
STARTCHAR 3147
ENCODING 12615
SWIDTH 960 0
DWIDTH 16 0
BBX 16 16 0 -2
BITMAP
0040
0040
f040
93f8
9248
9248
f248
9248
9ffe
9040
90a0
f0a0
9110
0208
0404
1802
ENDCHAR
STARTCHAR 3148
ENCODING 12616
SWIDTH 960 0
DWIDTH 16 0
BBX 16 16 0 -2
BITMAP
0200
0200
3ff0
2210
2210
3ff0
2210
2210
3ff8
2210
0220
01c0
0304
1c84
e064
001c
ENDCHAR
STARTCHAR 3149
ENCODING 12617
SWIDTH 960 0
DWIDTH 16 0
BBX 16 16 0 -2
BITMAP
2208
1108
0890
08a0
3ffe
2004
4100
0100
7ffe
0380
0540
0920
1118
6106
0100
0100
ENDCHAR
STARTCHAR 314a
ENCODING 12618
SWIDTH 960 0
DWIDTH 16 0
BBX 16 16 0 -2
BITMAP
0600
0100
0080
0f00
0108
0108
7d90
05a0
0540
0940
0920
1110
2108
c106
0700
0100
ENDCHAR
STARTCHAR 314b
ENCODING 12619
SWIDTH 960 0
DWIDTH 16 0
BBX 16 16 0 -2
BITMAP
2180
1040
1020
0000
83c4
4044
4048
0f68
0170
0160
2250
2250
4448
4844
91c2
8040
ENDCHAR
STARTCHAR 314c
ENCODING 12620
SWIDTH 960 0
DWIDTH 16 0
BBX 16 16 0 -2
BITMAP
2080
1080
17f8
1488
8488
47f8
4488
4488
17fc
1088
2090
2060
4040
41a2
9e1a
8006
ENDCHAR
STARTCHAR 314d
ENCODING 12621
SWIDTH 960 0
DWIDTH 16 0
BBX 16 16 0 -2
BITMAP
0110
0110
fffe
2110
2150
2040
23f8
fa48
2248
2248
2ffe
2060
3890
e108
0604
1802
ENDCHAR
STARTCHAR 314e
ENCODING 12622
SWIDTH 960 0
DWIDTH 16 0
BBX 16 16 0 -2
BITMAP
0000
7ff0
0810
0810
0fdc
1444
1284
2104
46b8
9860
3ff8
2448
2448
2448
fffe
0000
ENDCHAR
STARTCHAR 314f
ENCODING 12623
SWIDTH 960 0
DWIDTH 16 0
BBX 16 16 0 -2
BITMAP
4000
45fe
7820
4040
42fc
3e84
0084
06fc
7884
08fc
ff84
1c84
2afc
4948
8884
0b02
ENDCHAR
STARTCHAR 3150
ENCODING 12624
SWIDTH 960 0
DWIDTH 16 0
BBX 16 16 0 -2
BITMAP
4000
45fe
7820
4040
42fc
3e84
0084
3cfc
0084
fffc
0884
2c84
2afc
4a48
8884
1b02
ENDCHAR
STARTCHAR 3151
ENCODING 12625
SWIDTH 960 0
DWIDTH 16 0
BBX 16 16 0 -2
BITMAP
0820
0820
fffe
0820
0920
0100
3ff8
2108
2108
2108
fffe
0280
0440
0820
3018
c006
ENDCHAR
STARTCHAR 3152
ENCODING 12626
SWIDTH 960 0
DWIDTH 16 0
BBX 16 16 0 -2
BITMAP
1200
17dc
2240
2240
4fe0
8800
17fe
1448
27c8
6088
afe8
2288
2288
2fe8
2098
2088
ENDCHAR
STARTCHAR 3153
ENCODING 12627
SWIDTH 960 0
DWIDTH 16 0
BBX 16 16 0 -2
BITMAP
0080
7840
0020
fc04
01c4
7844
0068
07e8
78d0
00d0
7948
4948
4a44
4c42
78c0
4840
ENDCHAR
STARTCHAR 3154
ENCODING 12628
SWIDTH 960 0
DWIDTH 16 0
BBX 16 16 0 -2
BITMAP
1088
1048
2850
24fc
4284
fc84
1084
1084
fefc
1050
9450
5450
5890
1692
3912
c20e
ENDCHAR
STARTCHAR 3155
ENCODING 12629
SWIDTH 960 0
DWIDTH 16 0
BBX 16 16 0 -2
BITMAP
2040
1040
1ffe
0120
8120
4238
4248
0668
1ad8
12a8
2310
2230
4228
4248
8284
8302
ENDCHAR
STARTCHAR 3156
ENCODING 12630
SWIDTH 960 0
DWIDTH 16 0
BBX 16 16 0 -2
BITMAP
0080
0080
1ffe
9000
53e0
5224
1224
121c
3400
5ff0
9110
2120
20c0
40a0
8310
1c0c
ENDCHAR
STARTCHAR 3157
ENCODING 12631
SWIDTH 960 0
DWIDTH 16 0
BBX 16 16 0 -2
BITMAP
1020
0820
0440
0480
fffe
0820
0820
1010
2008
5ff4
9290
1290
1290
1290
fffc
0000
ENDCHAR
STARTCHAR 3158
ENCODING 12632
SWIDTH 960 0
DWIDTH 16 0
BBX 16 16 0 -2
BITMAP
0000
7f7c
4844
4844
7e44
4844
7e7c
4864
4850
7f50
2950
5550
5548
5188
8284
0d02
ENDCHAR
STARTCHAR 3159
ENCODING 12633
SWIDTH 960 0
DWIDTH 16 0
BBX 16 16 0 -2
BITMAP
1108
1088
1090
11f8
5908
5508
5508
5108
91f8
10a0
10a0
10a0
1120
1124
1224
141c
ENDCHAR
STARTCHAR 315a
ENCODING 12634
SWIDTH 960 0
DWIDTH 16 0
BBX 16 16 0 -2
BITMAP
0000
79f8
0108
fff8
0108
7d08
01f8
0080
7cfc
0194
7da4
46c4
4494
4474
7c04
4418
ENDCHAR
STARTCHAR 315b
ENCODING 12635
SWIDTH 960 0
DWIDTH 16 0
BBX 16 16 0 -2
BITMAP
0828
0824
0820
3efe
08a0
08a4
7fa4
08a4
28a8
2e98
28d2
2b2a
3846
4982
4600
81fe
ENDCHAR
STARTCHAR 315c
ENCODING 12636
SWIDTH 960 0
DWIDTH 16 0
BBX 16 16 0 -2
BITMAP
0000
7e7e
4242
7e7e
4242
7e7e
4442
4282
4fe2
4822
4822
4fe2
4282
4292
4472
4806
ENDCHAR
STARTCHAR 315d
ENCODING 12637
SWIDTH 960 0
DWIDTH 16 0
BBX 16 16 0 -2
BITMAP
1000
17fe
1040
fdf8
1108
11f8
3908
35f8
3508
53f8
5040
90f8
1390
1060
1198
1606
ENDCHAR
STARTCHAR 315e
ENCODING 12638
SWIDTH 960 0
DWIDTH 16 0
BBX 16 16 0 -2
BITMAP
0000
7ffe
4000
5f14
5112
5f10
51fe
5f10
4010
5f18
5128
5f28
5128
5f44
9184
9302
ENDCHAR
STARTCHAR 315f
ENCODING 12639
SWIDTH 960 0
DWIDTH 16 0
BBX 16 16 0 -2
BITMAP
0000
7ff8
4208
4208
4208
4208
4208
7ff8
4008
4008
4008
4008
4008
4008
4018
4008
ENDCHAR
STARTCHAR 3160
ENCODING 12640
SWIDTH 960 0
DWIDTH 16 0
BBX 16 16 0 -2
BITMAP
0000
7ffc
4104
4fe4
4104
7ffc
4004
4fe4
4824
4fe4
4694
4a64
723c
4204
7ffc
4004
ENDCHAR
STARTCHAR 3161
ENCODING 12641
SWIDTH 960 0
DWIDTH 16 0
BBX 16 16 0 -2
BITMAP
2000
27fe
2400
25f8
2508
fdf8
2508
25f8
2440
27fe
2c90
35a0
c470
0588
07fe
0400
ENDCHAR
STARTCHAR 3162
ENCODING 12642
SWIDTH 960 0
DWIDTH 16 0
BBX 16 16 0 -2
BITMAP
0100
0100
fffe
0280
0440
0920
3ff8
d126
1120
1fe0
1120
1120
1fe0
1124
0104
00fc
ENDCHAR
STARTCHAR 3163
ENCODING 12643
SWIDTH 960 0
DWIDTH 16 0
BBX 16 16 0 -2
BITMAP
0100
0100
3ffe
2004
2ff0
4810
0ff0
0810
0ff0
0100
7ffe
0220
0420
0fc0
0330
3c08
ENDCHAR
STARTCHAR 3164
ENCODING 12644
SWIDTH 960 0
DWIDTH 16 0
BBX 16 16 0 -2
BITMAP
0008
f830
0be0
1020
1020
2120
793c
0920
4920
2920
2920
1120
1ffe
2400
4300
80fe
ENDCHAR
STARTCHAR 3165
ENCODING 12645
SWIDTH 960 0
DWIDTH 16 0
BBX 16 16 0 -2
BITMAP
1000
1efc
1284
2284
6498
9480
0882
1042
203e
c200
0900
2888
2884
4812
8412
03f0
ENDCHAR
STARTCHAR 3166
ENCODING 12646
SWIDTH 960 0
DWIDTH 16 0
BBX 16 16 0 -2
BITMAP
2040
2040
2ffe
20a0
f950
2248
27fc
2a4a
2248
3bf8
e248
2248
23f8
2042
2042
603e
ENDCHAR
STARTCHAR 3167
ENCODING 12647
SWIDTH 960 0
DWIDTH 16 0
BBX 16 16 0 -2
BITMAP
2018
27e0
2288
f948
2150
27fc
2080
27fe
3880
e1f8
2308
2d90
2060
20a0
2318
6c06
ENDCHAR
STARTCHAR 3168
ENCODING 12648
SWIDTH 960 0
DWIDTH 16 0
BBX 16 16 0 -2
BITMAP
20f0
1010
1110
0110
8108
4208
4204
4402
1bf8
1208
2208
2208
4208
4208
83f8
8208
ENDCHAR
STARTCHAR 3169
ENCODING 12649
SWIDTH 960 0
DWIDTH 16 0
BBX 16 16 0 -2
BITMAP
2040
1040
17fe
0404
8ffc
4040
47fc
0444
0444
27fc
2444
4444
47fc
4118
8204
8c02
ENDCHAR
STARTCHAR 316a
ENCODING 12650
SWIDTH 960 0
DWIDTH 16 0
BBX 16 16 0 -2
BITMAP
0100
0910
0910
1120
2280
0440
1830
610c
0110
0910
0920
1280
2240
0420
1818
6006
ENDCHAR
STARTCHAR 316b
ENCODING 12651
SWIDTH 960 0
DWIDTH 16 0
BBX 16 16 0 -2
BITMAP
0820
0820
083c
0a44
2a48
2a88
2c10
293e
4922
0d22
1522
133e
1322
2122
213e
4122
ENDCHAR
STARTCHAR 316c
ENCODING 12652
SWIDTH 960 0
DWIDTH 16 0
BBX 16 16 0 -2
BITMAP
1000
17fc
10a0
14a0
57f8
56a8
5aa8
52a8
93f8
1040
1840
29f8
2440
2440
47fe
8000
ENDCHAR
STARTCHAR 316d
ENCODING 12653
SWIDTH 960 0
DWIDTH 16 0
BBX 16 16 0 -2
BITMAP
0440
0440
fffe
0440
17d0
1014
f7d4
1458
1450
3452
d7d2
144e
0000
2448
4224
8222
ENDCHAR
STARTCHAR 316e
ENCODING 12654
SWIDTH 960 0
DWIDTH 16 0
BBX 16 16 0 -2
BITMAP
1040
9040
53f8
2040
2ffe
5000
93f8
1208
3208
33f8
5144
9324
1d28
1110
d1c8
2606
ENDCHAR
STARTCHAR 316f
ENCODING 12655
SWIDTH 960 0
DWIDTH 16 0
BBX 16 16 0 -2
BITMAP
1000
11f0
1410
e5f0
2810
13fe
1440
24a4
ff28
1270
58b0
5568
54a4
5722
9020
10c0
ENDCHAR
STARTCHAR 3170
ENCODING 12656
SWIDTH 960 0
DWIDTH 16 0
BBX 16 16 0 -2
BITMAP
1420
7f3c
5548
7f48
5590
7ffc
0094
ff94
0094
7efc
4284
7e80
2480
1882
ff42
003e
ENDCHAR
STARTCHAR 3171
ENCODING 12657
SWIDTH 960 0
DWIDTH 16 0
BBX 16 16 0 -2
BITMAP
0420
0420
fffe
0420
0420
1000
1f7c
1144
2144
3244
4a44
8458
0440
0842
1022
601e
ENDCHAR
STARTCHAR 3172
ENCODING 12658
SWIDTH 960 0
DWIDTH 16 0
BBX 16 16 0 -2
BITMAP
0820
fffe
0820
7ffc
4104
4fe4
4104
7ffc
4844
4fc4
4724
4ac4
7264
421c
7ffc
4004
ENDCHAR
STARTCHAR 3173
ENCODING 12659
SWIDTH 960 0
DWIDTH 16 0
BBX 16 16 0 -2
BITMAP
0080
4080
27f8
2080
0ffc
0000
07f8
f408
17f8
1188
12d0
14a0
1898
2886
4600
81fe
ENDCHAR
STARTCHAR 3174
ENCODING 12660
SWIDTH 960 0
DWIDTH 16 0
BBX 16 16 0 -2
BITMAP
1078
1008
2848
2448
4488
fe84
1104
1202
fcf8
1088
9488
5888
5288
1c88
30f8
c088
ENDCHAR
STARTCHAR 3175
ENCODING 12661
SWIDTH 960 0
DWIDTH 16 0
BBX 16 16 0 -2
BITMAP
1000
1ff8
6288
14b0
1a84
e47c
1fe0
1020
1fe0
1020
1ffe
1000
1ffc
5244
4924
8018
ENDCHAR
STARTCHAR 3176
ENCODING 12662
SWIDTH 960 0
DWIDTH 16 0
BBX 16 16 0 -2
BITMAP
0200
2200
23fc
2400
27f0
fa10
2a10
23f0
2000
27f8
2d28
3528
c528
0528
1ffe
0000
ENDCHAR
STARTCHAR 3177
ENCODING 12663
SWIDTH 960 0
DWIDTH 16 0
BBX 16 16 0 -2
BITMAP
2020
2020
2020
fe50
2050
2088
3cc8
2544
2622
2420
2480
2440
4420
4420
8410
1810
ENDCHAR
STARTCHAR 3178
ENCODING 12664
SWIDTH 960 0
DWIDTH 16 0
BBX 16 16 0 -2
BITMAP
2000
17f8
1080
0080
0080
9ffe
4100
4100
1100
13f8
2208
2008
4008
4008
8010
8060
ENDCHAR
STARTCHAR 3179
ENCODING 12665
SWIDTH 960 0
DWIDTH 16 0
BBX 16 16 0 -2
BITMAP
0800
09fc
2924
2924
3ffc
2924
4924
09fc
3e20
0bfe
0822
0842
0e42
7082
0102
060c
ENDCHAR
STARTCHAR 317a
ENCODING 12666
SWIDTH 960 0
DWIDTH 16 0
BBX 16 16 0 -2
BITMAP
0000
7c7c
4444
4444
4444
4444
4444
4444
47c4
4004
4004
4004
4004
7ffc
4004
0000
ENDCHAR
STARTCHAR 317b
ENCODING 12667
SWIDTH 960 0
DWIDTH 16 0
BBX 16 16 0 -2
BITMAP
0100
0100
0100
3ff8
2108
2108
2108
2108
fffe
0100
0280
0280
0440
0820
3018
c006
ENDCHAR
STARTCHAR 317c
ENCODING 12668
SWIDTH 960 0
DWIDTH 16 0
BBX 16 16 0 -2
BITMAP
0200
0400
3ff8
2108
2928
2548
3ff8
2388
2548
2938
3108
2208
fffe
0280
0c60
f01c
ENDCHAR
STARTCHAR 317d
ENCODING 12669
SWIDTH 960 0
DWIDTH 16 0
BBX 16 16 0 -2
BITMAP
1080
1040
2040
27fc
4840
8840
1040
1040
23f8
6040
a040
2040
2040
2040
27fe
2000
ENDCHAR
STARTCHAR 317e
ENCODING 12670
SWIDTH 960 0
DWIDTH 16 0
BBX 16 16 0 -2
BITMAP
0080
0080
3ffe
2100
2080
2040
2120
2120
2908
2904
2902
4902
5102
5108
a088
0078
ENDCHAR
STARTCHAR 3221
ENCODING 12833
SWIDTH 960 0
DWIDTH 16 0
BBX 16 16 0 -2
BITMAP
1000
11fe
1122
1122
7d22
11fe
1122
1122
1122
1dfe
7020
1020
1020
1020
3020
1020
ENDCHAR
STARTCHAR 3222
ENCODING 12834
SWIDTH 960 0
DWIDTH 16 0
BBX 16 16 0 -2
BITMAP
0000
fbfc
8840
8840
8840
8840
f840
8bfc
8840
8840
8840
8840
f840
8840
0ffe
0000
ENDCHAR
STARTCHAR 3223
ENCODING 12835
SWIDTH 960 0
DWIDTH 16 0
BBX 16 16 0 -2
BITMAP
1110
1110
17fc
fd10
1110
17fe
3840
37f8
3248
53f8
5248
9248
13f8
1120
1218
1c04
ENDCHAR
STARTCHAR 3224
ENCODING 12836
SWIDTH 960 0
DWIDTH 16 0
BBX 16 16 0 -2
BITMAP
0040
7f40
4240
427e
62a2
54a4
4d28
4420
4c20
4a60
5250
5250
6088
7f88
4104
4202
ENDCHAR
STARTCHAR 3225
ENCODING 12837
SWIDTH 960 0
DWIDTH 16 0
BBX 16 16 0 -2
BITMAP
0000
7f78
4248
4248
644a
548a
4d06
45f8
4c88
4a88
5250
5250
6020
7f50
4188
4606
ENDCHAR
STARTCHAR 3226
ENCODING 12838
SWIDTH 960 0
DWIDTH 16 0
BBX 16 16 0 -2
BITMAP
0000
7ffc
0100
0100
0100
0100
0100
3ff8
0100
0100
0100
0100
0100
0100
fffe
0000
ENDCHAR
STARTCHAR 3227
ENCODING 12839
SWIDTH 960 0
DWIDTH 16 0
BBX 16 16 0 -2
BITMAP
0be0
0820
1110
2108
c2c6
0430
7fc8
0000
7ff8
2248
1228
0618
1a68
6388
0208
0618
ENDCHAR
STARTCHAR 3228
ENCODING 12840
SWIDTH 960 0
DWIDTH 16 0
BBX 16 16 0 -2
BITMAP
2040
2080
23f8
fa48
0b58
12e8
13f8
2a48
2ae8
7358
aa48
27fe
2040
20a0
2310
2c0c
ENDCHAR
STARTCHAR 3229
ENCODING 12841
SWIDTH 960 0
DWIDTH 16 0
BBX 16 16 0 -2
BITMAP
1108
0890
3ffe
2204
4ff0
0810
0ff0
0810
0ff0
0800
0ffe
0800
0ffc
2924
2494
4018
ENDCHAR
STARTCHAR 322a
ENCODING 12842
SWIDTH 960 0
DWIDTH 16 0
BBX 16 16 0 -2
BITMAP
0040
fe80
85f8
8508
c5f8
a908
99f8
8900
99fe
9500
a5fc
a454
c32c
fea4
8284
8418
ENDCHAR
STARTCHAR 322b
ENCODING 12843
SWIDTH 960 0
DWIDTH 16 0
BBX 16 16 0 -2
BITMAP
0440
0440
3ff8
0440
0440
fffe
0100
1ff0
1110
1110
1ff0
1110
1110
1ff0
0830
700c
ENDCHAR
STARTCHAR 322c
ENCODING 12844
SWIDTH 960 0
DWIDTH 16 0
BBX 16 16 0 -2
BITMAP
0000
7ffc
4044
4844
4444
4484
7ffc
4104
4924
4924
4924
4924
4fe4
4824
4004
400c
ENDCHAR
STARTCHAR 322d
ENCODING 12845
SWIDTH 960 0
DWIDTH 16 0
BBX 16 16 0 -2
BITMAP
1020
0820
0820
03fe
4222
2222
2222
0222
0bfe
0a22
1020
1020
2020
2020
4020
4020
ENDCHAR
STARTCHAR 322e
ENCODING 12846
SWIDTH 960 0
DWIDTH 16 0
BBX 16 16 0 -2
BITMAP
0420
0420
fffe
0420
0800
4820
3024
1124
2928
4920
1a20
2850
4850
0888
0b04
3c02
ENDCHAR
STARTCHAR 322f
ENCODING 12847
SWIDTH 960 0
DWIDTH 16 0
BBX 16 16 0 -2
BITMAP
0840
0840
0ffc
1208
1110
2ffe
2000
63f8
a208
23f8
2208
23f8
2544
2522
290a
20f8
ENDCHAR
STARTCHAR 3230
ENCODING 12848
SWIDTH 960 0
DWIDTH 16 0
BBX 16 16 0 -2
BITMAP
0000
3ff8
2008
2008
3ff8
2000
3ffc
2160
2618
3ff4
2080
2ff8
4080
4080
bffe
0000
ENDCHAR
STARTCHAR 3231
ENCODING 12849
SWIDTH 960 0
DWIDTH 16 0
BBX 16 16 0 -2
BITMAP
2080
2080
2ff8
2210
6120
6ffe
7000
abf8
a208
23f8
2208
23f8
2540
2524
2912
20f0
ENDCHAR
STARTCHAR 3232
ENCODING 12850
SWIDTH 960 0
DWIDTH 16 0
BBX 16 16 0 -2
BITMAP
0040
7840
4ffc
4908
4890
7ffe
4800
49f8
4908
79f8
4908
49f8
4a40
4aac
5c8a
8878
ENDCHAR
STARTCHAR 3233
ENCODING 12851
SWIDTH 960 0
DWIDTH 16 0
BBX 16 16 0 -2
BITMAP
0800
09fc
0808
7e50
0820
09fe
1d22
1b22
29fe
2922
4922
09fe
0922
0922
0922
0906
ENDCHAR
STARTCHAR 3234
ENCODING 12852
SWIDTH 960 0
DWIDTH 16 0
BBX 16 16 0 -2
BITMAP
0820
2820
2820
2820
3e20
29fc
4820
8820
0820
0e20
7820
0820
0820
0820
0bfe
0800
ENDCHAR
STARTCHAR 3235
ENCODING 12853
SWIDTH 960 0
DWIDTH 16 0
BBX 16 16 0 -2
BITMAP
0000
3ff0
0020
00c0
0100
0200
0400
0800
1000
2000
2000
4008
4008
4008
3ff8
0000
ENDCHAR
STARTCHAR 3236
ENCODING 12854
SWIDTH 960 0
DWIDTH 16 0
BBX 16 16 0 -2
BITMAP
0880
0880
0ffe
1140
11a0
2290
27f8
6c94
b492
27f0
2490
2490
27f0
2494
2084
207c
ENDCHAR
STARTCHAR 3237
ENCODING 12855
SWIDTH 960 0
DWIDTH 16 0
BBX 16 16 0 -2
BITMAP
1000
103e
1fa2
1422
2422
4422
7fe2
0422
2422
27a2
2422
2422
27bc
3c20
6020
0020
ENDCHAR
STARTCHAR 3238
ENCODING 12856
SWIDTH 960 0
DWIDTH 16 0
BBX 16 16 0 -2
BITMAP
0000
3ff8
2108
2108
3ff8
2288
2468
3818
3ff8
0100
2480
2448
2444
4412
8212
01f0
ENDCHAR
STARTCHAR 3239
ENCODING 12857
SWIDTH 960 0
DWIDTH 16 0
BBX 16 16 0 -2
BITMAP
2000
13f8
1208
03f8
8208
4208
43f8
0000
1000
17fc
24a4
24a4
44a4
44a4
9ffe
8000
ENDCHAR
STARTCHAR 323a
ENCODING 12858
SWIDTH 960 0
DWIDTH 16 0
BBX 16 16 0 -2
BITMAP
0808
1070
f784
1244
1148
13f8
fc08
11f8
3808
35f8
3440
52a8
52a4
92aa
148a
1078
ENDCHAR
STARTCHAR 323b
ENCODING 12859
SWIDTH 960 0
DWIDTH 16 0
BBX 16 16 0 -2
BITMAP
0100
0100
7ffc
0820
0420
0440
fffe
0000
0fe0
0820
0820
0fe0
0820
0820
0fe0
0820
ENDCHAR
STARTCHAR 323c
ENCODING 12860
SWIDTH 960 0
DWIDTH 16 0
BBX 16 16 0 -2
BITMAP
0000
fffe
0100
0100
0100
0180
0140
0120
0110
0110
0100
0100
0100
0100
0100
0100
ENDCHAR
STARTCHAR 323d
ENCODING 12861
SWIDTH 960 0
DWIDTH 16 0
BBX 16 16 0 -2
BITMAP
0480
0480
0484
0884
0888
1088
1090
30a0
50c0
9080
1080
1080
1082
1082
1042
103e
ENDCHAR
STARTCHAR 323e
ENCODING 12862
SWIDTH 960 0
DWIDTH 16 0
BBX 16 16 0 -2
BITMAP
0800
0bfe
0a00
1200
1200
23f8
2308
6288
a290
2250
2460
2420
2850
2888
3304
2c02
ENDCHAR
STARTCHAR 323f
ENCODING 12863
SWIDTH 960 0
DWIDTH 16 0
BBX 16 16 0 -2
BITMAP
0800
0800
0ffe
1008
1008
27c8
2448
6448
a448
2448
27c8
2448
2008
2008
2038
2008
ENDCHAR
STARTCHAR 3240
ENCODING 12864
SWIDTH 960 0
DWIDTH 16 0
BBX 16 16 0 -2
BITMAP
1400
1400
143c
2424
3fa4
24a4
64a4
64a4
a4a4
24a4
24a4
24a4
28bc
28a4
3300
2000
ENDCHAR
STARTCHAR 3241
ENCODING 12865
SWIDTH 960 0
DWIDTH 16 0
BBX 16 16 0 -2
BITMAP
0800
0800
0ffe
10a0
10a0
20a0
27fc
64a4
a4a4
24a4
24a4
24a4
24a4
27fc
2404
2000
ENDCHAR
STARTCHAR 3242
ENCODING 12866
SWIDTH 960 0
DWIDTH 16 0
BBX 16 16 0 -2
BITMAP
0840
0840
0bf8
1040
1040
3040
57fc
5040
9040
1040
13f8
1040
1040
1040
17fc
1000
ENDCHAR
STARTCHAR 3243
ENCODING 12867
SWIDTH 960 0
DWIDTH 16 0
BBX 16 16 0 -2
BITMAP
0800
0800
083e
0822
7fa2
08a2
08a2
08a2
08a2
08a2
08a2
08a2
10a2
10be
20a2
4300
ENDCHAR
STARTCHAR 3244
ENCODING 12868
SWIDTH 960 0
DWIDTH 16 0
BBX 16 16 0 -2
BITMAP
0000
0000
fffe
0010
0010
1f90
1090
1090
1090
1090
1f90
1090
0010
0010
0070
0010
ENDCHAR
STARTCHAR 3245
ENCODING 12869
SWIDTH 960 0
DWIDTH 16 0
BBX 16 16 0 -2
BITMAP
0100
0100
fffe
0100
3ff8
0000
1ff0
1010
1ff0
0440
fffe
1000
7ef8
1288
22f8
cc88
ENDCHAR
STARTCHAR 3246
ENCODING 12870
SWIDTH 960 0
DWIDTH 16 0
BBX 16 16 0 -2
BITMAP
0000
7ffc
0100
1ff0
1010
1ff0
1010
1ff0
1010
1ff0
0400
0ff0
1440
6380
0ce0
f01c
ENDCHAR
STARTCHAR 3247
ENCODING 12871
SWIDTH 960 0
DWIDTH 16 0
BBX 16 16 0 -2
BITMAP
1040
1040
13fc
1208
fc00
27f8
2480
2544
4a54
48b8
f128
1a68
28a4
4122
8620
00c0
ENDCHAR
STARTCHAR 3248
ENCODING 12872
SWIDTH 960 0
DWIDTH 16 0
BBX 16 16 0 -2
BITMAP
0100
0100
3ffe
2004
4000
1ff0
0204
0d44
31c8
02b0
0ca0
3190
0288
0c84
7082
0300
ENDCHAR
STARTCHAR 3249
ENCODING 12873
SWIDTH 960 0
DWIDTH 16 0
BBX 16 16 0 -2
BITMAP
0200
0200
7ffc
4008
bff0
0200
1fe0
1020
1fe0
1020
fffc
0820
3ff8
c226
0c20
30c0
ENDCHAR
STARTCHAR 324a
ENCODING 12874
SWIDTH 960 0
DWIDTH 16 0
BBX 16 16 0 -2
BITMAP
0208
0c88
7848
0828
0828
0908
fe88
0848
1c48
1a0e
2978
2b88
4808
8808
0808
0808
ENDCHAR
STARTCHAR 324b
ENCODING 12875
SWIDTH 960 0
DWIDTH 16 0
BBX 16 16 0 -2
BITMAP
0000
07bc
f484
9484
9484
97bc
9400
f47c
97c4
9428
9428
9410
f790
9428
0444
0482
ENDCHAR
STARTCHAR 324c
ENCODING 12876
SWIDTH 960 0
DWIDTH 16 0
BBX 16 16 0 -2
BITMAP
0000
1ff8
1108
1108
1ff8
1108
1108
1ff8
0100
7ffe
0380
0540
0920
1118
6106
0100
ENDCHAR
STARTCHAR 324d
ENCODING 12877
SWIDTH 960 0
DWIDTH 16 0
BBX 16 16 0 -2
BITMAP
0800
087c
7f44
0944
0944
1144
117c
2644
4100
0100
7ffe
0340
0520
1918
6106
0100
ENDCHAR
STARTCHAR 324e
ENCODING 12878
SWIDTH 960 0
DWIDTH 16 0
BBX 16 16 0 -2
BITMAP
0080
ff80
0480
74fe
54a4
74a8
5520
0d20
fe20
0420
7450
5450
7488
5488
0504
0e02
ENDCHAR
STARTCHAR 324f
ENCODING 12879
SWIDTH 960 0
DWIDTH 16 0
BBX 16 16 0 -2
BITMAP
2000
17fe
1008
0008
87c8
4448
4448
0448
1448
17c8
2448
2008
4008
4008
8038
8008
ENDCHAR
STARTCHAR 3250
ENCODING 12880
SWIDTH 960 0
DWIDTH 16 0
BBX 16 16 0 -2
BITMAP
0100
0100
0108
0108
1108
1110
1110
1120
2100
4280
0280
0440
0420
0810
3008
c006
ENDCHAR
STARTCHAR 3251
ENCODING 12881
SWIDTH 960 0
DWIDTH 16 0
BBX 16 16 0 -2
BITMAP
0000
fffe
2008
2008
23c8
2248
fa48
2248
2248
2248
23c8
2248
3808
e008
0018
0008
ENDCHAR
STARTCHAR 3252
ENCODING 12882
SWIDTH 960 0
DWIDTH 16 0
BBX 16 16 0 -2
BITMAP
0800
08fc
0884
7ebc
02a4
04a4
04a4
09fe
1d02
2b7a
494a
094a
097a
094a
0906
0902
ENDCHAR
STARTCHAR 3253
ENCODING 12883
SWIDTH 960 0
DWIDTH 16 0
BBX 16 16 0 -2
BITMAP
0010
00e0
3f00
0100
0100
0100
fffe
0100
0380
0540
0920
3118
c106
0100
0100
0100
ENDCHAR
STARTCHAR 3254
ENCODING 12884
SWIDTH 960 0
DWIDTH 16 0
BBX 16 16 0 -2
BITMAP
0440
1840
f3fc
1208
1400
fffc
1088
10c8
3b50
34b0
5128
5668
90a4
1322
1020
10c0
ENDCHAR
STARTCHAR 3255
ENCODING 12885
SWIDTH 960 0
DWIDTH 16 0
BBX 16 16 0 -2
BITMAP
2040
2040
7f7e
48a0
8510
7ff8
4208
4208
7ff8
4208
4fc8
4848
4fc8
4008
7ff8
4008
ENDCHAR
STARTCHAR 3256
ENCODING 12886
SWIDTH 960 0
DWIDTH 16 0
BBX 16 16 0 -2
BITMAP
0840
0840
fffc
0840
0c40
0480
0888
0888
1090
30a0
50c0
9080
1080
1082
1082
107e
ENDCHAR
STARTCHAR 3257
ENCODING 12887
SWIDTH 960 0
DWIDTH 16 0
BBX 16 16 0 -2
BITMAP
0420
0420
fffe
0420
0420
0000
fffc
0010
1f90
1090
1090
1090
1f90
1090
0030
0010
ENDCHAR
STARTCHAR 3258
ENCODING 12888
SWIDTH 960 0
DWIDTH 16 0
BBX 16 16 0 -2
BITMAP
0420
0420
7ffe
0420
0420
0800
087c
7f44
0944
0944
0944
0944
1144
117c
2144
4600
ENDCHAR
STARTCHAR 3259
ENCODING 12889
SWIDTH 960 0
DWIDTH 16 0
BBX 16 16 0 -2
BITMAP
0420
0420
fffe
0420
0420
0800
0ffe
1008
13c8
3248
5248
9248
13c8
1008
1008
1018
ENDCHAR
STARTCHAR 325a
ENCODING 12890
SWIDTH 960 0
DWIDTH 16 0
BBX 16 16 0 -2
BITMAP
0820
0820
fffe
0820
3ff8
1110
1110
fffe
1110
1110
3ff8
0100
0100
7ffc
0100
0100
ENDCHAR
STARTCHAR 325b
ENCODING 12891
SWIDTH 960 0
DWIDTH 16 0
BBX 16 16 0 -2
BITMAP
0440
0440
fffe
0440
1ff0
1110
1ff0
1110
1ff0
0100
fffe
0540
0920
3118
c106
0100
ENDCHAR
STARTCHAR 325c
ENCODING 12892
SWIDTH 960 0
DWIDTH 16 0
BBX 16 16 0 -2
BITMAP
1000
11dc
1144
1144
7d44
55dc
5500
553c
7dd4
1114
1114
19c8
1508
1d14
e524
0342
ENDCHAR
STARTCHAR 325d
ENCODING 12893
SWIDTH 960 0
DWIDTH 16 0
BBX 16 16 0 -2
BITMAP
0000
7dfc
0124
ff24
01fc
7d24
0124
01fc
7c20
03fe
7c70
44a8
44a8
4524
7e22
4420
ENDCHAR
STARTCHAR 325e
ENCODING 12894
SWIDTH 960 0
DWIDTH 16 0
BBX 16 16 0 -2
BITMAP
0110
0110
fffe
9110
97fc
9248
9248
9ffe
9248
9248
97fc
f040
9040
0ffe
0040
0040
ENDCHAR
STARTCHAR 325f
ENCODING 12895
SWIDTH 960 0
DWIDTH 16 0
BBX 16 16 0 -2
BITMAP
0480
0888
18f0
2880
c884
087c
1ff0
1010
1ff0
1010
1ff0
1010
1010
1ff0
1830
6008
ENDCHAR
STARTCHAR 3260
ENCODING 12896
SWIDTH 960 0
DWIDTH 16 0
BBX 16 16 0 -2
BITMAP
0200
4200
223c
2fa4
02a4
02a4
02a4
f2a4
12a4
14a4
14a4
18bc
2b24
2400
4300
80fe
ENDCHAR
STARTCHAR 3261
ENCODING 12897
SWIDTH 960 0
DWIDTH 16 0
BBX 16 16 0 -2
BITMAP
0000
43f8
2208
2278
0248
0248
07fc
f404
15f4
1514
1514
15f4
2d14
240c
4300
80fe
ENDCHAR
STARTCHAR 3262
ENCODING 12898
SWIDTH 960 0
DWIDTH 16 0
BBX 16 16 0 -2
BITMAP
0000
7ff8
0100
7ffc
4104
7de8
9f78
0100
7df8
4408
7df8
4000
7df0
4090
7c60
439c
ENDCHAR
STARTCHAR 3263
ENCODING 12899
SWIDTH 960 0
DWIDTH 16 0
BBX 16 16 0 -2
BITMAP
1020
1020
1020
7ffe
5288
5288
5288
5288
7e50
1050
1820
1420
1450
1a90
e108
0204
ENDCHAR
STARTCHAR 3264
ENCODING 12900
SWIDTH 960 0
DWIDTH 16 0
BBX 16 16 0 -2
BITMAP
08a0
0928
0e24
1224
1220
3ffe
2220
6224
a2a4
2328
2e10
2234
2254
228c
230c
2604
ENDCHAR
STARTCHAR 3265
ENCODING 12901
SWIDTH 960 0
DWIDTH 16 0
BBX 16 16 0 -2
BITMAP
20a0
2128
2724
a924
a920
affe
a920
a924
a9a4
ab28
ad10
f934
8954
818c
010c
0604
ENDCHAR
STARTCHAR 3266
ENCODING 12902
SWIDTH 960 0
DWIDTH 16 0
BBX 16 16 0 -2
BITMAP
0280
04a0
1890
6888
0880
0880
fffe
0848
0848
0e50
1830
e820
0852
088a
0b06
1802
ENDCHAR
STARTCHAR 3267
ENCODING 12903
SWIDTH 960 0
DWIDTH 16 0
BBX 16 16 0 -2
BITMAP
0000
0ff8
0820
0820
0820
0820
0820
fffe
00a0
0120
0220
0420
0820
3020
c0e0
0020
ENDCHAR
STARTCHAR 3268
ENCODING 12904
SWIDTH 960 0
DWIDTH 16 0
BBX 16 16 0 -2
BITMAP
0000
fffe
0100
0100
4fe4
4924
4924
4924
4fe4
4924
4924
4924
4fe4
4004
7ffc
4004
ENDCHAR
STARTCHAR 3269
ENCODING 12905
SWIDTH 960 0
DWIDTH 16 0
BBX 16 16 0 -2
BITMAP
0020
7f20
4820
4820
4820
7e20
4220
4250
4250
7e50
4850
4888
4888
7f08
4204
0402
ENDCHAR
STARTCHAR 326a
ENCODING 12906
SWIDTH 960 0
DWIDTH 16 0
BBX 16 16 0 -2
BITMAP
0440
0440
fffe
0440
0000
3ff8
0840
0840
0840
fffe
00c0
0140
0640
1840
e1c0
0040
ENDCHAR
STARTCHAR 326b
ENCODING 12907
SWIDTH 960 0
DWIDTH 16 0
BBX 16 16 0 -2
BITMAP
1050
1090
1398
7c94
5494
57fe
5490
5494
7c94
10c8
1b88
1498
149a
3ea6
c2c6
0182
ENDCHAR
STARTCHAR 326c
ENCODING 12908
SWIDTH 960 0
DWIDTH 16 0
BBX 16 16 0 -2
BITMAP
0800
087e
7f42
0942
0942
117e
2642
4ff8
0808
0ff8
0808
0ff8
0808
0ff8
0618
3806
ENDCHAR
STARTCHAR 326d
ENCODING 12909
SWIDTH 960 0
DWIDTH 16 0
BBX 16 16 0 -2
BITMAP
0048
7e48
2490
24fe
2590
2490
ff90
14fc
1490
1490
14fc
2490
2490
4490
84fe
0c80
ENDCHAR
STARTCHAR 326e
ENCODING 12910
SWIDTH 960 0
DWIDTH 16 0
BBX 16 16 0 -2
BITMAP
1050
1098
2b94
3494
5090
fffe
4490
7c94
44d4
4494
7d88
5288
489a
5896
64a6
c5c2
ENDCHAR
STARTCHAR 326f
ENCODING 12911
SWIDTH 960 0
DWIDTH 16 0
BBX 16 16 0 -2
BITMAP
0800
7f7e
0942
0942
117e
2642
4ff8
0880
0ff0
0880
0ff0
0880
0ffe
2922
2492
400c
ENDCHAR
STARTCHAR 3270
ENCODING 12912
SWIDTH 960 0
DWIDTH 16 0
BBX 16 16 0 -2
BITMAP
0100
0100
0280
0440
0820
3018
c826
0820
0820
0820
0820
0820
1020
1020
2020
4020
ENDCHAR
STARTCHAR 3271
ENCODING 12913
SWIDTH 960 0
DWIDTH 16 0
BBX 16 16 0 -2
BITMAP
0100
0100
0280
0440
0820
3018
cfe6
0000
0000
7ffc
0200
0240
0420
08d0
7f08
0008
ENDCHAR
STARTCHAR 3272
ENCODING 12914
SWIDTH 960 0
DWIDTH 16 0
BBX 16 16 0 -2
BITMAP
1000
1cfc
2424
4824
fe44
5298
5320
7ea0
52fc
5320
7e20
43fe
4220
4220
4620
8220
ENDCHAR
STARTCHAR 3273
ENCODING 12915
SWIDTH 960 0
DWIDTH 16 0
BBX 16 16 0 -2
BITMAP
0000
7ffc
4004
4004
4004
47c4
4444
4444
4444
4444
47c4
4004
4004
4004
7ffc
4004
ENDCHAR
STARTCHAR 3274
ENCODING 12916
SWIDTH 960 0
DWIDTH 16 0
BBX 16 16 0 -2
BITMAP
0040
2080
23f8
2248
2248
fff8
2248
2248
23f8
20a8
2ca8
3134
c13e
0220
0c22
301e
ENDCHAR
STARTCHAR 3275
ENCODING 12917
SWIDTH 960 0
DWIDTH 16 0
BBX 16 16 0 -2
BITMAP
0040
2040
27fc
2040
23f8
fea8
22a8
23f8
2040
27fe
2888
3150
c320
0d10
01c8
0706
ENDCHAR
STARTCHAR 3276
ENCODING 12918
SWIDTH 960 0
DWIDTH 16 0
BBX 16 16 0 -2
BITMAP
0000
7bfc
0a04
1204
12f4
2294
7a94
0a94
0af4
4a94
2a04
13fc
1a04
2600
41c0
803e
ENDCHAR
STARTCHAR 3277
ENCODING 12919
SWIDTH 960 0
DWIDTH 16 0
BBX 16 16 0 -2
BITMAP
1040
1040
1040
13f8
5848
5448
5448
5048
97fe
1040
10a0
10a0
1110
1110
1208
1404
ENDCHAR
STARTCHAR 3278
ENCODING 12920
SWIDTH 960 0
DWIDTH 16 0
BBX 16 16 0 -2
BITMAP
1000
17f8
1110
1090
10a0
5840
54a0
5518
5646
9040
13f8
1040
1040
1040
17fc
1000
ENDCHAR
STARTCHAR 3279
ENCODING 12921
SWIDTH 960 0
DWIDTH 16 0
BBX 16 16 0 -2
BITMAP
1200
1200
13fc
1200
5400
55f8
5948
5948
97fe
1248
1248
1248
17fe
1408
1010
1060
ENDCHAR
STARTCHAR 327a
ENCODING 12922
SWIDTH 960 0
DWIDTH 16 0
BBX 16 16 0 -2
BITMAP
1000
13fe
1200
1220
5a24
56a4
52a8
52a8
92a0
1320
1230
1250
1448
1488
1b04
1c02
ENDCHAR
STARTCHAR 327b
ENCODING 12923
SWIDTH 960 0
DWIDTH 16 0
BBX 16 16 0 -2
BITMAP
1040
1040
17fe
1040
53f8
5aa8
5aa8
57f8
9040
17fe
1088
1148
1330
1510
11c8
1306
ENDCHAR
STARTCHAR 327c
ENCODING 12924
SWIDTH 960 0
DWIDTH 16 0
BBX 16 16 0 -2
BITMAP
0090
0088
0088
fffe
0080
1288
1288
1250
ffd0
1260
1220
2260
2254
4294
810c
0204
ENDCHAR
STARTCHAR 327d
ENCODING 12925
SWIDTH 960 0
DWIDTH 16 0
BBX 16 16 0 -2
BITMAP
0800
08fc
0884
0884
7e84
08fc
0884
0800
09fe
0e22
7822
0822
0842
0842
1882
090c
ENDCHAR
STARTCHAR 327e
ENCODING 12926
SWIDTH 960 0
DWIDTH 16 0
BBX 16 16 0 -2
BITMAP
0080
0080
fc80
04fe
0488
0488
fd48
8548
8250
8050
8020
8430
8450
7c88
0104
0602
ENDCHAR
STARTCHAR 3321
ENCODING 13089
SWIDTH 960 0
DWIDTH 16 0
BBX 16 16 0 -2
BITMAP
1008
2088
7e48
4a28
4b28
7e88
4a48
4a48
7e0e
19f8
1908
1a88
2f88
280c
4404
83fc
ENDCHAR
STARTCHAR 3322
ENCODING 13090
SWIDTH 960 0
DWIDTH 16 0
BBX 16 16 0 -2
BITMAP
0100
0100
f1fe
9200
9200
95f8
9948
f148
9ffe
9248
9248
9248
f7fe
9408
0010
0060
ENDCHAR
STARTCHAR 3323
ENCODING 13091
SWIDTH 960 0
DWIDTH 16 0
BBX 16 16 0 -2
BITMAP
1020
1028
1024
fffe
1020
12a4
32a4
3aa4
37e8
52a8
5298
9290
14b4
144c
188c
1104
ENDCHAR
STARTCHAR 3324
ENCODING 13092
SWIDTH 960 0
DWIDTH 16 0
BBX 16 16 0 -2
BITMAP
2100
1100
11fc
0200
8200
47f8
4948
0148
1ffe
1248
2248
2248
47fe
4408
8010
8060
ENDCHAR
STARTCHAR 3325
ENCODING 13093
SWIDTH 960 0
DWIDTH 16 0
BBX 16 16 0 -2
BITMAP
0000
3ffc
2000
2080
2088
2488
2488
2490
28a0
2880
2140
2140
4220
4410
9808
6006
ENDCHAR
STARTCHAR 3326
ENCODING 13094
SWIDTH 960 0
DWIDTH 16 0
BBX 16 16 0 -2
BITMAP
0000
3ff8
2108
2108
3ff8
2108
2108
3ff8
0280
0c60
3438
c426
0820
0820
1020
2020
ENDCHAR
STARTCHAR 3327
ENCODING 13095
SWIDTH 960 0
DWIDTH 16 0
BBX 16 16 0 -2
BITMAP
2040
204c
3f70
2040
2042
2642
393e
c200
1ff0
1010
1010
1ff0
1010
1010
1ff0
1010
ENDCHAR
STARTCHAR 3328
ENCODING 13096
SWIDTH 960 0
DWIDTH 16 0
BBX 16 16 0 -2
BITMAP
1020
1020
1450
e450
2888
1104
1afa
2400
fc00
13fc
5840
5450
5488
54b8
93c4
1004
ENDCHAR
STARTCHAR 3329
ENCODING 13097
SWIDTH 960 0
DWIDTH 16 0
BBX 16 16 0 -2
BITMAP
0820
0820
fffe
0820
0920
0100
0280
0440
0820
3438
c426
0420
0420
0820
0820
1020
ENDCHAR
STARTCHAR 332a
ENCODING 13098
SWIDTH 960 0
DWIDTH 16 0
BBX 16 16 0 -2
BITMAP
2000
3dfc
4844
fe8c
5350
7e7c
5290
7ffe
4210
8610
3fe0
2220
3fe0
0210
03f8
fc04
ENDCHAR
STARTCHAR 332b
ENCODING 13099
SWIDTH 960 0
DWIDTH 16 0
BBX 16 16 0 -2
BITMAP
0000
7e7e
4242
7e7e
4242
4242
7e7e
4002
4ff2
4242
4242
7ffa
4242
4442
4846
4002
ENDCHAR
STARTCHAR 332c
ENCODING 13100
SWIDTH 960 0
DWIDTH 16 0
BBX 16 16 0 -2
BITMAP
0220
7a24
4bf8
4a20
5220
6222
539e
4e40
49fc
4904
4904
49fc
7104
4104
41fc
4104
ENDCHAR
STARTCHAR 332d
ENCODING 13101
SWIDTH 960 0
DWIDTH 16 0
BBX 16 16 0 -2
BITMAP
0000
1ff0
1010
1010
1010
1ff0
1010
1010
1010
1ff0
1010
1010
1ff0
0460
1810
6008
ENDCHAR
STARTCHAR 332e
ENCODING 13102
SWIDTH 960 0
DWIDTH 16 0
BBX 16 16 0 -2
BITMAP
1000
5278
5248
7e48
0048
ff48
0048
7e48
4248
4248
7e48
4448
2448
2b8a
1c8a
e106
ENDCHAR
STARTCHAR 332f
ENCODING 13103
SWIDTH 960 0
DWIDTH 16 0
BBX 16 16 0 -2
BITMAP
0410
0410
0410
7ffe
0812
0a12
7212
1492
0c92
0912
1122
2222
0522
08c2
1082
610c
ENDCHAR
STARTCHAR 3330
ENCODING 13104
SWIDTH 960 0
DWIDTH 16 0
BBX 16 16 0 -2
BITMAP
0840
0840
0f40
1140
1140
2140
3260
4a58
8644
0442
0440
0840
0840
1040
2040
4040
ENDCHAR
STARTCHAR 3331
ENCODING 13105
SWIDTH 960 0
DWIDTH 16 0
BBX 16 16 0 -2
BITMAP
0040
0040
f840
8ffe
8880
8890
8920
8f20
88c8
8888
8910
fe20
8850
0088
0304
0c04
ENDCHAR
STARTCHAR 3332
ENCODING 13106
SWIDTH 960 0
DWIDTH 16 0
BBX 16 16 0 -2
BITMAP
0100
0100
3ffe
2104
4100
3ffc
0100
1ff8
0100
7ffe
0000
1ff8
1008
1008
1ff8
1008
ENDCHAR
STARTCHAR 3333
ENCODING 13107
SWIDTH 960 0
DWIDTH 16 0
BBX 16 16 0 -2
BITMAP
2108
2108
3ff8
0000
3ffe
2080
2ff8
2080
2080
3ffc
2080
2ff8
4080
4080
bffe
0000
ENDCHAR
STARTCHAR 3334
ENCODING 13108
SWIDTH 960 0
DWIDTH 16 0
BBX 16 16 0 -2
BITMAP
2000
27fe
2488
24a8
67a8
74a8
6ca8
67fe
a608
2518
2518
2498
25a8
26aa
384a
2086
ENDCHAR
STARTCHAR 3335
ENCODING 13109
SWIDTH 960 0
DWIDTH 16 0
BBX 16 16 0 -2
BITMAP
2000
27fe
2488
24a8
ffa8
24a8
24a8
77fe
6e08
6518
a518
2498
25a8
26aa
384a
2086
ENDCHAR
STARTCHAR 3336
ENCODING 13110
SWIDTH 960 0
DWIDTH 16 0
BBX 16 16 0 -2
BITMAP
2000
17fc
1420
0420
85fc
4420
4420
07fe
1420
1420
25fc
2420
4820
4820
97fe
8000
ENDCHAR
STARTCHAR 3337
ENCODING 13111
SWIDTH 960 0
DWIDTH 16 0
BBX 16 16 0 -2
BITMAP
0000
fef8
1088
10f8
1088
2088
3cf8
6400
67fc
a408
27fe
2508
3c88
2488
2018
0008
ENDCHAR
STARTCHAR 3338
ENCODING 13112
SWIDTH 960 0
DWIDTH 16 0
BBX 16 16 0 -2
BITMAP
0820
0820
fffe
0920
3ff8
0100
fffe
0440
0830
7fe8
0004
3ff0
2490
2490
fffe
0000
ENDCHAR
STARTCHAR 3339
ENCODING 13113
SWIDTH 960 0
DWIDTH 16 0
BBX 16 16 0 -2
BITMAP
1200
123c
2fc0
2200
4200
9200
1ffe
2208
2208
6fc8
a208
2208
22c8
2708
3818
2008
ENDCHAR
STARTCHAR 333a
ENCODING 13114
SWIDTH 960 0
DWIDTH 16 0
BBX 16 16 0 -2
BITMAP
0020
7c20
0020
fffe
0020
7c28
01c8
0050
7c34
0024
7c48
4488
4510
4428
7cc4
4704
ENDCHAR
STARTCHAR 333b
ENCODING 13115
SWIDTH 960 0
DWIDTH 16 0
BBX 16 16 0 -2
BITMAP
1020
1124
2924
25fc
4200
fdfe
1000
10f8
fe88
1088
94f8
5888
5048
1c50
33fe
c000
ENDCHAR
STARTCHAR 333c
ENCODING 13116
SWIDTH 960 0
DWIDTH 16 0
BBX 16 16 0 -2
BITMAP
0020
7c20
4420
5dfe
5420
5428
fec8
8250
fe24
c424
7c48
4588
7c10
4428
4444
4d84
ENDCHAR
STARTCHAR 333d
ENCODING 13117
SWIDTH 960 0
DWIDTH 16 0
BBX 16 16 0 -2
BITMAP
2000
17f8
1448
0448
87f8
4448
4448
0448
17f8
1040
2040
2ffc
4040
4040
9ffe
8000
ENDCHAR
STARTCHAR 333e
ENCODING 13118
SWIDTH 960 0
DWIDTH 16 0
BBX 16 16 0 -2
BITMAP
0878
7e4a
088e
fff8
4a48
7e30
40c8
9f06
0100
fffe
0540
0fe0
3838
cfe6
0820
0fe0
ENDCHAR
STARTCHAR 333f
ENCODING 13119
SWIDTH 960 0
DWIDTH 16 0
BBX 16 16 0 -2
BITMAP
1020
1020
10fc
7e20
5220
5220
53fe
5200
7e20
1020
19fc
1420
1c20
3220
c3fe
0000
ENDCHAR
STARTCHAR 3340
ENCODING 13120
SWIDTH 960 0
DWIDTH 16 0
BBX 16 16 0 -2
BITMAP
1000
13fc
1000
1000
fdf8
1108
1108
11f8
1108
1108
1d08
31f8
c108
0000
0ffe
0000
ENDCHAR
STARTCHAR 3341
ENCODING 13121
SWIDTH 960 0
DWIDTH 16 0
BBX 16 16 0 -2
BITMAP
1040
1040
1040
fffe
1040
1040
33fc
3a44
3644
5244
5244
9244
1258
1240
1040
1040
ENDCHAR
STARTCHAR 3342
ENCODING 13122
SWIDTH 960 0
DWIDTH 16 0
BBX 16 16 0 -2
BITMAP
1000
11fe
1100
7d00
55fe
5520
5520
553c
7d24
1124
1924
1524
1e44
3244
c484
0918
ENDCHAR
STARTCHAR 3343
ENCODING 13123
SWIDTH 960 0
DWIDTH 16 0
BBX 16 16 0 -2
BITMAP
0820
0820
1420
123e
2142
7e62
08a2
0922
7f32
084a
4a7a
2cca
2802
0b02
1c04
6018
ENDCHAR
STARTCHAR 3344
ENCODING 13124
SWIDTH 960 0
DWIDTH 16 0
BBX 16 16 0 -2
BITMAP
0402
3f92
0492
7ff2
0492
3f92
0412
1f12
7fd2
2492
3f92
2492
3f82
0002
7fc2
0006
ENDCHAR
STARTCHAR 3345
ENCODING 13125
SWIDTH 960 0
DWIDTH 16 0
BBX 16 16 0 -2
BITMAP
0210
0210
effc
a210
a210
a210
bffe
a528
a528
b5ac
f56a
956a
2528
0948
0948
1398
ENDCHAR
STARTCHAR 3346
ENCODING 13126
SWIDTH 960 0
DWIDTH 16 0
BBX 16 16 0 -2
BITMAP
0400
0400
0ff0
0820
1440
2280
4180
0640
0820
3018
dff6
1010
1010
1010
1ff0
1010
ENDCHAR
STARTCHAR 3347
ENCODING 13127
SWIDTH 960 0
DWIDTH 16 0
BBX 16 16 0 -2
BITMAP
0100
0100
3ffe
2200
3ffc
2024
2f28
2930
2f28
2024
2f24
2224
43a4
5e38
8220
0620
ENDCHAR
STARTCHAR 3348
ENCODING 13128
SWIDTH 960 0
DWIDTH 16 0
BBX 16 16 0 -2
BITMAP
2020
2020
2020
23fe
fa00
2220
2220
2220
2220
3a20
e248
2448
2484
24bc
2bc2
7002
ENDCHAR
STARTCHAR 3349
ENCODING 13129
SWIDTH 960 0
DWIDTH 16 0
BBX 16 16 0 -2
BITMAP
2488
2248
2250
2ffc
f804
2bf4
2210
23f0
3a10
e3f0
2210
23f0
20a0
2122
2622
781e
ENDCHAR
STARTCHAR 334a
ENCODING 13130
SWIDTH 960 0
DWIDTH 16 0
BBX 16 16 0 -2
BITMAP
1080
1080
10f8
ff08
1190
1150
3a60
3450
3488
5104
53fa
9508
1108
1108
11f8
1108
ENDCHAR
STARTCHAR 334b
ENCODING 13131
SWIDTH 960 0
DWIDTH 16 0
BBX 16 16 0 -2
BITMAP
1040
1040
1040
fffe
1040
1050
3390
38a4
3448
5048
5090
9320
1050
1088
1104
1604
ENDCHAR
STARTCHAR 334c
ENCODING 13132
SWIDTH 960 0
DWIDTH 16 0
BBX 16 16 0 -2
BITMAP
1000
1078
fe48
1048
104a
7c8a
0106
fff8
8108
bd48
2448
2430
2510
2628
44c4
8302
ENDCHAR
STARTCHAR 334d
ENCODING 13133
SWIDTH 960 0
DWIDTH 16 0
BBX 16 16 0 -2
BITMAP
0890
8ffe
5090
2120
23fc
5220
97f8
3220
2bf8
4a20
8ffc
0910
08a0
1040
51b0
260c
ENDCHAR
STARTCHAR 334e
ENCODING 13134
SWIDTH 960 0
DWIDTH 16 0
BBX 16 16 0 -2
BITMAP
0040
fe40
11fe
1144
1248
1090
3cfe
2590
6690
64fc
a490
24fc
3c90
2490
20fe
0080
ENDCHAR
STARTCHAR 334f
ENCODING 13135
SWIDTH 960 0
DWIDTH 16 0
BBX 16 16 0 -2
BITMAP
0488
0bfe
f090
11fc
1120
13fc
fd20
11fc
3920
35fc
5400
53fc
9090
1060
1098
1706
ENDCHAR
STARTCHAR 3350
ENCODING 13136
SWIDTH 960 0
DWIDTH 16 0
BBX 16 16 0 -2
BITMAP
2210
1110
1120
7ffc
4008
9fe0
1020
1fe0
1020
1fe0
1020
1fe0
0480
0882
3082
c07e
ENDCHAR
STARTCHAR 3351
ENCODING 13137
SWIDTH 960 0
DWIDTH 16 0
BBX 16 16 0 -2
BITMAP
0200
03f0
0440
1880
7ffc
1084
1084
1ffc
1084
1084
1ffc
1004
1004
2004
200c
4004
ENDCHAR
STARTCHAR 3352
ENCODING 13138
SWIDTH 960 0
DWIDTH 16 0
BBX 16 16 0 -2
BITMAP
0820
0820
7efc
0820
0820
0820
fffe
1450
1658
5558
55d4
54d4
9554
2490
2490
4d30
ENDCHAR
STARTCHAR 3353
ENCODING 13139
SWIDTH 960 0
DWIDTH 16 0
BBX 16 16 0 -2
BITMAP
1020
1020
fe20
13fe
7c88
5488
5504
7e8a
5488
5450
7c50
1020
fe50
1088
1104
1202
ENDCHAR
STARTCHAR 3354
ENCODING 13140
SWIDTH 960 0
DWIDTH 16 0
BBX 16 16 0 -2
BITMAP
0800
087c
ffc4
0044
3f48
2148
3f50
0048
7f44
0244
0442
0762
fc52
044c
0440
0c40
ENDCHAR
STARTCHAR 3355
ENCODING 13141
SWIDTH 960 0
DWIDTH 16 0
BBX 16 16 0 -2
BITMAP
0000
7e7e
4242
7e7e
4242
7e7e
4102
43e2
4e42
4182
4662
581a
47e2
4422
47e2
4006
ENDCHAR
STARTCHAR 3356
ENCODING 13142
SWIDTH 960 0
DWIDTH 16 0
BBX 16 16 0 -2
BITMAP
0000
7bfc
4800
49f8
5108
61f8
5000
4bfc
4a54
4a54
4a9c
4b04
73fc
4224
4224
422c
ENDCHAR
STARTCHAR 3357
ENCODING 13143
SWIDTH 960 0
DWIDTH 16 0
BBX 16 16 0 -2
BITMAP
0440
0440
7ffc
0440
0440
07c0
0100
1ff0
1110
1110
1ff0
0100
fffe
0100
0100
0100
ENDCHAR
STARTCHAR 3358
ENCODING 13144
SWIDTH 960 0
DWIDTH 16 0
BBX 16 16 0 -2
BITMAP
1108
0888
0890
3ffe
2004
2000
5ff0
0020
00c0
0100
7ffe
0100
0100
0100
0700
0100
ENDCHAR
STARTCHAR 3359
ENCODING 13145
SWIDTH 960 0
DWIDTH 16 0
BBX 16 16 0 -2
BITMAP
0020
00c0
0f00
0800
0ff8
0820
0820
0820
fffe
0100
2108
2108
2108
2108
3ff8
2008
ENDCHAR
STARTCHAR 335a
ENCODING 13146
SWIDTH 960 0
DWIDTH 16 0
BBX 16 16 0 -2
BITMAP
0080
4104
27c4
1448
1450
07c0
0450
1c4c
67c2
0100
fffe
0380
0540
1930
e10e
0100
ENDCHAR
STARTCHAR 335b
ENCODING 13147
SWIDTH 960 0
DWIDTH 16 0
BBX 16 16 0 -2
BITMAP
1000
11fe
7e20
4440
90fc
3c84
4484
a8fc
1884
14fc
2284
7d84
a4fc
2448
3d84
2602
ENDCHAR
STARTCHAR 335c
ENCODING 13148
SWIDTH 960 0
DWIDTH 16 0
BBX 16 16 0 -2
BITMAP
0000
effe
aa20
aa40
eefc
0084
7cfc
0084
fe84
20fc
2084
7c84
44fc
0448
04c4
1982
ENDCHAR
STARTCHAR 335d
ENCODING 13149
SWIDTH 960 0
DWIDTH 16 0
BBX 16 16 0 -2
BITMAP
2108
2108
27c8
2108
f908
2108
2fec
210a
390a
e7c8
2108
2108
2168
2388
2c08
6008
ENDCHAR
STARTCHAR 335e
ENCODING 13150
SWIDTH 960 0
DWIDTH 16 0
BBX 16 16 0 -2
BITMAP
1020
1020
3f7e
4850
8488
0508
0100
7ffc
0010
1010
0820
0420
0440
0080
fffe
0000
ENDCHAR
STARTCHAR 335f
ENCODING 13151
SWIDTH 960 0
DWIDTH 16 0
BBX 16 16 0 -2
BITMAP
2000
2780
257c
fd24
27a4
2498
3790
6d28
6544
6782
a040
23f8
2040
2040
2ffe
2000
ENDCHAR
STARTCHAR 3360
ENCODING 13152
SWIDTH 960 0
DWIDTH 16 0
BBX 16 16 0 -2
BITMAP
1000
17fe
1000
fff8
1248
33f8
3a48
37fe
5400
53f8
9248
13f8
1248
13f8
1000
17fe
ENDCHAR
STARTCHAR 3361
ENCODING 13153
SWIDTH 960 0
DWIDTH 16 0
BBX 16 16 0 -2
BITMAP
1000
13fc
1204
fe04
13fc
1208
3a30
37c0
3240
53fc
5240
93fe
1440
1442
1842
103e
ENDCHAR
STARTCHAR 3362
ENCODING 13154
SWIDTH 960 0
DWIDTH 16 0
BBX 16 16 0 -2
BITMAP
1050
1c90
2710
4914
fd34
57f4
5538
7d50
5590
5790
7d58
0528
6928
5544
5584
8102
ENDCHAR
STARTCHAR 3363
ENCODING 13155
SWIDTH 960 0
DWIDTH 16 0
BBX 16 16 0 -2
BITMAP
1040
0880
0b38
0208
43b8
2208
2208
03f8
0880
08fe
1102
1612
234a
22a2
4482
480c
ENDCHAR
STARTCHAR 3364
ENCODING 13156
SWIDTH 960 0
DWIDTH 16 0
BBX 16 16 0 -2
BITMAP
0402
3fd2
2092
4412
3f92
0412
3f92
0412
7fd2
0012
1f92
1092
1082
1082
1f82
1086
ENDCHAR
STARTCHAR 3365
ENCODING 13157
SWIDTH 960 0
DWIDTH 16 0
BBX 16 16 0 -2
BITMAP
0000
01f8
7908
4908
49f8
4908
4908
49f8
4840
48fe
7912
4be2
0502
0112
00f2
000c
ENDCHAR
STARTCHAR 3366
ENCODING 13158
SWIDTH 960 0
DWIDTH 16 0
BBX 16 16 0 -2
BITMAP
1040
1040
10a0
10a0
1910
5508
5204
55fa
9800
1000
11f8
1108
1108
1108
11f8
1108
ENDCHAR
STARTCHAR 3367
ENCODING 13159
SWIDTH 960 0
DWIDTH 16 0
BBX 16 16 0 -2
BITMAP
2008
2030
23c0
2040
f840
2040
27fe
2040
3840
e040
23f8
2208
2208
2208
23f8
6208
ENDCHAR
STARTCHAR 3368
ENCODING 13160
SWIDTH 960 0
DWIDTH 16 0
BBX 16 16 0 -2
BITMAP
2008
1030
13c0
0040
0040
8040
4ffe
4040
1040
1040
23f8
2208
4208
4208
83f8
8208
ENDCHAR
STARTCHAR 3369
ENCODING 13161
SWIDTH 960 0
DWIDTH 16 0
BBX 16 16 0 -2
BITMAP
1000
09f8
0908
01f8
4108
2108
21f8
0040
08fe
0912
1322
15c2
210a
20fa
4004
4018
ENDCHAR
STARTCHAR 336a
ENCODING 13162
SWIDTH 960 0
DWIDTH 16 0
BBX 16 16 0 -2
BITMAP
2000
13f0
1210
0270
0250
8ffe
4804
4bf0
1210
03f0
2210
23f0
4210
4210
8230
8210
ENDCHAR
STARTCHAR 336b
ENCODING 13163
SWIDTH 960 0
DWIDTH 16 0
BBX 16 16 0 -2
BITMAP
0420
0420
7ffe
0420
0ff0
0810
0ff0
0810
0ff0
0200
07fe
1c62
6782
0412
03f2
000c
ENDCHAR
STARTCHAR 336c
ENCODING 13164
SWIDTH 960 0
DWIDTH 16 0
BBX 16 16 0 -2
BITMAP
0800
08fc
0884
7efc
0284
0484
04fc
0a20
1a3e
2c4a
4ad2
0b62
084a
083a
0802
080c
ENDCHAR
STARTCHAR 336d
ENCODING 13165
SWIDTH 960 0
DWIDTH 16 0
BBX 16 16 0 -2
BITMAP
1020
1020
fffe
1104
7e20
55fc
5420
7cf8
5420
55fe
7c00
10f8
fe88
1088
10f8
1088
ENDCHAR
STARTCHAR 336e
ENCODING 13166
SWIDTH 960 0
DWIDTH 16 0
BBX 16 16 0 -2
BITMAP
0000
1fe0
1020
1020
1020
1fe0
1020
1020
1020
1fe0
1020
1020
1020
1020
fffc
0000
ENDCHAR
STARTCHAR 336f
ENCODING 13167
SWIDTH 960 0
DWIDTH 16 0
BBX 16 16 0 -2
BITMAP
1000
1de0
257c
4954
fdf4
5534
55e8
7d4c
5554
55e2
7c20
0af8
6520
5420
53fe
8000
ENDCHAR
STARTCHAR 3370
ENCODING 13168
SWIDTH 960 0
DWIDTH 16 0
BBX 16 16 0 -2
BITMAP
0020
0020
7c20
4420
4420
4420
47fe
4420
4420
4420
4420
7c20
4420
4020
0020
0020
ENDCHAR
STARTCHAR 3371
ENCODING 13169
SWIDTH 960 0
DWIDTH 16 0
BBX 16 16 0 -2
BITMAP
1110
1110
17fe
fd10
1110
10a0
38a0
3524
3128
5330
5520
9120
1120
1122
1122
111e
ENDCHAR
STARTCHAR 3372
ENCODING 13170
SWIDTH 960 0
DWIDTH 16 0
BBX 16 16 0 -2
BITMAP
1090
1090
17fe
f890
17fc
1148
3948
37fe
3148
5148
57fc
9040
17fe
1040
1040
1040
ENDCHAR
STARTCHAR 3373
ENCODING 13171
SWIDTH 960 0
DWIDTH 16 0
BBX 16 16 0 -2
BITMAP
2440
2440
fe40
24fc
2484
3cf4
1114
7e14
52f4
5284
7e84
1098
ff80
1082
1082
107e
ENDCHAR
STARTCHAR 3374
ENCODING 13172
SWIDTH 960 0
DWIDTH 16 0
BBX 16 16 0 -2
BITMAP
1020
1120
1120
fd20
13fc
1220
3a20
3420
37fe
5060
50b0
90b0
1128
1224
1422
1020
ENDCHAR
STARTCHAR 3375
ENCODING 13173
SWIDTH 960 0
DWIDTH 16 0
BBX 16 16 0 -2
BITMAP
0900
1200
67b8
4488
4488
4788
4488
4488
77b8
4008
0480
0480
0484
0884
3084
c07c
ENDCHAR
STARTCHAR 3376
ENCODING 13174
SWIDTH 960 0
DWIDTH 16 0
BBX 16 16 0 -2
BITMAP
0100
3ffe
2524
4bde
1100
7ffe
0910
0ff0
0910
1ff8
1108
1ff8
1108
1ffa
0102
00fe
ENDCHAR
STARTCHAR 3377
ENCODING 13175
SWIDTH 960 0
DWIDTH 16 0
BBX 16 16 0 -2
BITMAP
0440
0440
fffe
0450
3048
0ffc
0040
c3f8
2248
03f8
1248
13f8
2248
2248
4248
8258
ENDCHAR
STARTCHAR 3378
ENCODING 13176
SWIDTH 960 0
DWIDTH 16 0
BBX 16 16 0 -2
BITMAP
0440
0830
1448
6284
0100
06c0
1830
efee
0100
0100
fffe
1110
0910
0920
7ffc
0000
ENDCHAR
STARTCHAR 3379
ENCODING 13177
SWIDTH 960 0
DWIDTH 16 0
BBX 16 16 0 -2
BITMAP
1110
10a0
2ffe
24a0
43f8
fca8
10a8
13fe
fca8
13f8
90b0
59a8
51a4
1ea2
34a0
c0a0
ENDCHAR
STARTCHAR 337a
ENCODING 13178
SWIDTH 960 0
DWIDTH 16 0
BBX 16 16 0 -2
BITMAP
0040
0240
f27c
9240
9240
9ffe
9444
9554
94e4
97fc
9444
f4e4
9554
0644
07fc
0404
ENDCHAR
STARTCHAR 337b
ENCODING 13179
SWIDTH 960 0
DWIDTH 16 0
BBX 16 16 0 -2
BITMAP
0040
fc80
95f8
9508
95f8
fd08
95f8
9500
95fe
fd00
11fc
1054
132c
12a4
1484
1818
ENDCHAR
STARTCHAR 337c
ENCODING 13180
SWIDTH 960 0
DWIDTH 16 0
BBX 16 16 0 -2
BITMAP
1000
17fe
1040
fc40
1080
11f8
3908
3508
3508
51f8
5108
9108
1108
1108
11f8
1108
ENDCHAR
STARTCHAR 337d
ENCODING 13181
SWIDTH 960 0
DWIDTH 16 0
BBX 16 16 0 -2
BITMAP
0420
0420
fffe
0420
1ff0
0020
0640
0180
fffc
0188
0290
0480
0880
3080
c380
0080
ENDCHAR
STARTCHAR 337e
ENCODING 13182
SWIDTH 960 0
DWIDTH 16 0
BBX 16 16 0 -2
BITMAP
0820
0820
7ffe
0820
0100
3ffe
2004
5ff8
0000
0ff0
0810
0ff0
0810
0ff0
0000
7ffe
ENDCHAR
STARTCHAR 3421
ENCODING 13345
SWIDTH 960 0
DWIDTH 16 0
BBX 16 16 0 -2
BITMAP
0000
789e
0ca2
0aa2
0ac2
388e
27f8
2088
39ce
09c2
0aa2
0aa2
0c92
0882
1084
6018
ENDCHAR
STARTCHAR 3422
ENCODING 13346
SWIDTH 960 0
DWIDTH 16 0
BBX 16 16 0 -2
BITMAP
0204
0244
0244
0244
4244
2244
1444
0c44
0444
0a44
0a44
1104
1104
2104
401c
8004
ENDCHAR
STARTCHAR 3423
ENCODING 13347
SWIDTH 960 0
DWIDTH 16 0
BBX 16 16 0 -2
BITMAP
0420
0420
fffe
0420
0424
0204
6244
1244
0c44
0444
0a44
0a44
1104
2104
411c
8004
ENDCHAR
STARTCHAR 3424
ENCODING 13348
SWIDTH 960 0
DWIDTH 16 0
BBX 16 16 0 -2
BITMAP
0000
7ffc
0400
0400
0400
07e0
0420
0420
0620
0520
0920
0820
0820
0ba4
1c24
e01c
ENDCHAR
STARTCHAR 3425
ENCODING 13349
SWIDTH 960 0
DWIDTH 16 0
BBX 16 16 0 -2
BITMAP
1080
1080
fe80
10fe
7c80
4500
45f8
7e08
4410
4420
7c40
1040
ff84
1084
1084
107c
ENDCHAR
STARTCHAR 3426
ENCODING 13350
SWIDTH 960 0
DWIDTH 16 0
BBX 16 16 0 -2
BITMAP
0800
0bf8
0a08
1208
1208
23f8
2000
6248
a248
2248
2248
2248
2248
244a
244a
2806
ENDCHAR
STARTCHAR 3427
ENCODING 13351
SWIDTH 960 0
DWIDTH 16 0
BBX 16 16 0 -2
BITMAP
0000
3ffe
2004
4000
3f08
0008
00fe
7f08
1288
1248
1248
1208
1208
221a
2102
40fe
ENDCHAR
STARTCHAR 3428
ENCODING 13352
SWIDTH 960 0
DWIDTH 16 0
BBX 16 16 0 -2
BITMAP
0100
0100
7ffe
4002
4442
1ff8
0440
1ff8
0440
7ffe
0420
1998
6046
0f00
00e0
0010
ENDCHAR
STARTCHAR 3429
ENCODING 13353
SWIDTH 960 0
DWIDTH 16 0
BBX 16 16 0 -2
BITMAP
0004
7f44
0844
0844
0844
0844
ffc4
0844
0844
0844
0844
0804
0804
0804
081c
0804
ENDCHAR
STARTCHAR 342a
ENCODING 13354
SWIDTH 960 0
DWIDTH 16 0
BBX 16 16 0 -2
BITMAP
1110
1110
7f90
1110
1f7e
1112
1f12
1112
7f92
2a12
2a12
2aa2
31a2
2022
3f42
208c
ENDCHAR
STARTCHAR 342b
ENCODING 13355
SWIDTH 960 0
DWIDTH 16 0
BBX 16 16 0 -2
BITMAP
1010
1010
1f90
2410
247e
5f92
0912
1212
3f92
5212
1f22
1222
1f22
1242
1fc2
108c
ENDCHAR
STARTCHAR 342c
ENCODING 13356
SWIDTH 960 0
DWIDTH 16 0
BBX 16 16 0 -2
BITMAP
1110
0910
0920
3ffc
0100
0280
fffe
0440
0fe0
3038
c026
0fe0
0800
0810
0810
07f0
ENDCHAR
STARTCHAR 342d
ENCODING 13357
SWIDTH 960 0
DWIDTH 16 0
BBX 16 16 0 -2
BITMAP
0100
01f0
f220
9440
9ff8
9548
9548
9558
9538
9608
f448
9ffe
0040
00a0
0318
1c06
ENDCHAR
STARTCHAR 342e
ENCODING 13358
SWIDTH 960 0
DWIDTH 16 0
BBX 16 16 0 -2
BITMAP
0108
2108
27fe
2108
21f8
f908
21f8
2108
2108
2ffe
24a0
2ca4
351c
c600
07fe
0400
ENDCHAR
STARTCHAR 342f
ENCODING 13359
SWIDTH 960 0
DWIDTH 16 0
BBX 16 16 0 -2
BITMAP
0200
0200
7ff8
0440
0880
1f00
04e0
7810
0820
fffe
1248
1248
7be8
0c30
1658
e184
ENDCHAR
STARTCHAR 3430
ENCODING 13360
SWIDTH 960 0
DWIDTH 16 0
BBX 16 16 0 -2
BITMAP
0100
0100
3ffe
2004
4000
1ff8
0000
0000
7ffe
0240
0240
0240
0442
0842
1022
601e
ENDCHAR
STARTCHAR 3431
ENCODING 13361
SWIDTH 960 0
DWIDTH 16 0
BBX 16 16 0 -2
BITMAP
0200
0200
7ffc
4008
9fe0
1020
1020
1fe0
1020
1000
1ff0
1010
1010
1010
1ff0
1010
ENDCHAR
STARTCHAR 3432
ENCODING 13362
SWIDTH 960 0
DWIDTH 16 0
BBX 16 16 0 -2
BITMAP
0100
0100
3ffe
2424
3ff8
4420
0ff0
0810
0ff0
0810
0ff0
0810
0ff2
0242
0c42
703e
ENDCHAR
STARTCHAR 3433
ENCODING 13363
SWIDTH 960 0
DWIDTH 16 0
BBX 16 16 0 -2
BITMAP
0000
3ff8
0100
0100
0100
0100
0104
fffe
0100
0100
0100
0100
0100
0100
0100
0100
ENDCHAR
STARTCHAR 3434
ENCODING 13364
SWIDTH 960 0
DWIDTH 16 0
BBX 16 16 0 -2
BITMAP
1020
1020
fe50
1050
7c88
4504
46fa
7c20
4420
4420
7ffe
1020
fe20
1020
1020
1020
ENDCHAR
STARTCHAR 3435
ENCODING 13365
SWIDTH 960 0
DWIDTH 16 0
BBX 16 16 0 -2
BITMAP
0200
0200
7ff0
4210
7ff0
0200
7ff0
4210
7ff0
4210
0200
2910
2908
4824
8424
03e0
ENDCHAR
STARTCHAR 3436
ENCODING 13366
SWIDTH 960 0
DWIDTH 16 0
BBX 16 16 0 -2
BITMAP
0090
0088
3ffe
2080
3f48
2048
2f30
2920
2f54
408c
8104
2488
2484
4412
8212
01f0
ENDCHAR
STARTCHAR 3437
ENCODING 13367
SWIDTH 960 0
DWIDTH 16 0
BBX 16 16 0 -2
BITMAP
1000
11fc
1124
17fe
1248
5bf8
5400
57f8
9208
13f8
1208
13f8
1208
13f8
1098
1706
ENDCHAR
STARTCHAR 3438
ENCODING 13368
SWIDTH 960 0
DWIDTH 16 0
BBX 16 16 0 -2
BITMAP
1028
1024
13fe
1220
53e4
5a14
57d8
5348
95da
1526
1842
12a0
12a4
148a
188a
1078
ENDCHAR
STARTCHAR 3439
ENCODING 13369
SWIDTH 960 0
DWIDTH 16 0
BBX 16 16 0 -2
BITMAP
2080
20f8
2110
fa20
27fc
2ca4
24a4
24a4
3d1c
e644
2444
2ffe
20c0
2120
2218
6c06
ENDCHAR
STARTCHAR 343a
ENCODING 13370
SWIDTH 960 0
DWIDTH 16 0
BBX 16 16 0 -2
BITMAP
0040
7f40
0840
087e
ff48
2288
22c8
3f48
2228
3e28
2230
2310
3e28
e248
0284
0302
ENDCHAR
STARTCHAR 343b
ENCODING 13371
SWIDTH 960 0
DWIDTH 16 0
BBX 16 16 0 -2
BITMAP
1088
1088
1088
fe88
13fe
1088
3888
3488
3288
52f8
5088
9088
1088
1088
10f8
1088
ENDCHAR
STARTCHAR 343c
ENCODING 13372
SWIDTH 960 0
DWIDTH 16 0
BBX 16 16 0 -2
BITMAP
1000
13fc
1000
fc00
11f8
1108
3908
35f8
3508
5108
5108
91f8
1108
1000
17fe
1000
ENDCHAR
STARTCHAR 343d
ENCODING 13373
SWIDTH 960 0
DWIDTH 16 0
BBX 16 16 0 -2
BITMAP
1040
1040
13fe
fa04
1200
15f0
3910
3510
35f0
5100
5100
91f8
1108
1108
11f8
1108
ENDCHAR
STARTCHAR 343e
ENCODING 13374
SWIDTH 960 0
DWIDTH 16 0
BBX 16 16 0 -2
BITMAP
1040
1040
fe40
107e
1084
7ea8
0120
7e20
0020
ff20
1050
5450
5248
9288
1104
3202
ENDCHAR
STARTCHAR 343f
ENCODING 13375
SWIDTH 960 0
DWIDTH 16 0
BBX 16 16 0 -2
BITMAP
2040
2040
3f40
487e
8844
ffa8
12b0
2520
3f20
6420
be50
2450
3e48
2488
3f04
2202
ENDCHAR
STARTCHAR 3440
ENCODING 13376
SWIDTH 960 0
DWIDTH 16 0
BBX 16 16 0 -2
BITMAP
2000
17fc
1040
0040
8040
4040
4040
0ffe
1040
1040
2040
2040
4040
4040
8040
8040
ENDCHAR
STARTCHAR 3441
ENCODING 13377
SWIDTH 960 0
DWIDTH 16 0
BBX 16 16 0 -2
BITMAP
2110
1110
1ffe
0110
8000
47fc
4444
0444
17fc
1040
27f8
2040
4ffe
40a0
8318
8c06
ENDCHAR
STARTCHAR 3442
ENCODING 13378
SWIDTH 960 0
DWIDTH 16 0
BBX 16 16 0 -2
BITMAP
1000
0bde
0a52
03de
4252
2252
23de
0202
0afa
0a8a
12fa
128a
228a
22fa
428a
4206
ENDCHAR
STARTCHAR 3443
ENCODING 13379
SWIDTH 960 0
DWIDTH 16 0
BBX 16 16 0 -2
BITMAP
4200
2200
23fc
0280
8480
47fe
4910
0220
07fc
1a20
23f8
2220
43f8
4220
83fe
8200
ENDCHAR
STARTCHAR 3444
ENCODING 13380
SWIDTH 960 0
DWIDTH 16 0
BBX 16 16 0 -2
BITMAP
0000
03f8
fea8
22a8
23f8
2000
2ffe
f800
23f8
2208
23f8
29c4
32a8
ec98
0086
0080
ENDCHAR
STARTCHAR 3445
ENCODING 13381
SWIDTH 960 0
DWIDTH 16 0
BBX 16 16 0 -2
BITMAP
0820
0820
0820
0820
fffe
0820
0820
0820
0820
0fe0
0820
0820
0820
0820
0fe0
0820
ENDCHAR
STARTCHAR 3446
ENCODING 13382
SWIDTH 960 0
DWIDTH 16 0
BBX 16 16 0 -2
BITMAP
0040
7e40
4840
487e
7e80
4280
7f7c
4800
7e00
0000
3ff8
2448
2448
2448
fffe
0000
ENDCHAR
STARTCHAR 3447
ENCODING 13383
SWIDTH 960 0
DWIDTH 16 0
BBX 16 16 0 -2
BITMAP
0010
00e0
1f00
0100
3ff8
0200
fffe
0400
0ff0
1410
27f0
4410
07f0
0410
07f0
0410
ENDCHAR
STARTCHAR 3448
ENCODING 13384
SWIDTH 960 0
DWIDTH 16 0
BBX 16 16 0 -2
BITMAP
1040
1040
3f7e
4890
8508
0000
3ff8
0100
0100
0100
fffe
0100
0100
0100
0100
0100
ENDCHAR
STARTCHAR 3449
ENCODING 13385
SWIDTH 960 0
DWIDTH 16 0
BBX 16 16 0 -2
BITMAP
2040
2040
7efe
48a0
8510
7ffc
4008
9fe0
1020
1fe0
1000
1ff0
1010
1010
1ff0
1010
ENDCHAR
STARTCHAR 344a
ENCODING 13386
SWIDTH 960 0
DWIDTH 16 0
BBX 16 16 0 -2
BITMAP
2040
3f7e
48a0
8510
7efc
4284
7efc
4284
7efc
4004
4fc4
4844
4fc4
4844
4fc4
400c
ENDCHAR
STARTCHAR 344b
ENCODING 13387
SWIDTH 960 0
DWIDTH 16 0
BBX 16 16 0 -2
BITMAP
1008
1034
17c4
e448
2928
10b0
1bfc
2480
fbfe
1080
58f8
5548
5530
5620
90d8
1306
ENDCHAR
STARTCHAR 344c
ENCODING 13388
SWIDTH 960 0
DWIDTH 16 0
BBX 16 16 0 -2
BITMAP
1000
1000
1000
1ff8
2100
2100
4100
8100
fffe
0100
2108
2108
2108
2108
3ff8
2008
ENDCHAR
STARTCHAR 344d
ENCODING 13389
SWIDTH 960 0
DWIDTH 16 0
BBX 16 16 0 -2
BITMAP
1020
1020
fe50
1088
7d04
47fe
4444
7e64
4554
4554
7c44
10cc
ff54
1264
1044
10cc
ENDCHAR
STARTCHAR 344e
ENCODING 13390
SWIDTH 960 0
DWIDTH 16 0
BBX 16 16 0 -2
BITMAP
0000
7dfc
4420
4420
4420
7c20
4420
47fe
4420
7c20
4420
4420
4420
4420
4c20
8420
ENDCHAR
STARTCHAR 344f
ENCODING 13391
SWIDTH 960 0
DWIDTH 16 0
BBX 16 16 0 -2
BITMAP
0808
11e8
7d48
454e
65f0
5520
55e0
ff5e
45e0
6400
55fc
5554
5554
4554
4ffe
8400
ENDCHAR
STARTCHAR 3450
ENCODING 13392
SWIDTH 960 0
DWIDTH 16 0
BBX 16 16 0 -2
BITMAP
0820
0820
fffe
0820
0100
7ffc
4008
5fe0
8000
0000
fffc
0480
0480
0884
3084
c07c
ENDCHAR
STARTCHAR 3451
ENCODING 13393
SWIDTH 960 0
DWIDTH 16 0
BBX 16 16 0 -2
BITMAP
2000
20fc
7e84
5084
90fc
ff84
2484
28fc
7e84
c884
7efc
4850
7e50
4892
7f12
420e
ENDCHAR
STARTCHAR 3452
ENCODING 13394
SWIDTH 960 0
DWIDTH 16 0
BBX 16 16 0 -2
BITMAP
0020
7820
03fe
fe20
01f8
7d28
0128
01f8
7d28
0128
7df8
4470
44a8
4524
7e22
4420
ENDCHAR
STARTCHAR 3453
ENCODING 13395
SWIDTH 960 0
DWIDTH 16 0
BBX 16 16 0 -2
BITMAP
0000
1ff0
1110
fffe
2220
3fe0
0000
1ff0
1010
1ff0
1010
1ff0
1010
1ff0
0830
700c
ENDCHAR
STARTCHAR 3454
ENCODING 13396
SWIDTH 960 0
DWIDTH 16 0
BBX 16 16 0 -2
BITMAP
0000
47f8
2528
27f8
0000
1ffe
0000
f3f0
1210
13f0
1184
12c8
2cb0
248e
4380
80fe
ENDCHAR
STARTCHAR 3455
ENCODING 13397
SWIDTH 960 0
DWIDTH 16 0
BBX 16 16 0 -2
BITMAP
1008
11e8
2948
254e
41f0
fd20
11e0
115e
ffe0
1000
95fc
5954
5354
1d54
33fe
c000
ENDCHAR
STARTCHAR 3456
ENCODING 13398
SWIDTH 960 0
DWIDTH 16 0
BBX 16 16 0 -2
BITMAP
0000
7e7e
4242
7e7e
4242
4242
7e7e
4002
47e2
4422
47e2
4422
47e2
4422
4006
4002
ENDCHAR
STARTCHAR 3457
ENCODING 13399
SWIDTH 960 0
DWIDTH 16 0
BBX 16 16 0 -2
BITMAP
0000
7e7e
4242
7e7e
4242
7e7e
4102
4102
5ff2
4102
4382
4542
4922
5112
4106
4002
ENDCHAR
STARTCHAR 3458
ENCODING 13400
SWIDTH 960 0
DWIDTH 16 0
BBX 16 16 0 -2
BITMAP
0000
7e7e
4242
7e7e
4242
7e7e
4422
4242
4ff2
4102
4102
5ffa
4142
4222
4416
4802
ENDCHAR
STARTCHAR 3459
ENCODING 13401
SWIDTH 960 0
DWIDTH 16 0
BBX 16 16 0 -2
BITMAP
0040
7840
4878
4888
5090
6110
5020
527c
4a44
4a44
4a7c
4a44
7244
4244
427c
4244
ENDCHAR
STARTCHAR 345a
ENCODING 13402
SWIDTH 960 0
DWIDTH 16 0
BBX 16 16 0 -2
BITMAP
1020
11f8
fe48
1048
7ffe
4400
45f8
7d08
45fc
4410
7cfc
1090
fe90
13fe
1010
1010
ENDCHAR
STARTCHAR 345b
ENCODING 13403
SWIDTH 960 0
DWIDTH 16 0
BBX 16 16 0 -2
BITMAP
1020
1020
29fe
2504
5200
fcf8
4488
7c88
44f8
4480
7c80
48fc
4484
4c84
72fc
c084
ENDCHAR
STARTCHAR 345c
ENCODING 13404
SWIDTH 960 0
DWIDTH 16 0
BBX 16 16 0 -2
BITMAP
1020
1020
29fe
2504
4200
bcf8
1088
1088
fef8
1080
7c80
44fc
4484
4484
7cfc
4484
ENDCHAR
STARTCHAR 345d
ENCODING 13405
SWIDTH 960 0
DWIDTH 16 0
BBX 16 16 0 -2
BITMAP
0200
0200
0200
0200
7ff0
0210
0210
0a10
0610
0210
0510
0490
0892
1012
2012
400e
ENDCHAR
STARTCHAR 345e
ENCODING 13406
SWIDTH 960 0
DWIDTH 16 0
BBX 16 16 0 -2
BITMAP
0100
0100
0280
0440
0fe0
3018
c006
1fe0
0020
0040
0080
1ff0
1010
1010
1ff0
1010
ENDCHAR
STARTCHAR 345f
ENCODING 13407
SWIDTH 960 0
DWIDTH 16 0
BBX 16 16 0 -2
BITMAP
0100
2108
2108
3ff8
0000
3ffe
2000
2ff8
2080
2080
3ffe
2080
4080
4080
8080
0080
ENDCHAR
STARTCHAR 3460
ENCODING 13408
SWIDTH 960 0
DWIDTH 16 0
BBX 16 16 0 -2
BITMAP
2084
2084
3ffc
0a10
3ffe
2f20
2420
3fbe
2948
2f48
29a8
2f10
2910
4f28
5944
8182
ENDCHAR
STARTCHAR 3461
ENCODING 13409
SWIDTH 960 0
DWIDTH 16 0
BBX 16 16 0 -2
BITMAP
0000
01f8
fc00
2000
2000
2000
27fe
f890
2090
2090
2090
2c90
3110
c112
020e
0400
ENDCHAR
STARTCHAR 3462
ENCODING 13410
SWIDTH 960 0
DWIDTH 16 0
BBX 16 16 0 -2
BITMAP
0040
0040
0ffe
0800
49f8
2908
29f8
0800
1f9e
2c92
4fde
1044
1444
2444
47fc
0404
ENDCHAR
STARTCHAR 3463
ENCODING 13411
SWIDTH 960 0
DWIDTH 16 0
BBX 16 16 0 -2
BITMAP
0000
79f8
4908
4908
49f8
7908
4908
49fc
7924
4928
4928
4910
7910
4968
0184
0702
ENDCHAR
STARTCHAR 3464
ENCODING 13412
SWIDTH 960 0
DWIDTH 16 0
BBX 16 16 0 -2
BITMAP
0100
2108
2108
2108
3ff8
0000
0000
fffe
0400
0800
1ff0
2810
c810
0810
0ff0
0810
ENDCHAR
STARTCHAR 3465
ENCODING 13413
SWIDTH 960 0
DWIDTH 16 0
BBX 16 16 0 -2
BITMAP
0000
ff7c
1100
9900
5500
3300
ddfe
3328
1028
7e28
4228
7e28
4228
424a
7e4a
4286
ENDCHAR
STARTCHAR 3466
ENCODING 13414
SWIDTH 960 0
DWIDTH 16 0
BBX 16 16 0 -2
BITMAP
0000
3ffc
2490
25fc
2b20
3df8
2920
2ffe
2410
27f0
2410
27f0
4410
47f0
8630
380c
ENDCHAR
STARTCHAR 3467
ENCODING 13415
SWIDTH 960 0
DWIDTH 16 0
BBX 16 16 0 -2
BITMAP
0000
3ffe
2240
2248
2290
24fc
2590
2e90
34fc
2490
2490
24fc
4490
4490
84fe
0480
ENDCHAR
STARTCHAR 3468
ENCODING 13416
SWIDTH 960 0
DWIDTH 16 0
BBX 16 16 0 -2
BITMAP
0000
03fe
7c20
0040
01fc
0104
ff04
29fc
2904
29fc
2904
2b04
4dfc
4848
8184
0602
ENDCHAR
STARTCHAR 3469
ENCODING 13417
SWIDTH 960 0
DWIDTH 16 0
BBX 16 16 0 -2
BITMAP
1000
11fe
fe20
4440
28fc
7e84
4484
48fc
5284
44fc
4884
5184
42fc
8448
1884
6302
ENDCHAR
STARTCHAR 346a
ENCODING 13418
SWIDTH 960 0
DWIDTH 16 0
BBX 16 16 0 -2
BITMAP
0000
7ffe
4410
4820
5f7c
5144
5f44
517c
5144
5f7c
4444
5644
557c
94a8
a444
0d82
ENDCHAR
STARTCHAR 346b
ENCODING 13419
SWIDTH 960 0
DWIDTH 16 0
BBX 16 16 0 -2
BITMAP
0100
0100
0280
0440
0820
3118
c106
0100
11f8
1100
1100
1100
1100
1100
fffe
0000
ENDCHAR
STARTCHAR 346c
ENCODING 13420
SWIDTH 960 0
DWIDTH 16 0
BBX 16 16 0 -2
BITMAP
0840
0840
0840
1ffe
1040
3040
3040
57f8
9108
1090
1090
1060
1060
1090
1108
1606
ENDCHAR
STARTCHAR 346d
ENCODING 13421
SWIDTH 960 0
DWIDTH 16 0
BBX 16 16 0 -2
BITMAP
0400
07f0
0820
1040
3ffe
5000
1000
13f8
1208
1208
1208
1230
2202
2202
4102
00fe
ENDCHAR
STARTCHAR 346e
ENCODING 13422
SWIDTH 960 0
DWIDTH 16 0
BBX 16 16 0 -2
BITMAP
0100
7ffe
0100
3ffc
0000
1ff8
1008
1ff8
0810
0420
fffe
0000
1ff8
1008
1ff8
1008
ENDCHAR
STARTCHAR 346f
ENCODING 13423
SWIDTH 960 0
DWIDTH 16 0
BBX 16 16 0 -2
BITMAP
0000
3ef8
2288
2288
3ef8
2288
0100
fffe
0280
0c60
3018
fefe
2288
2288
3ef8
2288
ENDCHAR
STARTCHAR 3470
ENCODING 13424
SWIDTH 960 0
DWIDTH 16 0
BBX 16 16 0 -2
BITMAP
0820
0820
7ffc
0820
0fe0
0820
0fe0
0820
fffe
0920
1110
2fe8
c106
0100
7ffc
0000
ENDCHAR
STARTCHAR 3471
ENCODING 13425
SWIDTH 960 0
DWIDTH 16 0
BBX 16 16 0 -2
BITMAP
0100
0100
7ffc
0280
0440
1830
0000
fffe
0010
1f90
1090
1090
1f90
1090
0010
0030
ENDCHAR
STARTCHAR 3472
ENCODING 13426
SWIDTH 960 0
DWIDTH 16 0
BBX 16 16 0 -2
BITMAP
1020
13fe
1020
11fc
fc00
25fc
2504
25fc
4488
4850
fbfe
0c00
15fc
2104
c1fc
0104
ENDCHAR
STARTCHAR 3473
ENCODING 13427
SWIDTH 960 0
DWIDTH 16 0
BBX 16 16 0 -2
BITMAP
0100
0100
3ffe
2104
5ff8
0180
0240
0c30
7ffe
0010
1f90
1090
1090
1f90
1090
0030
ENDCHAR
STARTCHAR 3474
ENCODING 13428
SWIDTH 960 0
DWIDTH 16 0
BBX 16 16 0 -2
BITMAP
2040
2040
27fe
a840
a840
a840
aff8
a908
a910
a890
a8a0
f860
8860
8090
0308
0c06
ENDCHAR
STARTCHAR 3475
ENCODING 13429
SWIDTH 960 0
DWIDTH 16 0
BBX 16 16 0 -2
BITMAP
0c08
0330
00c0
0760
7910
0200
fffe
0480
0880
1ffc
2884
4884
8884
0884
0898
0080
ENDCHAR
STARTCHAR 3476
ENCODING 13430
SWIDTH 960 0
DWIDTH 16 0
BBX 16 16 0 -2
BITMAP
1120
1120
65c8
1528
0910
1528
1d38
63e4
0110
fffe
0880
0c88
1250
1064
2194
460c
ENDCHAR
STARTCHAR 3477
ENCODING 13431
SWIDTH 960 0
DWIDTH 16 0
BBX 16 16 0 -2
BITMAP
0000
3fe0
0020
0020
3fe0
2000
2010
2010
1ff0
0100
2488
2444
2442
4412
8210
01f0
ENDCHAR
STARTCHAR 3478
ENCODING 13432
SWIDTH 960 0
DWIDTH 16 0
BBX 16 16 0 -2
BITMAP
2000
23fc
2248
2440
fbfc
2040
23f8
2248
3bf8
e248
2248
23f8
2040
2ffe
2040
6040
ENDCHAR
STARTCHAR 3479
ENCODING 13433
SWIDTH 960 0
DWIDTH 16 0
BBX 16 16 0 -2
BITMAP
1000
10f0
1090
fe90
1090
1090
3890
3490
3490
5090
5110
9110
1210
1212
1412
180e
ENDCHAR
STARTCHAR 347a
ENCODING 13434
SWIDTH 960 0
DWIDTH 16 0
BBX 16 16 0 -2
BITMAP
1080
1080
10fe
fd00
2288
27fe
2088
3cf8
2488
24f8
2488
27fe
4410
4448
8484
1b04
ENDCHAR
STARTCHAR 347b
ENCODING 13435
SWIDTH 960 0
DWIDTH 16 0
BBX 16 16 0 -2
BITMAP
0000
7dfc
4490
4490
7c90
4490
4490
7ffe
4030
4830
4430
4450
5a50
6292
c112
060e
ENDCHAR
STARTCHAR 347c
ENCODING 13436
SWIDTH 960 0
DWIDTH 16 0
BBX 16 16 0 -2
BITMAP
1100
113e
7fe2
1122
1122
1f3e
1122
1122
1f22
113e
1122
7fe2
1222
1142
2146
4082
ENDCHAR
STARTCHAR 347d
ENCODING 13437
SWIDTH 960 0
DWIDTH 16 0
BBX 16 16 0 -2
BITMAP
1088
1088
13fe
fe88
1088
10f8
3888
3488
32f8
5088
5088
97fe
1010
1088
1104
1604
ENDCHAR
STARTCHAR 347e
ENCODING 13438
SWIDTH 960 0
DWIDTH 16 0
BBX 16 16 0 -2
BITMAP
0100
fffe
0260
0418
3ff4
1110
fffe
1110
1ff0
0100
fffe
0540
0920
3118
c106
0100
ENDCHAR
STARTCHAR 3521
ENCODING 13601
SWIDTH 960 0
DWIDTH 16 0
BBX 16 16 0 -2
BITMAP
1148
1148
16f0
f948
1154
12fa
37c8
3844
37fe
5128
5128
9190
1252
122a
1446
1882
ENDCHAR
STARTCHAR 3522
ENCODING 13602
SWIDTH 960 0
DWIDTH 16 0
BBX 16 16 0 -2
BITMAP
1000
13f8
1008
51f8
5008
53f8
5000
57fe
5442
9442
13f8
1248
1248
2248
2258
4040
ENDCHAR
STARTCHAR 3523
ENCODING 13603
SWIDTH 960 0
DWIDTH 16 0
BBX 16 16 0 -2
BITMAP
0800
0878
7f48
2248
144a
ff4a
1086
2900
4af8
1648
2648
4d28
1490
2428
44c4
1b02
ENDCHAR
STARTCHAR 3524
ENCODING 13604
SWIDTH 960 0
DWIDTH 16 0
BBX 16 16 0 -2
BITMAP
1000
1000
1ffc
2000
2ff0
4000
8000
3ff0
0090
1890
0510
0310
048a
084a
3006
c002
ENDCHAR
STARTCHAR 3525
ENCODING 13605
SWIDTH 960 0
DWIDTH 16 0
BBX 16 16 0 -2
BITMAP
2200
1200
13fc
0400
05f0
8800
4000
4ff0
0010
1010
2010
2010
400a
400a
8006
8002
ENDCHAR
STARTCHAR 3526
ENCODING 13606
SWIDTH 960 0
DWIDTH 16 0
BBX 16 16 0 -2
BITMAP
1120
1528
65c8
1930
0910
1528
7d7c
02a4
fffe
3e90
2a90
3e60
2a24
2a54
3e8c
0304
ENDCHAR
STARTCHAR 3527
ENCODING 13607
SWIDTH 960 0
DWIDTH 16 0
BBX 16 16 0 -2
BITMAP
1008
1030
11c0
fd00
0500
09fe
0910
1110
3910
5510
9310
1110
1210
1210
1410
1010
ENDCHAR
STARTCHAR 3528
ENCODING 13608
SWIDTH 960 0
DWIDTH 16 0
BBX 16 16 0 -2
BITMAP
0010
0060
3f80
0100
fffe
0380
0540
1930
e10e
0fe0
0080
0100
fffe
0100
0100
0300
ENDCHAR
STARTCHAR 3529
ENCODING 13609
SWIDTH 960 0
DWIDTH 16 0
BBX 16 16 0 -2
BITMAP
0408
18c8
f030
13c8
1040
fffe
10a0
38a0
35fc
31a4
52a4
54a4
90a4
10b8
10a0
1020
ENDCHAR
STARTCHAR 352a
ENCODING 13610
SWIDTH 960 0
DWIDTH 16 0
BBX 16 16 0 -2
BITMAP
1000
10fc
1404
e404
2804
1004
18fc
2480
fa80
1280
5080
5480
5282
5242
903e
1000
ENDCHAR
STARTCHAR 352b
ENCODING 13611
SWIDTH 960 0
DWIDTH 16 0
BBX 16 16 0 -2
BITMAP
1220
1aa0
2aa0
2fbe
4248
9248
15a8
2d28
22a8
6fa8
a250
2b10
2a98
2a28
3244
2282
ENDCHAR
STARTCHAR 352c
ENCODING 13612
SWIDTH 960 0
DWIDTH 16 0
BBX 16 16 0 -2
BITMAP
1000
11f8
1108
7f08
11f8
1108
1108
fff8
1108
1908
29f8
24a0
24a0
4122
4212
8c0e
ENDCHAR
STARTCHAR 352d
ENCODING 13613
SWIDTH 960 0
DWIDTH 16 0
BBX 16 16 0 -2
BITMAP
0000
7cfc
0004
ff04
0004
7e04
00fc
7e80
0080
0080
7e80
4280
4282
4242
7e3e
4200
ENDCHAR
STARTCHAR 352e
ENCODING 13614
SWIDTH 960 0
DWIDTH 16 0
BBX 16 16 0 -2
BITMAP
0100
1fe0
1120
1fe0
0100
fffc
0000
1fe0
1020
1fe0
1020
1fe0
1020
1fe0
0c30
7008
ENDCHAR
STARTCHAR 352f
ENCODING 13615
SWIDTH 960 0
DWIDTH 16 0
BBX 16 16 0 -2
BITMAP
0800
087c
7f04
0804
0804
0804
fffc
0840
2840
2f40
2842
3822
281e
4c00
4380
807e
ENDCHAR
STARTCHAR 3530
ENCODING 13616
SWIDTH 960 0
DWIDTH 16 0
BBX 16 16 0 -2
BITMAP
0840
0840
ff40
0840
7ff8
4a48
4a48
7e48
4a48
4a48
7e48
0848
ff88
088a
090a
0a06
ENDCHAR
STARTCHAR 3531
ENCODING 13617
SWIDTH 960 0
DWIDTH 16 0
BBX 16 16 0 -2
BITMAP
1000
10fe
94a4
5520
55fc
5820
10fc
fea4
28fc
28a4
28a4
2afc
4c20
4bfe
8020
0020
ENDCHAR
STARTCHAR 3532
ENCODING 13618
SWIDTH 960 0
DWIDTH 16 0
BBX 16 16 0 -2
BITMAP
0800
08f0
1490
1290
2990
7e90
a290
3e90
2290
2290
3e90
2890
2492
2692
390e
6200
ENDCHAR
STARTCHAR 3533
ENCODING 13619
SWIDTH 960 0
DWIDTH 16 0
BBX 16 16 0 -2
BITMAP
0020
7e20
49fc
4820
7e50
4888
4900
7ffe
4804
4874
7f54
2954
5574
5554
410c
8604
ENDCHAR
STARTCHAR 3534
ENCODING 13620
SWIDTH 960 0
DWIDTH 16 0
BBX 16 16 0 -2
BITMAP
0200
0400
3ff0
2210
2210
3ff0
2210
2210
3ff0
0520
0520
0950
09f0
1114
2084
c07c
ENDCHAR
STARTCHAR 3535
ENCODING 13621
SWIDTH 960 0
DWIDTH 16 0
BBX 16 16 0 -2
BITMAP
0400
0fe0
1040
3ff0
d110
1ff0
1110
1ff0
0100
3ff8
2108
3ff8
2108
3ffa
0102
00fe
ENDCHAR
STARTCHAR 3536
ENCODING 13622
SWIDTH 960 0
DWIDTH 16 0
BBX 16 16 0 -2
BITMAP
1440
1240
1240
17f0
2090
2090
21f8
6108
a208
23fc
2424
2a94
3554
2544
2804
2018
ENDCHAR
STARTCHAR 3537
ENCODING 13623
SWIDTH 960 0
DWIDTH 16 0
BBX 16 16 0 -2
BITMAP
1210
1120
37fc
2040
23f0
6040
6ffe
a0b0
2728
2220
2ffe
2224
2398
2e14
222c
26c4
ENDCHAR
STARTCHAR 3538
ENCODING 13624
SWIDTH 960 0
DWIDTH 16 0
BBX 16 16 0 -2
BITMAP
1020
1020
13fe
1020
fe20
2420
25f8
2488
4488
4850
f850
0c20
1250
2088
c104
0602
ENDCHAR
STARTCHAR 3539
ENCODING 13625
SWIDTH 960 0
DWIDTH 16 0
BBX 16 16 0 -2
BITMAP
0100
0100
3ffe
2004
2000
4fe0
0820
0820
0fe0
0820
0820
0fe0
0820
0820
7ffe
0000
ENDCHAR
STARTCHAR 353a
ENCODING 13626
SWIDTH 960 0
DWIDTH 16 0
BBX 16 16 0 -2
BITMAP
1030
1e28
1028
7fa6
5138
5ce4
7124
4f24
5428
5528
5610
7410
552a
564a
9886
6002
ENDCHAR
STARTCHAR 353b
ENCODING 13627
SWIDTH 960 0
DWIDTH 16 0
BBX 16 16 0 -2
BITMAP
2040
2040
2040
27fe
f840
2040
2040
27f8
2108
3910
e090
2060
2060
2090
6308
2c06
ENDCHAR
STARTCHAR 353c
ENCODING 13628
SWIDTH 960 0
DWIDTH 16 0
BBX 16 16 0 -2
BITMAP
2400
24fc
2704
2428
f490
23fe
2412
2794
2a50
f25c
2fd0
2250
2370
24d0
6888
3106
ENDCHAR
STARTCHAR 353d
ENCODING 13629
SWIDTH 960 0
DWIDTH 16 0
BBX 16 16 0 -2
BITMAP
2240
2240
ff40
227e
2244
3ea8
22a0
2320
3e20
2220
2230
ff50
2448
2288
4104
8602
ENDCHAR
STARTCHAR 353e
ENCODING 13630
SWIDTH 960 0
DWIDTH 16 0
BBX 16 16 0 -2
BITMAP
1108
1090
53fc
5040
7df8
5040
57fe
9048
1394
1890
37fe
d094
10c8
179a
10e6
1182
ENDCHAR
STARTCHAR 353f
ENCODING 13631
SWIDTH 960 0
DWIDTH 16 0
BBX 16 16 0 -2
BITMAP
4000
44fc
7848
4230
4210
3ffe
2024
3e28
48a0
88bc
7fa0
08a0
14e0
1320
2118
4206
ENDCHAR
STARTCHAR 3540
ENCODING 13632
SWIDTH 960 0
DWIDTH 16 0
BBX 16 16 0 -2
BITMAP
1008
1030
11e0
fd20
0520
0920
0920
11fe
3920
5510
9310
1110
1108
116a
1186
1602
ENDCHAR
STARTCHAR 3541
ENCODING 13633
SWIDTH 960 0
DWIDTH 16 0
BBX 16 16 0 -2
BITMAP
0820
0440
7ffc
0100
3ff8
0100
fffe
0650
7848
0840
fffe
0824
0f28
f812
086a
1986
ENDCHAR
STARTCHAR 3542
ENCODING 13634
SWIDTH 960 0
DWIDTH 16 0
BBX 16 16 0 -2
BITMAP
1088
1050
11fc
1020
7dfc
5420
57fe
5458
7f94
1090
1bfe
1494
14d4
1f8a
f296
01a2
ENDCHAR
STARTCHAR 3543
ENCODING 13635
SWIDTH 960 0
DWIDTH 16 0
BBX 16 16 0 -2
BITMAP
0040
7840
01fe
fd04
0200
79f8
0108
0108
79f8
0108
7908
49f8
4908
4908
7ffe
4800
ENDCHAR
STARTCHAR 3544
ENCODING 13636
SWIDTH 960 0
DWIDTH 16 0
BBX 16 16 0 -2
BITMAP
0088
7850
01fc
fc20
01f8
7820
07fe
0058
7b94
0090
7bfe
4894
48d4
4b8a
7896
49a2
ENDCHAR
STARTCHAR 3545
ENCODING 13637
SWIDTH 960 0
DWIDTH 16 0
BBX 16 16 0 -2
BITMAP
1100
1100
1100
11fe
7e02
124a
1552
1142
1bfe
7042
10e2
10d2
114a
1242
1044
3018
ENDCHAR
STARTCHAR 3546
ENCODING 13638
SWIDTH 960 0
DWIDTH 16 0
BBX 16 16 0 -2
BITMAP
0840
0840
fffe
0840
1000
1ffc
3204
2a44
4a84
fff4
0704
0a84
1244
6224
0208
0030
ENDCHAR
STARTCHAR 3547
ENCODING 13639
SWIDTH 960 0
DWIDTH 16 0
BBX 16 16 0 -2
BITMAP
1440
1440
7efe
1482
152a
1eaa
08b2
3ffe
2a22
2a72
3e6a
08a6
7fa2
0922
0824
0818
ENDCHAR
STARTCHAR 3548
ENCODING 13640
SWIDTH 960 0
DWIDTH 16 0
BBX 16 16 0 -2
BITMAP
0100
0100
0100
fffe
0100
0100
0100
3ff8
0000
0000
1ff0
1010
1010
1010
1ff0
1010
ENDCHAR
STARTCHAR 3549
ENCODING 13641
SWIDTH 960 0
DWIDTH 16 0
BBX 16 16 0 -2
BITMAP
0100
0100
f100
93fe
9200
9200
95f8
9810
9020
9040
9080
f100
9204
0204
0204
01fc
ENDCHAR
STARTCHAR 354a
ENCODING 13642
SWIDTH 960 0
DWIDTH 16 0
BBX 16 16 0 -2
BITMAP
0200
027c
ff94
9214
9214
9f94
9224
93a4
9c58
9080
fffe
9080
0140
0220
0c18
3006
ENDCHAR
STARTCHAR 354b
ENCODING 13643
SWIDTH 960 0
DWIDTH 16 0
BBX 16 16 0 -2
BITMAP
1040
1040
1040
fffe
1040
1040
3840
37fc
3400
5000
51f8
9108
1108
1108
11f8
1108
ENDCHAR
STARTCHAR 354c
ENCODING 13644
SWIDTH 960 0
DWIDTH 16 0
BBX 16 16 0 -2
BITMAP
0800
08fc
0848
7e30
09fe
0854
1890
1d30
1bfe
2952
2956
499e
097a
094a
097a
0906
ENDCHAR
STARTCHAR 354d
ENCODING 13645
SWIDTH 960 0
DWIDTH 16 0
BBX 16 16 0 -2
BITMAP
0040
7c40
0040
fffe
0040
7c40
0040
03fc
7c00
0000
7df8
4508
4508
4508
7df8
4508
ENDCHAR
STARTCHAR 354e
ENCODING 13646
SWIDTH 960 0
DWIDTH 16 0
BBX 16 16 0 -2
BITMAP
0020
7f20
0820
0820
083e
0820
1e20
1220
3220
32fc
5284
1284
1e84
1284
10fc
0084
ENDCHAR
STARTCHAR 354f
ENCODING 13647
SWIDTH 960 0
DWIDTH 16 0
BBX 16 16 0 -2
BITMAP
1080
1080
1080
fcfc
1120
1120
3a20
3420
37fe
5020
5020
9020
1020
1020
1020
1020
ENDCHAR
STARTCHAR 3550
ENCODING 13648
SWIDTH 960 0
DWIDTH 16 0
BBX 16 16 0 -2
BITMAP
0010
00e0
3f00
0100
fffe
0540
1930
e28e
0440
1930
e91e
0520
07c0
1930
610c
0300
ENDCHAR
STARTCHAR 3551
ENCODING 13649
SWIDTH 960 0
DWIDTH 16 0
BBX 16 16 0 -2
BITMAP
0400
043e
3fa2
0422
0422
0422
0422
7fe2
0822
0a22
0922
1122
13ac
7ca0
00a0
0020
ENDCHAR
STARTCHAR 3552
ENCODING 13650
SWIDTH 960 0
DWIDTH 16 0
BBX 16 16 0 -2
BITMAP
0100
0100
3ffe
2204
43e0
0420
0a40
3180
0240
0420
1ff8
6816
0810
0810
0ff0
0810
ENDCHAR
STARTCHAR 3553
ENCODING 13651
SWIDTH 960 0
DWIDTH 16 0
BBX 16 16 0 -2
BITMAP
0100
793c
4924
4fe4
4924
7924
4924
4fe4
4924
7924
49a4
4aa4
4af8
4f60
4860
9820
ENDCHAR
STARTCHAR 3554
ENCODING 13652
SWIDTH 960 0
DWIDTH 16 0
BBX 16 16 0 -2
BITMAP
0080
00fc
0080
3ffc
2208
23f0
3e04
23fc
2000
2ff8
2800
2ff8
4800
4800
8ffc
0800
ENDCHAR
STARTCHAR 3555
ENCODING 13653
SWIDTH 960 0
DWIDTH 16 0
BBX 16 16 0 -2
BITMAP
0210
4110
2120
2ffe
0040
0248
0248
f248
1248
13f8
1248
1040
1880
2900
4600
81fe
ENDCHAR
STARTCHAR 3556
ENCODING 13654
SWIDTH 960 0
DWIDTH 16 0
BBX 16 16 0 -2
BITMAP
0020
01c0
1e00
1000
1000
1000
1ff8
1040
1040
1040
1040
1040
1040
1040
fffc
0000
ENDCHAR
STARTCHAR 3557
ENCODING 13655
SWIDTH 960 0
DWIDTH 16 0
BBX 16 16 0 -2
BITMAP
0200
0200
03e0
0420
0420
0840
1040
2080
0080
0180
0140
0240
0420
0810
3008
c006
ENDCHAR
STARTCHAR 3558
ENCODING 13656
SWIDTH 960 0
DWIDTH 16 0
BBX 16 16 0 -2
BITMAP
0900
0900
0900
1100
11e0
1f20
2120
6120
a120
2120
2120
2224
2224
2424
281c
3000
ENDCHAR
STARTCHAR 3559
ENCODING 13657
SWIDTH 960 0
DWIDTH 16 0
BBX 16 16 0 -2
BITMAP
1080
1080
1080
1080
2ffc
21c0
21c0
62a0
a2a0
2490
2488
2884
3082
2080
2080
2080
ENDCHAR
STARTCHAR 355a
ENCODING 13658
SWIDTH 960 0
DWIDTH 16 0
BBX 16 16 0 -2
BITMAP
0000
7fc0
0840
0880
0880
0de0
0c20
0a20
0a20
1140
10c0
1080
2140
2220
4410
980c
ENDCHAR
STARTCHAR 355b
ENCODING 13659
SWIDTH 960 0
DWIDTH 16 0
BBX 16 16 0 -2
BITMAP
0000
03f0
f910
8920
8920
8978
8988
8988
8948
8a50
fa50
8a20
8450
0488
0904
1202
ENDCHAR
STARTCHAR 355c
ENCODING 13660
SWIDTH 960 0
DWIDTH 16 0
BBX 16 16 0 -2
BITMAP
0200
0200
7ffc
4008
9fe0
1020
1020
1fe0
0200
0400
3ff0
2010
2010
2010
3ff0
2010
ENDCHAR
STARTCHAR 355d
ENCODING 13661
SWIDTH 960 0
DWIDTH 16 0
BBX 16 16 0 -2
BITMAP
0000
7fe0
0020
0020
0020
3fe0
2000
2000
2000
3ff0
2010
0010
0010
0010
0020
01c0
ENDCHAR
STARTCHAR 355e
ENCODING 13662
SWIDTH 960 0
DWIDTH 16 0
BBX 16 16 0 -2
BITMAP
0200
07c0
0880
1100
7ff0
0010
0010
1ff0
0010
3ff0
0100
2488
2484
4492
8412
03f0
ENDCHAR
STARTCHAR 355f
ENCODING 13663
SWIDTH 960 0
DWIDTH 16 0
BBX 16 16 0 -2
BITMAP
0a40
0940
0840
ff7e
0848
8948
4a88
4a88
1d48
1c50
2a30
2a20
4950
8888
1904
0a02
ENDCHAR
STARTCHAR 3560
ENCODING 13664
SWIDTH 960 0
DWIDTH 16 0
BBX 16 16 0 -2
BITMAP
1000
17fe
1040
fc40
1040
1080
38f8
3508
3508
5008
5008
9008
1008
1008
1010
1060
ENDCHAR
STARTCHAR 3561
ENCODING 13665
SWIDTH 960 0
DWIDTH 16 0
BBX 16 16 0 -2
BITMAP
0120
0110
0110
fffe
0100
2108
1188
0988
0950
0150
0320
0510
0908
3104
c302
0100
ENDCHAR
STARTCHAR 3562
ENCODING 13666
SWIDTH 960 0
DWIDTH 16 0
BBX 16 16 0 -2
BITMAP
2000
17f0
1110
0110
8120
4138
4108
0188
1290
1250
2260
2220
4450
4488
8904
9602
ENDCHAR
STARTCHAR 3563
ENCODING 13667
SWIDTH 960 0
DWIDTH 16 0
BBX 16 16 0 -2
BITMAP
2040
2040
1040
17fc
8010
8210
4210
4110
0110
1110
2120
2120
4120
4040
8ffe
8000
ENDCHAR
STARTCHAR 3564
ENCODING 13668
SWIDTH 960 0
DWIDTH 16 0
BBX 16 16 0 -2
BITMAP
0400
07e0
0840
3080
0180
0640
1830
e10e
0910
0910
1120
2280
0440
0820
3018
c006
ENDCHAR
STARTCHAR 3565
ENCODING 13669
SWIDTH 960 0
DWIDTH 16 0
BBX 16 16 0 -2
BITMAP
0048
0044
f844
27fe
2040
2444
2264
f968
2168
2050
24d0
2948
3244
cc42
0040
00c0
ENDCHAR
STARTCHAR 3566
ENCODING 13670
SWIDTH 960 0
DWIDTH 16 0
BBX 16 16 0 -2
BITMAP
0200
0200
7ffc
4888
8880
0888
1078
2200
4200
3fc0
0240
0440
0444
0844
1044
603c
ENDCHAR
STARTCHAR 3567
ENCODING 13671
SWIDTH 960 0
DWIDTH 16 0
BBX 16 16 0 -2
BITMAP
0100
0100
7ffe
4442
187e
6400
1f7c
1104
1f7c
1140
1f7c
1104
7f04
0504
1904
6318
ENDCHAR
STARTCHAR 3568
ENCODING 13672
SWIDTH 960 0
DWIDTH 16 0
BBX 16 16 0 -2
BITMAP
1040
1040
3f7e
28a0
4510
8000
7fe0
0440
04f0
0610
0920
08c0
10c0
2320
4c18
b006
ENDCHAR
STARTCHAR 3569
ENCODING 13673
SWIDTH 960 0
DWIDTH 16 0
BBX 16 16 0 -2
BITMAP
1000
13f8
1488
e490
2890
10bc
18c4
24c4
faa8
10a8
5930
5510
5528
5248
9484
1102
ENDCHAR
STARTCHAR 356a
ENCODING 13674
SWIDTH 960 0
DWIDTH 16 0
BBX 16 16 0 -2
BITMAP
1010
1090
1490
e490
2890
1090
1890
2490
fa90
109e
58f0
5790
5410
5410
9010
1010
ENDCHAR
STARTCHAR 356b
ENCODING 13675
SWIDTH 960 0
DWIDTH 16 0
BBX 16 16 0 -2
BITMAP
1020
1020
1450
e450
2888
1104
1afa
2400
fa00
12f8
5088
5488
5288
5288
90f8
1088
ENDCHAR
STARTCHAR 356c
ENCODING 13676
SWIDTH 960 0
DWIDTH 16 0
BBX 16 16 0 -2
BITMAP
4000
47f8
4408
4408
4408
4408
4408
47f8
4408
4408
4408
4408
4408
4408
47f8
4408
ENDCHAR
STARTCHAR 356d
ENCODING 13677
SWIDTH 960 0
DWIDTH 16 0
BBX 16 16 0 -2
BITMAP
0100
0900
0900
0900
1ff8
1100
2100
4100
0100
fffe
0100
0100
0100
0100
0100
0100
ENDCHAR
STARTCHAR 356e
ENCODING 13678
SWIDTH 960 0
DWIDTH 16 0
BBX 16 16 0 -2
BITMAP
0100
0100
0100
3ff8
0100
0100
0100
0100
fffe
0200
0240
0420
0410
09f0
7e08
0008
ENDCHAR
STARTCHAR 356f
ENCODING 13679
SWIDTH 960 0
DWIDTH 16 0
BBX 16 16 0 -2
BITMAP
0000
3ff8
2008
2008
3ff8
2088
2080
3ffe
2080
2080
2ff8
2808
4808
4808
8ff8
0808
ENDCHAR
STARTCHAR 3570
ENCODING 13680
SWIDTH 960 0
DWIDTH 16 0
BBX 16 16 0 -2
BITMAP
0000
7ff8
4000
4000
4000
7fe0
4020
4020
4020
7fe0
4020
4000
4000
4000
7ff8
4000
ENDCHAR
STARTCHAR 3571
ENCODING 13681
SWIDTH 960 0
DWIDTH 16 0
BBX 16 16 0 -2
BITMAP
1000
11fc
1100
1100
fd00
11f8
1108
1108
1108
1df8
f108
1100
1100
1100
31fe
1100
ENDCHAR
STARTCHAR 3572
ENCODING 13682
SWIDTH 960 0
DWIDTH 16 0
BBX 16 16 0 -2
BITMAP
2200
2238
2228
2228
ffa8
24a8
24a8
2aa8
2928
3148
e34a
228a
2486
2840
7030
200e
ENDCHAR
STARTCHAR 3573
ENCODING 13683
SWIDTH 960 0
DWIDTH 16 0
BBX 16 16 0 -2
BITMAP
1208
0908
0910
fffe
0440
0860
3198
df06
0100
3ff8
0100
0100
7ffc
0100
0100
0300
ENDCHAR
STARTCHAR 3574
ENCODING 13684
SWIDTH 960 0
DWIDTH 16 0
BBX 16 16 0 -2
BITMAP
0000
33fc
0a00
63f8
1208
0208
0bf8
3200
c3fc
0100
fffe
0380
0540
1930
e10e
0100
ENDCHAR
STARTCHAR 3575
ENCODING 13685
SWIDTH 960 0
DWIDTH 16 0
BBX 16 16 0 -2
BITMAP
0100
01fc
0100
3ffe
2204
2268
3f80
2204
21fc
2240
3248
2a48
4a50
4240
bffe
0000
ENDCHAR
STARTCHAR 3576
ENCODING 13686
SWIDTH 960 0
DWIDTH 16 0
BBX 16 16 0 -2
BITMAP
0080
7c80
0080
fefc
0120
7d20
0220
7c20
07fe
0020
7c20
4420
4420
4420
7c20
4420
ENDCHAR
STARTCHAR 3577
ENCODING 13687
SWIDTH 960 0
DWIDTH 16 0
BBX 16 16 0 -2
BITMAP
0000
7dfc
4500
4500
4500
45f8
7d08
1108
5108
5df8
5100
5100
5100
5f00
71fe
c100
ENDCHAR
STARTCHAR 3578
ENCODING 13688
SWIDTH 960 0
DWIDTH 16 0
BBX 16 16 0 -2
BITMAP
1000
11fc
2904
2504
41fc
fd10
1110
11fe
ff10
1110
957c
5944
5144
1e44
327c
c444
ENDCHAR
STARTCHAR 3579
ENCODING 13689
SWIDTH 960 0
DWIDTH 16 0
BBX 16 16 0 -2
BITMAP
2080
1080
11f0
0220
0c40
83f8
4248
4248
13f8
1248
2248
23f8
4400
4524
8892
9092
ENDCHAR
STARTCHAR 357a
ENCODING 13690
SWIDTH 960 0
DWIDTH 16 0
BBX 16 16 0 -2
BITMAP
2400
27bc
5a24
9fe4
2224
6ba4
aa24
2bb8
2c20
2ff0
0000
7ffe
0560
1918
6104
0300
ENDCHAR
STARTCHAR 357b
ENCODING 13691
SWIDTH 960 0
DWIDTH 16 0
BBX 16 16 0 -2
BITMAP
0200
0200
03f0
0420
1840
6ff8
0888
0888
0ff8
0888
0888
0ff8
1008
1444
2222
4222
ENDCHAR
STARTCHAR 357c
ENCODING 13692
SWIDTH 960 0
DWIDTH 16 0
BBX 16 16 0 -2
BITMAP
0100
0100
fffe
0000
1ff0
1010
1ff0
0000
7ff8
0010
0060
0180
0100
0100
0100
0300
ENDCHAR
STARTCHAR 357d
ENCODING 13693
SWIDTH 960 0
DWIDTH 16 0
BBX 16 16 0 -2
BITMAP
0100
0100
fffe
0000
1ff0
1010
1ff0
0000
3ff0
0040
0080
fffc
0100
0100
0100
0300
ENDCHAR
STARTCHAR 357e
ENCODING 13694
SWIDTH 960 0
DWIDTH 16 0
BBX 16 16 0 -2
BITMAP
0100
0100
0100
fffe
0000
1ff0
1010
1010
1010
1ff0
0100
0960
1110
2108
c304
0100
ENDCHAR
STARTCHAR 3621
ENCODING 13857
SWIDTH 960 0
DWIDTH 16 0
BBX 16 16 0 -2
BITMAP
0910
0910
0910
1110
17fc
3110
3110
5110
9110
1ffe
1000
1110
1108
1208
1404
1804
ENDCHAR
STARTCHAR 3622
ENCODING 13858
SWIDTH 960 0
DWIDTH 16 0
BBX 16 16 0 -2
BITMAP
0880
0880
0ffc
1080
1490
2290
2290
62a0
a080
3ffe
20c0
2140
2120
2210
2408
3804
ENDCHAR
STARTCHAR 3623
ENCODING 13859
SWIDTH 960 0
DWIDTH 16 0
BBX 16 16 0 -2
BITMAP
0818
0be0
0880
1ffe
1110
23f8
2d16
61f0
a000
27fc
2404
25f4
2514
25f4
251c
2404
ENDCHAR
STARTCHAR 3624
ENCODING 13860
SWIDTH 960 0
DWIDTH 16 0
BBX 16 16 0 -2
BITMAP
0040
2050
2c90
2290
2110
2290
2450
3850
2010
3ff0
2490
0480
0880
1084
2044
c03c
ENDCHAR
STARTCHAR 3625
ENCODING 13861
SWIDTH 960 0
DWIDTH 16 0
BBX 16 16 0 -2
BITMAP
0820
0820
7ffc
2288
1450
fffe
0000
3ef8
2288
2288
3ef8
1450
1450
2552
4692
850e
ENDCHAR
STARTCHAR 3626
ENCODING 13862
SWIDTH 960 0
DWIDTH 16 0
BBX 16 16 0 -2
BITMAP
0840
0840
0840
0840
7ff8
0840
0840
0840
0840
fffe
0000
0840
0820
1010
2008
4008
ENDCHAR
STARTCHAR 3627
ENCODING 13863
SWIDTH 960 0
DWIDTH 16 0
BBX 16 16 0 -2
BITMAP
0000
0020
4024
4024
4c44
4344
4084
40c4
4124
4224
4414
4814
5004
4004
7ffc
4004
ENDCHAR
STARTCHAR 3628
ENCODING 13864
SWIDTH 960 0
DWIDTH 16 0
BBX 16 16 0 -2
BITMAP
2080
2080
27f8
2088
2088
f908
2230
2410
2410
3ffe
2492
2492
2492
2892
28a2
334c
ENDCHAR
STARTCHAR 3629
ENCODING 13865
SWIDTH 960 0
DWIDTH 16 0
BBX 16 16 0 -2
BITMAP
0000
7ffc
4000
4000
5ff0
4100
4100
4fe0
4100
4100
4100
5ff8
4000
4000
7ffc
4000
ENDCHAR
STARTCHAR 362a
ENCODING 13866
SWIDTH 960 0
DWIDTH 16 0
BBX 16 16 0 -2
BITMAP
0800
17bc
64a4
54a4
57a4
54a4
54a4
57a4
5424
5624
7524
d4a4
17b8
2c60
2020
4020
ENDCHAR
STARTCHAR 362b
ENCODING 13867
SWIDTH 960 0
DWIDTH 16 0
BBX 16 16 0 -2
BITMAP
0008
0008
7c88
4488
4488
4488
4488
4488
4488
4488
448e
7cf8
4788
0008
0008
0008
ENDCHAR
STARTCHAR 362c
ENCODING 13868
SWIDTH 960 0
DWIDTH 16 0
BBX 16 16 0 -2
BITMAP
0038
1fc0
0100
7ffe
0220
07f0
1a2c
63e2
0000
1ffc
1004
13e4
1224
13e4
122c
1004
ENDCHAR
STARTCHAR 362d
ENCODING 13869
SWIDTH 960 0
DWIDTH 16 0
BBX 16 16 0 -2
BITMAP
0040
2040
2ffc
2210
2120
fffe
2000
23f8
2208
23f8
2a08
33f8
c0a0
0122
0622
181e
ENDCHAR
STARTCHAR 362e
ENCODING 13870
SWIDTH 960 0
DWIDTH 16 0
BBX 16 16 0 -2
BITMAP
2020
2020
23fc
a820
a924
a8a4
a8a8
a820
affe
a820
a820
f850
8850
0088
0104
0602
ENDCHAR
STARTCHAR 362f
ENCODING 13871
SWIDTH 960 0
DWIDTH 16 0
BBX 16 16 0 -2
BITMAP
0080
f8a0
0918
0ff4
0842
7840
43f8
4248
7a48
4a48
0bf8
0a48
0844
087c
1782
6002
ENDCHAR
STARTCHAR 3630
ENCODING 13872
SWIDTH 960 0
DWIDTH 16 0
BBX 16 16 0 -2
BITMAP
0000
fffe
0800
0bf8
0a48
7bf8
4248
47fc
7800
0bf8
0a48
0bf8
0a48
0bf8
1000
67fe
ENDCHAR
STARTCHAR 3631
ENCODING 13873
SWIDTH 960 0
DWIDTH 16 0
BBX 16 16 0 -2
BITMAP
1040
1040
1040
13f8
5840
5440
5440
5040
97fe
1040
1040
1090
1088
1178
1784
1004
ENDCHAR
STARTCHAR 3632
ENCODING 13874
SWIDTH 960 0
DWIDTH 16 0
BBX 16 16 0 -2
BITMAP
0000
7ff8
1108
1108
1148
1528
192a
620a
0406
0100
0480
1448
1444
2412
4212
01f0
ENDCHAR
STARTCHAR 3633
ENCODING 13875
SWIDTH 960 0
DWIDTH 16 0
BBX 16 16 0 -2
BITMAP
0440
0440
3ff8
0440
0440
0440
fffe
0820
1210
2208
c206
1290
1248
2248
4200
0600
ENDCHAR
STARTCHAR 3634
ENCODING 13876
SWIDTH 960 0
DWIDTH 16 0
BBX 16 16 0 -2
BITMAP
2040
2040
27fc
2040
fc48
2248
2148
2150
3ffe
e040
20a0
20a0
2110
2208
2404
6802
ENDCHAR
STARTCHAR 3635
ENCODING 13877
SWIDTH 960 0
DWIDTH 16 0
BBX 16 16 0 -2
BITMAP
0840
0940
7f40
0940
0a7e
ffc4
0444
7ec4
12a8
2528
c810
0f10
f828
0848
0984
1e02
ENDCHAR
STARTCHAR 3636
ENCODING 13878
SWIDTH 960 0
DWIDTH 16 0
BBX 16 16 0 -2
BITMAP
1018
13e0
1040
fffe
1090
11f8
3296
38f0
5400
57fc
9204
12f4
1294
12f4
1294
120c
ENDCHAR
STARTCHAR 3637
ENCODING 13879
SWIDTH 960 0
DWIDTH 16 0
BBX 16 16 0 -2
BITMAP
2000
17f8
1408
0408
8408
4408
47f8
0528
1120
1120
2120
2220
4220
4422
8822
901e
ENDCHAR
STARTCHAR 3638
ENCODING 13880
SWIDTH 960 0
DWIDTH 16 0
BBX 16 16 0 -2
BITMAP
0800
8bfc
5040
2040
2040
5040
9040
13f8
3040
3040
5040
9040
1040
1040
dffe
2000
ENDCHAR
STARTCHAR 3639
ENCODING 13881
SWIDTH 960 0
DWIDTH 16 0
BBX 16 16 0 -2
BITMAP
0840
8840
57fc
2040
6448
a248
1148
1150
3ffe
3040
50a0
90a0
1110
1208
d404
2802
ENDCHAR
STARTCHAR 363a
ENCODING 13882
SWIDTH 960 0
DWIDTH 16 0
BBX 16 16 0 -2
BITMAP
2018
23e0
2040
7ffe
5090
91f8
1296
fcf0
1000
13fc
2a04
26f4
4694
42f4
829c
0204
ENDCHAR
STARTCHAR 363b
ENCODING 13883
SWIDTH 960 0
DWIDTH 16 0
BBX 16 16 0 -2
BITMAP
0100
7900
4900
49fc
4a24
7b24
4ed4
4a54
4ab4
7ab4
4b14
4a14
4bf4
4a04
5808
8830
ENDCHAR
STARTCHAR 363c
ENCODING 13884
SWIDTH 960 0
DWIDTH 16 0
BBX 16 16 0 -2
BITMAP
0080
0ff0
0310
1c60
0810
7ffe
1122
66cc
0ff8
0808
0ff8
0808
0ff8
0808
0808
0818
ENDCHAR
STARTCHAR 363d
ENCODING 13885
SWIDTH 960 0
DWIDTH 16 0
BBX 16 16 0 -2
BITMAP
0800
1000
6ffc
4824
4fe4
783c
4ba4
4aa4
7abc
4ba4
4aa4
4824
fffe
0860
3018
c004
ENDCHAR
STARTCHAR 363e
ENCODING 13886
SWIDTH 960 0
DWIDTH 16 0
BBX 16 16 0 -2
BITMAP
0440
fffe
0440
1ff0
0100
fffe
0440
0fe0
3458
c7c6
0000
3ff8
27c8
2448
27c8
2018
ENDCHAR
STARTCHAR 363f
ENCODING 13887
SWIDTH 960 0
DWIDTH 16 0
BBX 16 16 0 -2
BITMAP
1000
17bc
24a4
2ca4
cfa8
34b0
14a8
1fa4
2c22
4d22
f4a2
14b2
256c
2660
4c20
8020
ENDCHAR
STARTCHAR 3640
ENCODING 13888
SWIDTH 960 0
DWIDTH 16 0
BBX 16 16 0 -2
BITMAP
1020
1020
2bfc
2508
4090
fffe
1000
11f8
ff08
11f8
9508
59f8
5050
1c92
3112
c60e
ENDCHAR
STARTCHAR 3641
ENCODING 13889
SWIDTH 960 0
DWIDTH 16 0
BBX 16 16 0 -2
BITMAP
23dc
ca54
53d4
2258
3bd4
ca92
13d2
265c
4110
bffc
0440
fffe
0fe0
0820
0fe0
0820
ENDCHAR
STARTCHAR 3642
ENCODING 13890
SWIDTH 960 0
DWIDTH 16 0
BBX 16 16 0 -2
BITMAP
23dc
ca54
53d4
2258
3bd4
ca92
17de
2150
c290
07e0
1838
efe6
0820
0fe8
09d0
fe3c
ENDCHAR
STARTCHAR 3643
ENCODING 13891
SWIDTH 960 0
DWIDTH 16 0
BBX 16 16 0 -2
BITMAP
1440
7f7e
1448
3fa8
3d30
5510
9d28
0644
1ff2
1100
1ff0
1100
1ff8
5248
4928
8030
ENDCHAR
STARTCHAR 3644
ENCODING 13892
SWIDTH 960 0
DWIDTH 16 0
BBX 16 16 0 -2
BITMAP
0880
0900
0e7c
1444
1444
2444
2444
6444
a444
2444
24c4
2744
2c58
2040
2040
2040
ENDCHAR
STARTCHAR 3645
ENCODING 13893
SWIDTH 960 0
DWIDTH 16 0
BBX 16 16 0 -2
BITMAP
0800
097c
4e04
2828
2910
0708
04fe
2714
2a18
2250
5fdc
4250
4550
84b0
8898
1106
ENDCHAR
STARTCHAR 3646
ENCODING 13894
SWIDTH 960 0
DWIDTH 16 0
BBX 16 16 0 -2
BITMAP
0100
0100
3ff8
0100
0910
0810
7ffe
0810
0810
0000
7ffe
0240
0240
0442
0842
303e
ENDCHAR
STARTCHAR 3647
ENCODING 13895
SWIDTH 960 0
DWIDTH 16 0
BBX 16 16 0 -2
BITMAP
0040
0040
f3f8
9040
9150
9110
9ffe
f110
9110
9000
97fc
9120
f120
9222
0422
181e
ENDCHAR
STARTCHAR 3648
ENCODING 13896
SWIDTH 960 0
DWIDTH 16 0
BBX 16 16 0 -2
BITMAP
0240
1248
0a50
fffe
0810
0420
7ffe
0100
3ffc
0100
fffe
0540
0920
3118
c106
0100
ENDCHAR
STARTCHAR 3649
ENCODING 13897
SWIDTH 960 0
DWIDTH 16 0
BBX 16 16 0 -2
BITMAP
0000
3ff8
2008
2008
3ff8
2008
2000
3ffc
2004
27e4
2424
2424
27e4
4424
4008
8030
ENDCHAR
STARTCHAR 364a
ENCODING 13898
SWIDTH 960 0
DWIDTH 16 0
BBX 16 16 0 -2
BITMAP
0440
0440
0440
0440
7ffc
4444
4444
4444
4444
7ffc
4444
4444
4444
4444
7ffc
4004
ENDCHAR
STARTCHAR 364b
ENCODING 13899
SWIDTH 960 0
DWIDTH 16 0
BBX 16 16 0 -2
BITMAP
2000
27fc
2080
fc80
21c0
207c
3744
6d54
6548
a748
a554
2062
2180
2000
2ffe
2000
ENDCHAR
STARTCHAR 364c
ENCODING 13900
SWIDTH 960 0
DWIDTH 16 0
BBX 16 16 0 -2
BITMAP
0000
7ffc
0100
0100
0100
0100
0100
3ff8
0100
0100
0120
0110
0110
0100
fffe
0000
ENDCHAR
STARTCHAR 364d
ENCODING 13901
SWIDTH 960 0
DWIDTH 16 0
BBX 16 16 0 -2
BITMAP
0800
09fe
0902
7f02
09fe
0902
1d02
1b7a
194a
294a
294a
497a
094a
0902
0902
0906
ENDCHAR
STARTCHAR 364e
ENCODING 13902
SWIDTH 960 0
DWIDTH 16 0
BBX 16 16 0 -2
BITMAP
1008
1430
95e0
5420
5820
1020
fe20
13fe
3820
3420
5220
5020
9020
1020
1020
1020
ENDCHAR
STARTCHAR 364f
ENCODING 13903
SWIDTH 960 0
DWIDTH 16 0
BBX 16 16 0 -2
BITMAP
0910
0910
0ffe
1110
17fc
2444
2444
67fc
a040
23f8
2040
23f8
2040
2040
2ffe
2000
ENDCHAR
STARTCHAR 3650
ENCODING 13904
SWIDTH 960 0
DWIDTH 16 0
BBX 16 16 0 -2
BITMAP
1110
1110
7fd0
1110
007e
3f92
2492
2492
3f92
0412
3f92
0422
3fa2
0422
0742
788c
ENDCHAR
STARTCHAR 3651
ENCODING 13905
SWIDTH 960 0
DWIDTH 16 0
BBX 16 16 0 -2
BITMAP
0040
0840
0840
08fe
7e82
0902
0ac2
0822
0802
080a
0e12
1862
6182
0002
0004
0038
ENDCHAR
STARTCHAR 3652
ENCODING 13906
SWIDTH 960 0
DWIDTH 16 0
BBX 16 16 0 -2
BITMAP
0200
0200
0200
0200
7ff8
4208
4208
4208
4208
4208
4208
4230
4200
0200
0200
0200
ENDCHAR
STARTCHAR 3653
ENCODING 13907
SWIDTH 960 0
DWIDTH 16 0
BBX 16 16 0 -2
BITMAP
0410
0420
0c7c
0a44
117c
3f44
4444
047c
7f10
04fe
2592
1692
1492
079c
1890
6010
ENDCHAR
STARTCHAR 3654
ENCODING 13908
SWIDTH 960 0
DWIDTH 16 0
BBX 16 16 0 -2
BITMAP
0010
0060
1f80
1000
1000
1000
1ffe
1040
1040
1040
1040
2040
2040
4040
8040
0040
ENDCHAR
STARTCHAR 3655
ENCODING 13909
SWIDTH 960 0
DWIDTH 16 0
BBX 16 16 0 -2
BITMAP
0440
0840
7040
407e
4084
7ea8
4920
4a20
4820
4830
4850
4850
4848
4888
8904
0e02
ENDCHAR
STARTCHAR 3656
ENCODING 13910
SWIDTH 960 0
DWIDTH 16 0
BBX 16 16 0 -2
BITMAP
1080
1080
2880
24fe
4284
fd28
1120
1220
fe20
1030
9430
5850
5248
1c88
3104
c602
ENDCHAR
STARTCHAR 3657
ENCODING 13911
SWIDTH 960 0
DWIDTH 16 0
BBX 16 16 0 -2
BITMAP
0000
fefc
1010
7cfc
1010
1710
397e
c280
0440
1830
e7ce
0000
1fe0
0040
0080
0100
ENDCHAR
STARTCHAR 3658
ENCODING 13912
SWIDTH 960 0
DWIDTH 16 0
BBX 16 16 0 -2
BITMAP
0820
0820
fffe
1870
1c68
2aa8
4924
8822
1ff0
0000
fffe
0100
0960
3118
c104
0300
ENDCHAR
STARTCHAR 3659
ENCODING 13913
SWIDTH 960 0
DWIDTH 16 0
BBX 16 16 0 -2
BITMAP
0100
0280
0440
0920
3ff8
d296
1110
16d0
1ff0
0200
3ff8
2288
2248
25a8
3e08
2018
ENDCHAR
STARTCHAR 365a
ENCODING 13914
SWIDTH 960 0
DWIDTH 16 0
BBX 16 16 0 -2
BITMAP
2040
2040
3e7e
4890
4488
8140
3c40
25fc
2444
3c44
2444
2444
3c84
4484
4504
8e18
ENDCHAR
STARTCHAR 365b
ENCODING 13915
SWIDTH 960 0
DWIDTH 16 0
BBX 16 16 0 -2
BITMAP
0000
3ffc
2444
3f24
2128
3f10
2428
3fc6
0120
0e50
018c
7ffa
0530
190c
6102
0100
ENDCHAR
STARTCHAR 365c
ENCODING 13916
SWIDTH 960 0
DWIDTH 16 0
BBX 16 16 0 -2
BITMAP
0420
0420
fffe
0420
0040
0f80
0800
0800
0ffe
0840
0840
1040
1040
2040
4040
0040
ENDCHAR
STARTCHAR 365d
ENCODING 13917
SWIDTH 960 0
DWIDTH 16 0
BBX 16 16 0 -2
BITMAP
0840
0840
fffe
0840
7ffc
4024
41c4
4f04
4104
7ffc
4544
4924
5114
4104
7ffc
4004
ENDCHAR
STARTCHAR 365e
ENCODING 13918
SWIDTH 960 0
DWIDTH 16 0
BBX 16 16 0 -2
BITMAP
1020
1020
1050
fc50
0488
0b04
0afa
1200
3c00
54f8
9208
1008
1010
1010
1020
1040
ENDCHAR
STARTCHAR 365f
ENCODING 13919
SWIDTH 960 0
DWIDTH 16 0
BBX 16 16 0 -2
BITMAP
2110
2110
27fe
f910
0bb8
1354
1512
2d10
31f8
6800
a7fe
2150
2148
2244
24c4
2040
ENDCHAR
STARTCHAR 3660
ENCODING 13920
SWIDTH 960 0
DWIDTH 16 0
BBX 16 16 0 -2
BITMAP
0088
7c88
03fe
fc88
01fc
7d24
0124
01fc
7c20
01fc
7c20
45fc
4420
4420
7ffe
4400
ENDCHAR
STARTCHAR 3661
ENCODING 13921
SWIDTH 960 0
DWIDTH 16 0
BBX 16 16 0 -2
BITMAP
0008
4030
23c0
2200
0200
03fc
0220
f220
1220
1220
1420
1420
1820
2820
4600
81fe
ENDCHAR
STARTCHAR 3662
ENCODING 13922
SWIDTH 960 0
DWIDTH 16 0
BBX 16 16 0 -2
BITMAP
0100
0100
0280
0440
0820
3018
cfe6
0100
0100
3ffc
0100
1110
0910
0920
7ffc
0000
ENDCHAR
STARTCHAR 3663
ENCODING 13923
SWIDTH 960 0
DWIDTH 16 0
BBX 16 16 0 -2
BITMAP
0040
0040
f8a0
88a0
8910
8a08
8df4
8802
8800
8bf8
8808
f810
8810
0020
0020
0040
ENDCHAR
STARTCHAR 3664
ENCODING 13924
SWIDTH 960 0
DWIDTH 16 0
BBX 16 16 0 -2
BITMAP
0800
08f8
1888
1488
22f8
7f88
8888
08f8
fea4
08a4
4aa8
2c90
2890
0ea8
30c4
c302
ENDCHAR
STARTCHAR 3665
ENCODING 13925
SWIDTH 960 0
DWIDTH 16 0
BBX 16 16 0 -2
BITMAP
0000
0200
0200
0200
7fe0
0220
0220
0220
0220
0420
0420
0420
0822
1022
201e
4000
ENDCHAR
STARTCHAR 3666
ENCODING 13926
SWIDTH 960 0
DWIDTH 16 0
BBX 16 16 0 -2
BITMAP
0800
0bf8
0a08
1208
13f8
2208
2208
63f8
a208
2208
23f8
2000
2ffe
2130
2208
2c04
ENDCHAR
STARTCHAR 3667
ENCODING 13927
SWIDTH 960 0
DWIDTH 16 0
BBX 16 16 0 -2
BITMAP
0800
0800
0800
1ffc
1004
2004
4fc4
8844
0844
0844
0844
0fc4
0844
0004
0008
0030
ENDCHAR
STARTCHAR 3668
ENCODING 13928
SWIDTH 960 0
DWIDTH 16 0
BBX 16 16 0 -2
BITMAP
0000
7ffc
4010
4010
4010
4020
5c20
4340
4080
4140
4220
4410
4810
5000
7ffe
4000
ENDCHAR
STARTCHAR 3669
ENCODING 13929
SWIDTH 960 0
DWIDTH 16 0
BBX 16 16 0 -2
BITMAP
0480
4480
2880
11fe
2902
4a02
04f2
0c92
1492
2492
4492
04f2
0492
0802
6804
1018
ENDCHAR
STARTCHAR 366a
ENCODING 13930
SWIDTH 960 0
DWIDTH 16 0
BBX 16 16 0 -2
BITMAP
0040
0040
7c78
1088
1088
1108
1210
7c10
1020
1020
1050
1248
1c84
7104
0202
0c02
ENDCHAR
STARTCHAR 366b
ENCODING 13931
SWIDTH 960 0
DWIDTH 16 0
BBX 16 16 0 -2
BITMAP
2000
21fc
2100
3f00
5100
51f8
9108
1108
ff08
11f8
2908
2500
2500
4500
41fe
8100
ENDCHAR
STARTCHAR 366c
ENCODING 13932
SWIDTH 960 0
DWIDTH 16 0
BBX 16 16 0 -2
BITMAP
0820
0820
fffe
0820
0920
0100
fffe
0100
0100
0100
1ff0
1010
1010
1010
1ff0
1010
ENDCHAR
STARTCHAR 366d
ENCODING 13933
SWIDTH 960 0
DWIDTH 16 0
BBX 16 16 0 -2
BITMAP
1000
21fc
7d00
4508
7d08
4548
7d30
4510
4718
7d28
c524
0d44
1580
2500
cdfe
0500
ENDCHAR
STARTCHAR 366e
ENCODING 13934
SWIDTH 960 0
DWIDTH 16 0
BBX 16 16 0 -2
BITMAP
0000
7efe
4880
4884
7e84
48a4
7e98
4888
4888
7f94
0994
65a4
55c0
5180
82fe
0c80
ENDCHAR
STARTCHAR 366f
ENCODING 13935
SWIDTH 960 0
DWIDTH 16 0
BBX 16 16 0 -2
BITMAP
0008
7f10
4860
4840
7e40
487e
7e48
4848
4848
7f48
0948
6548
5548
5148
81fe
0600
ENDCHAR
STARTCHAR 3670
ENCODING 13936
SWIDTH 960 0
DWIDTH 16 0
BBX 16 16 0 -2
BITMAP
0040
7e40
487c
4844
7e84
48f4
7f54
4a54
4854
7f54
0974
6554
5504
5104
8108
0630
ENDCHAR
STARTCHAR 3671
ENCODING 13937
SWIDTH 960 0
DWIDTH 16 0
BBX 16 16 0 -2
BITMAP
0000
1fe0
1020
1020
1fe0
1020
1020
1fe0
1020
1020
1fe0
0000
fffe
08c0
3030
c008
ENDCHAR
STARTCHAR 3672
ENCODING 13938
SWIDTH 960 0
DWIDTH 16 0
BBX 16 16 0 -2
BITMAP
0000
1ff0
1110
1ff0
1110
1ff0
0100
7ffc
4134
41ec
5e04
408c
1440
1454
2412
43f2
ENDCHAR
STARTCHAR 3673
ENCODING 13939
SWIDTH 960 0
DWIDTH 16 0
BBX 16 16 0 -2
BITMAP
0100
01f8
0100
3ffe
2234
3fc0
2204
21fc
2508
25f8
2400
27f0
4010
5ffe
8630
380c
ENDCHAR
STARTCHAR 3674
ENCODING 13940
SWIDTH 960 0
DWIDTH 16 0
BBX 16 16 0 -2
BITMAP
0040
0040
f8a0
8910
8a48
8df6
8910
89f0
8910
8914
89f4
f948
8920
8110
01c8
0e06
ENDCHAR
STARTCHAR 3675
ENCODING 13941
SWIDTH 960 0
DWIDTH 16 0
BBX 16 16 0 -2
BITMAP
0100
0100
3ffe
2444
2440
4444
0844
103c
2000
1ff8
0100
0100
0100
0100
7ffe
0000
ENDCHAR
STARTCHAR 3676
ENCODING 13942
SWIDTH 960 0
DWIDTH 16 0
BBX 16 16 0 -2
BITMAP
0800
0ff8
0c48
1448
17f8
2448
2448
67f8
a040
2ffc
2864
2854
286c
2b8c
2804
280c
ENDCHAR
STARTCHAR 3677
ENCODING 13943
SWIDTH 960 0
DWIDTH 16 0
BBX 16 16 0 -2
BITMAP
0200
0200
7ffc
4008
5fe0
9220
1fe0
1220
1fe0
0200
7ff8
4288
4268
7f98
4008
4018
ENDCHAR
STARTCHAR 3678
ENCODING 13944
SWIDTH 960 0
DWIDTH 16 0
BBX 16 16 0 -2
BITMAP
0000
43f8
2248
23f8
0248
0248
03f8
f040
17fc
1444
1454
1474
2d94
240c
4300
80fe
ENDCHAR
STARTCHAR 3679
ENCODING 13945
SWIDTH 960 0
DWIDTH 16 0
BBX 16 16 0 -2
BITMAP
0000
7bf8
4a48
4a48
53f8
6248
5248
4bf8
4840
4ffc
4c44
4c54
746c
45cc
4404
440c
ENDCHAR
STARTCHAR 367a
ENCODING 13946
SWIDTH 960 0
DWIDTH 16 0
BBX 16 16 0 -2
BITMAP
0100
0100
3ff8
2108
2108
3ff8
0100
0100
7ffc
4104
4104
7ffc
4104
0100
0100
0100
ENDCHAR
STARTCHAR 367b
ENCODING 13947
SWIDTH 960 0
DWIDTH 16 0
BBX 16 16 0 -2
BITMAP
2220
2220
23be
f550
2488
2800
67bc
74a4
6fa4
a4a4
a7a4
2424
2524
27b8
2ca0
20a0
ENDCHAR
STARTCHAR 367c
ENCODING 13948
SWIDTH 960 0
DWIDTH 16 0
BBX 16 16 0 -2
BITMAP
0802
0852
1452
1252
2152
7e52
0852
0852
7f52
0852
4a52
2c52
2892
0e82
1902
6202
ENDCHAR
STARTCHAR 367d
ENCODING 13949
SWIDTH 960 0
DWIDTH 16 0
BBX 16 16 0 -2
BITMAP
0000
3ff8
2008
2008
3ff8
2080
2490
22a0
2ff0
2810
2ff0
2810
4ff0
4810
8810
0830
ENDCHAR
STARTCHAR 367e
ENCODING 13950
SWIDTH 960 0
DWIDTH 16 0
BBX 16 16 0 -2
BITMAP
0000
3ff8
2008
2008
3ff8
2100
2910
2910
2ff0
2910
2100
3108
5108
5108
9ff8
1008
ENDCHAR
STARTCHAR 3721
ENCODING 14113
SWIDTH 960 0
DWIDTH 16 0
BBX 16 16 0 -2
BITMAP
1000
13fe
1202
1202
7ffe
1210
1292
1292
1e92
72fe
1210
1292
1492
1492
18fe
3082
ENDCHAR
STARTCHAR 3722
ENCODING 14114
SWIDTH 960 0
DWIDTH 16 0
BBX 16 16 0 -2
BITMAP
0100
0100
3ffe
2244
4c7c
3000
1ffc
1004
1ffc
1448
1448
17f8
2844
2844
4ffc
0804
ENDCHAR
STARTCHAR 3723
ENCODING 14115
SWIDTH 960 0
DWIDTH 16 0
BBX 16 16 0 -2
BITMAP
0100
0108
7d90
05a0
0940
1120
2118
c306
1ff0
1010
1010
1ff0
1010
1010
1ff0
1010
ENDCHAR
STARTCHAR 3724
ENCODING 14116
SWIDTH 960 0
DWIDTH 16 0
BBX 16 16 0 -2
BITMAP
2460
2460
ff60
24a4
24a4
3ca8
11b0
7ea0
52a0
52a0
7ea0
10a2
ffa2
10a2
109e
1080
ENDCHAR
STARTCHAR 3725
ENCODING 14117
SWIDTH 960 0
DWIDTH 16 0
BBX 16 16 0 -2
BITMAP
2108
27c8
d134
27c8
5554
fffe
2548
77dc
691a
a7e8
2108
1ff0
1010
1010
1ff0
1010
ENDCHAR
STARTCHAR 3726
ENCODING 14118
SWIDTH 960 0
DWIDTH 16 0
BBX 16 16 0 -2
BITMAP
0200
0200
7ffc
4488
4884
f07c
0040
63f8
1040
c7fc
2040
0040
13f8
2040
4ffe
8000
ENDCHAR
STARTCHAR 3727
ENCODING 14119
SWIDTH 960 0
DWIDTH 16 0
BBX 16 16 0 -2
BITMAP
0840
1244
7f78
00c2
3e42
223e
3e00
2244
3e78
2242
2242
263e
1008
1444
2222
4222
ENDCHAR
STARTCHAR 3728
ENCODING 14120
SWIDTH 960 0
DWIDTH 16 0
BBX 16 16 0 -2
BITMAP
0000
7bf8
4a48
4a48
53f8
6248
5248
53f8
4800
4ffe
4a88
4a50
7220
4210
4388
4e06
ENDCHAR
STARTCHAR 3729
ENCODING 14121
SWIDTH 960 0
DWIDTH 16 0
BBX 16 16 0 -2
BITMAP
0200
07e0
1840
6080
0140
0620
1918
f126
0920
0940
fffe
0540
0920
3118
c106
0100
ENDCHAR
STARTCHAR 372a
ENCODING 14122
SWIDTH 960 0
DWIDTH 16 0
BBX 16 16 0 -2
BITMAP
0000
fffe
0440
0440
3ff8
2448
2448
3ff8
0100
fffe
0540
0920
3118
c106
0100
0100
ENDCHAR
STARTCHAR 372b
ENCODING 14123
SWIDTH 960 0
DWIDTH 16 0
BBX 16 16 0 -2
BITMAP
1000
10f8
1488
e488
28f8
13de
1a52
2652
fbde
1020
5bfe
5470
54a8
5524
9222
1020
ENDCHAR
STARTCHAR 372c
ENCODING 14124
SWIDTH 960 0
DWIDTH 16 0
BBX 16 16 0 -2
BITMAP
0000
1fe0
0440
0380
0c60
fefc
2448
1930
e5ce
0100
fffe
0540
0920
3118
c106
0100
ENDCHAR
STARTCHAR 372d
ENCODING 14125
SWIDTH 960 0
DWIDTH 16 0
BBX 16 16 0 -2
BITMAP
1050
1090
2b90
2494
42b4
fcb4
13d4
1098
fed0
11b0
9598
5aa8
50a8
1ca4
30c4
c082
ENDCHAR
STARTCHAR 372e
ENCODING 14126
SWIDTH 960 0
DWIDTH 16 0
BBX 16 16 0 -2
BITMAP
0220
7c20
0820
ff20
08fc
7e24
4a24
7e24
4a24
7e44
3c44
0e98
f000
2448
4224
8222
ENDCHAR
STARTCHAR 372f
ENCODING 14127
SWIDTH 960 0
DWIDTH 16 0
BBX 16 16 0 -2
BITMAP
0000
3ff0
0210
0210
fffe
0210
0210
3ff0
0400
0400
0ff8
1808
2808
4808
8ff8
0808
ENDCHAR
STARTCHAR 3730
ENCODING 14128
SWIDTH 960 0
DWIDTH 16 0
BBX 16 16 0 -2
BITMAP
0820
7ffc
0830
3fc0
0100
fffe
1110
1ff0
1110
1ff0
0100
3ff8
0100
fffe
1488
6244
ENDCHAR
STARTCHAR 3731
ENCODING 14129
SWIDTH 960 0
DWIDTH 16 0
BBX 16 16 0 -2
BITMAP
0004
7c84
00a4
fea4
00a4
7ca4
00a4
00a4
7ca4
00a4
7ca4
44a4
44a4
4504
7d04
4604
ENDCHAR
STARTCHAR 3732
ENCODING 14130
SWIDTH 960 0
DWIDTH 16 0
BBX 16 16 0 -2
BITMAP
0044
7e24
1228
12fe
ff10
1210
1210
7e7c
1010
2010
3e10
63fe
6210
a210
3e10
2210
ENDCHAR
STARTCHAR 3733
ENCODING 14131
SWIDTH 960 0
DWIDTH 16 0
BBX 16 16 0 -2
BITMAP
0000
3ffc
2108
4100
bff8
0100
3ff8
2108
3ff8
2108
2108
3ff8
0100
fffe
0100
0100
ENDCHAR
STARTCHAR 3734
ENCODING 14132
SWIDTH 960 0
DWIDTH 16 0
BBX 16 16 0 -2
BITMAP
0000
3f3c
0924
0924
7fa8
0930
0928
3f24
0824
1022
1f22
3122
3132
512c
1f20
1120
ENDCHAR
STARTCHAR 3735
ENCODING 14133
SWIDTH 960 0
DWIDTH 16 0
BBX 16 16 0 -2
BITMAP
0410
0410
3f90
0410
0410
0418
7fd4
0412
0412
3f90
0410
0410
05d0
0e10
7010
0010
ENDCHAR
STARTCHAR 3736
ENCODING 14134
SWIDTH 960 0
DWIDTH 16 0
BBX 16 16 0 -2
BITMAP
0800
087c
ff44
0944
1144
1144
267c
4144
0100
fffe
0508
1890
e860
0820
0f18
7806
ENDCHAR
STARTCHAR 3737
ENCODING 14135
SWIDTH 960 0
DWIDTH 16 0
BBX 16 16 0 -2
BITMAP
1000
107c
1044
fe44
0248
0448
0850
1848
3444
5244
9142
1062
1052
104c
1040
1040
ENDCHAR
STARTCHAR 3738
ENCODING 14136
SWIDTH 960 0
DWIDTH 16 0
BBX 16 16 0 -2
BITMAP
080c
0870
0f80
1090
1110
2620
2140
6090
a108
2ffc
2044
2250
2248
2444
2844
2040
ENDCHAR
STARTCHAR 3739
ENCODING 14137
SWIDTH 960 0
DWIDTH 16 0
BBX 16 16 0 -2
BITMAP
1000
13fe
1020
2840
28fc
2a84
6c84
a8fc
2884
28fc
2a84
2a84
26fc
2028
2044
2182
ENDCHAR
STARTCHAR 373a
ENCODING 14138
SWIDTH 960 0
DWIDTH 16 0
BBX 16 16 0 -2
BITMAP
0002
3fe2
0922
0922
0922
0922
7fe2
0922
0922
0922
0922
0902
1102
1102
2106
4102
ENDCHAR
ENDFONT
